<?xml version="1.0" standalone="no"?>
<!DOCTYPE svg PUBLIC "-//W3C//DTD SVG 1.1//EN" "http://www.w3.org/Graphics/SVG/1.1/DTD/svg11.dtd" >
<svg xmlns="http://www.w3.org/2000/svg">
<metadata></metadata>
<defs>
<font id="fortunaschweinfortunaschwein" horiz-adv-x="1024" >
<font-face units-per-em="2048" ascent="1638" descent="-410" />
<missing-glyph horiz-adv-x="500" />
<glyph horiz-adv-x="0" />
<glyph horiz-adv-x="682" />
<glyph unicode=" " />
<glyph unicode="!" horiz-adv-x="438" d="M110 875.5q1 -97.5 7 -201t18 -188.5t29.5 -141t40.5 -60q23 16 37 76.5t20 145.5t8 185.5t2 194.5t1 175t6 126q-6 23 -5.5 57.5t-13.5 52.5q0 37 -14.5 43.5t-33.5 -6t-38.5 -35t-26.5 -40.5q-8 -29 -16 -55.5t-18 -55.5l10 22q-8 -39 -11 -118.5t-2 -177zM157 68.5 q7 -23.5 33 -33.5q10 -4 21.5 -10.5t21.5 6.5q27 4 39.5 26.5t22.5 42.5q6 20 -2 32.5t-21.5 20t-31 8.5t-31.5 -1l20 4q-25 6 -44 -9.5t-27 -39t-1 -47z" />
<glyph unicode="&#x22;" horiz-adv-x="462" d="M80 1186.5q-2 -41.5 3 -81.5t18.5 -70.5t35.5 -33.5q23 12 32 43t12 70t4 78t5 70q-4 10 -3 25.5t-9 25.5q0 16 -10 18t-23.5 -3t-24.5 -15t-16 -19q-4 -10 -10 -22t-12 -29l8 14q-8 -29 -10 -70.5zM248 1186.5q-2 -41.5 3 -81.5t17.5 -70.5t34.5 -33.5q25 12 34 43 t12 69t3 77q0 41 4 72q-4 10 -2 26.5t-8 24.5q0 16 -10 18t-23.5 -4t-25 -15t-15.5 -18q-6 -12 -12 -24.5t-10 -26.5l6 14q-6 -29 -8 -70.5z" />
<glyph unicode="#" horiz-adv-x="1540" d="M2 403q0 -23 15.5 -33t33.5 -10q23 0 36 3.5t25.5 6.5t28 7t39.5 6q14 0 52 -1t80 -3t80 -4t54 -2v-4q-6 -10 -18 -38l-25.5 -59.5t-24.5 -59.5t-16 -40q-10 -25 -19 -59.5t-9 -61.5q0 -20 10 -34.5t33 -14.5q25 0 42 25.5t31.5 65.5t28 85t30.5 85t40.5 65.5t56.5 25.5 q37 0 75 -6t73 -22q-47 -84 -85 -171t-69 -180q0 -4 -1 -14t-1 -14q0 -20 9 -39t36 -19t41 31q4 12 16.5 42t25.5 62.5t24.5 62.5t17.5 42q10 20 26.5 51t32 60.5t26.5 50t13 20.5q94 -2 153.5 -8t111 -7t106.5 4t145 26q23 4 34 20t11 35q0 18 -13 30.5t-30 12.5h-16 q-41 -8 -98.5 -11t-109.5 -4t-92 0t-46 1q-12 0 -31.5 2t-38 5t-30.5 5l-13 2v14l113 226h16q8 0 47 -4.5t92.5 -8.5t113 -5t110.5 5t84 22.5t33 49.5q0 16 -12.5 29.5t-30.5 13.5q-61 0 -95 -4t-69 -6t-87.5 1t-146.5 17q4 12 22.5 41t42 64.5t50.5 73.5t48.5 70t35.5 52.5 t14 22.5q0 25 -17.5 34t-39.5 9q-41 0 -81 -44t-77 -102.5t-65.5 -118t-44.5 -88.5q-2 -2 -6.5 -7t-8.5 -7h-6h-6q-10 2 -37 6t-55.5 8.5t-55 8.5t-36.5 6v8q0 45 22.5 85t49 78t49 77t22.5 84q0 23 -8 43t-37 20q-18 0 -29.5 -9t-17.5 -22.5t-11.5 -28t-11.5 -26.5 q-12 -29 -34.5 -75t-45 -90t-40 -77.5t-19.5 -38.5l-14 -20h-422q-12 0 -37 -8t-47.5 -21.5t-39.5 -30t-17 -32.5q0 -25 17 -34t40 -9q33 0 55.5 6t57.5 23h350q-12 -47 -33 -91.5t-37 -91.5q-4 -8 -9 -22l-5 -13h-350q-14 0 -40 -5t-50.5 -15t-42 -25.5t-17.5 -38.5z M614 467v6v8q6 31 13.5 55.5t17.5 47t23.5 48t29.5 58.5q8 0 32 1t32 1q39 0 67.5 -1t65.5 -15q0 -2 1 -9.5t1 -11.5q0 -18 -14.5 -54t-35 -71.5t-42 -63.5t-35.5 -28h-16q-8 2 -27.5 5t-42 8.5t-42.5 9.5t-28 6z" />
<glyph unicode="$" horiz-adv-x="1558" d="M25 119q0 -76 36.5 -134.5t77.5 -119.5q39 -57 91.5 -100.5t114 -74t130 -50t135.5 -27.5v-8q-4 -27 -7 -56.5t-1 -57.5t9 -51.5t26 -39.5h8q6 0 8 6q29 20 33 52t8 63h4q2 14 3 24.5t2.5 19.5t2.5 18t3 24q10 -2 18 -2h21q33 0 64.5 2t64.5 6q-4 -29 -7.5 -61.5 t-3.5 -63.5t7.5 -58.5t27.5 -45.5h8q6 0 9 6q20 18 30 48t14.5 63.5t6.5 67.5t6 62q117 27 220 81.5t180 135t121 187t44 237.5q0 270 -135 435t-401 211q-4 0 -15.5 1t-25.5 3v213q63 20 104 74.5t41 125.5q0 78 -40 142.5t-103 101.5v92q0 70 -16.5 90.5t-35 12t-33 -33 t-10.5 -44.5q2 -6 6.5 -21.5t0.5 -48.5q0 -4 -1.5 -7t-1.5 -7q-25 6 -51 6q-66 0 -127 -25v78q0 63 -13 88t-29.5 22t-32 -27.5t-19.5 -57.5q-2 -6 4 -21.5t2 -48.5q-6 -66 -6 -67q0 -4 1 -7.5t1 -7.5q-78 -57 -125 -144t-47 -186q0 -47 11.5 -97t41.5 -87q29 -37 61 -64.5 t64 -50.5v-282h-2q-111 0 -216 -36t-186 -102.5t-131 -161.5t-50 -214zM129 92v31q0 96 41 172t108.5 127t153.5 78.5t176 27.5v-333q-20 -14 -20 -37q0 -27 20 -43v-398q-158 23 -267.5 105t-201.5 241q-10 16 -10 29zM537 1225q0 45 19 92t54 86v-174q0 -14 -2 -17v-67 q0 -41 2 -94q-35 35 -54 77.5t-19 96.5zM694 797v75q43 -18 89 -29.5t96 -19.5v-94q0 -47 -1 -89t-1 -83q-41 27 -87.5 43t-93.5 25zM694 987v172q0 78 1 157t1 159q25 14 50.5 22t54.5 8q39 0 76 -12q2 -14 2 -31v-30v-195q-33 4 -39 35q0 4 4 25.5t4 25.5v14 q0 18 -10.5 24.5t-26.5 6.5q-41 0 -58.5 -30.5t-17.5 -69.5q0 -61 43.5 -99.5t98.5 -44.5q2 -41 2 -90v-102q-8 0 -14.5 1t-8.5 1q-41 6 -83 18.5t-79 34.5zM696 31v43v8q16 -2 33 -2h29q62 0 119 29v-392q-29 -4 -60 -7t-59 -3q-16 0 -29.5 1t-30.5 1v121q0 61 -1 113.5 t-1 87.5zM696 190v328q51 -10 100.5 -33.5t80.5 -62.5v-178q-25 -29 -59 -44.5t-68 -15.5q-29 0 -54 6zM963 797v12q43 -8 88 -17.5t92 -21.5q156 -86 228.5 -221t64.5 -313q-4 -100 -44 -181.5t-104.5 -145t-147.5 -106.5t-173 -67q0 55 -1 113.5t-1 105.5v80v39v112 q49 66 49 148q0 43 -13.5 79t-35.5 66v92zM963 1255q0 47 1 92.5t1 92.5q31 -37 30 -86q0 -29 -8 -55.5t-24 -43.5z" />
<glyph unicode="%" horiz-adv-x="845" d="M78 12q-8 4 13.5 55.5t63.5 130t97 179t116.5 205t122 206t110.5 182.5t86 134t46 61l-12 -6q12 10 23.5 16.5t21.5 12.5q8 6 22.5 9t26.5 2t19.5 -7t-0.5 -16q4 -10 -6.5 -21.5t-14.5 -21.5q-10 -10 -43 -68.5t-82 -147t-108.5 -195t-122 -214t-123 -206.5t-112.5 -171 t-90 -105.5t-54 -13.5zM143 1094q0 51 36 93t97 42q12 0 35 -7.5t44.5 -17.5t38 -25.5t16.5 -29.5l8 -111q0 -12 -15.5 -29.5t-36 -32.5t-41 -26.5t-26.5 -11.5q-33 0 -61.5 13.5t-49 35t-33 50t-12.5 57.5zM238 1092q0 -23 16 -42.5t41 -19.5q2 0 9 4t15.5 10.5t13.5 12.5 t5 12l-2 45q0 12 -19.5 21.5t-29.5 9.5q-23 0 -36 -15t-13 -38zM547 178q0 51 35.5 93t97.5 42q12 0 34.5 -7t44 -17t38 -25.5t16.5 -30.5l8 -110q0 -12 -15 -29.5t-35.5 -33t-41 -26.5t-27.5 -11q-33 0 -61.5 13t-49 34.5t-32.5 50t-12 57.5zM641 176q0 -23 16.5 -42 t40.5 -19q2 0 9.5 4t15.5 10t13 12t5 13l-2 45q0 12 -19.5 21t-29.5 9q-23 0 -36 -15t-13 -38z" />
<glyph unicode="&#x26;" horiz-adv-x="1697" d="M20 377q0 -4 8.5 -22.5t19.5 -41t22.5 -44t19.5 -31.5q33 -47 77 -80t94 -56.5t102.5 -41t105.5 -33.5h35t53.5 -1t52.5 -1h35h45t56.5 1t48.5 1h24q14 0 46 5t38 9q180 76 280.5 227.5t100.5 343.5q0 27 -10 51.5t-23.5 47t-23.5 44t-10 44.5h333q23 0 45.5 21.5t41 51 t29.5 60.5t11 49q0 23 -9 40t-34 17q-23 0 -38 -22.5t-26 -48t-22.5 -48t-25.5 -22.5h-533q-43 0 -88 -14.5t-82 -42t-60.5 -65.5t-23.5 -87q0 -20 1 -46t8.5 -47.5t21.5 -35.5t41 -14q23 0 39 8t16 33q0 27 -8 48t-8 48q0 25 12 42t30.5 28.5t42 15.5t46.5 4q31 0 66.5 -11 t67.5 -31.5t53.5 -50.5t21.5 -65q0 -129 -41 -222t-114 -152.5t-171 -88t-215 -28.5h-31q-20 0 -42.5 1t-45.5 1h-28q-74 25 -130.5 45t-100.5 48t-79.5 71t-68.5 117v18q0 14 -1 30.5t-1 28.5v21q0 72 20.5 140.5t59.5 125.5t97 97t134 57q12 0 44 -1t67 -1q37 0 68.5 1 t43.5 1t26.5 4t28 10t22.5 16.5t9 26.5q0 12 -6 30.5t-22 18.5h-226q-29 0 -59.5 22.5t-55 56.5t-40 72t-15.5 66q0 53 23.5 108.5t63.5 99.5t92.5 72.5t109.5 28.5q39 0 91 -13t99.5 -38.5t80 -63.5t32.5 -89q0 -14 -8 -24.5t-8 -24.5q0 -23 15.5 -33t35.5 -10 q37 0 50.5 30.5t13.5 61.5q0 72 -39 128t-97.5 95t-127 59.5t-130.5 20.5q-80 0 -152.5 -34t-125.5 -90t-85 -129t-32 -153q0 -78 22.5 -137t92.5 -104v-13q-43 -10 -96.5 -50t-100.5 -94t-80 -113.5t-33 -108.5v-252z" />
<glyph unicode="'" horiz-adv-x="276" d="M85 1232.5q-1 -36.5 5 -70.5t20.5 -59.5t36.5 -27.5q23 12 32 38t10 58.5t1 65.5q0 35 5 66q-4 10 -3 26.5t-10 24.5q0 16 -10 18t-23.5 -4t-24.5 -15.5t-15 -17.5q-6 -12 -11.5 -25.5t-11.5 -25.5l8 12q-8 -27 -9 -63.5z" />
<glyph unicode="(" horiz-adv-x="464" d="M18 641q0 63 3.5 143t13.5 138q2 8 9 35.5t16.5 61.5t17.5 64.5t12 46.5q12 35 32.5 88.5t47.5 113t60.5 118.5t71.5 106.5t80 77t87 29.5q57 0 57 -57q0 -10 -21.5 -28.5t-50 -40t-56 -44.5t-42.5 -41q-61 -84 -106 -183.5t-75 -203.5t-44 -212t-14 -210 q0 -143 18.5 -285.5t67.5 -277.5q12 -33 49 -79t76 -89t69.5 -75t30.5 -36q0 -18 -12.5 -30.5t-30.5 -12.5q-35 0 -59.5 17.5t-53.5 38.5q-86 61 -136 164.5t-76.5 220t-34 234.5t-7.5 208z" />
<glyph unicode=")" horiz-adv-x="561" d="M18 1788q0 18 13.5 30.5t29.5 12.5q23 0 50.5 -15.5t53 -35t47 -38t32.5 -24.5q47 -37 99 -108.5t95 -154.5t72 -167t29 -145v-645q-8 -23 -23.5 -81.5t-37 -133t-47 -155.5t-54.5 -147.5t-58.5 -110.5t-58.5 -44q-18 0 -31.5 12.5t-13.5 28.5q0 18 9 40.5t20.5 45t24 44 t18.5 40.5q45 123 78.5 244.5t74.5 244.5v588q0 2 -5 20.5t-11 43t-13.5 50t-11.5 42.5q-47 164 -133 276.5t-231 198.5q-16 23 -17 43z" />
<glyph unicode="*" horiz-adv-x="583" d="M55 1303q6 -16 27.5 -23.5t50.5 -11.5l-6 -6q-4 -10 -15.5 -18.5t-9.5 -22.5q-12 -14 -6 -23.5t20.5 -14.5t30 -6t21.5 1q10 4 24.5 9t26.5 11l-14 -6q6 2 18 12q0 -14 -1 -25.5t-1 -19.5q4 -10 3 -24.5t9 -24.5q0 -16 10.5 -18t23 3t24.5 14t16 15q4 8 9.5 16.5 t9.5 18.5q2 10 4 22.5t6 28.5q8 -6 14 -12t12 -10q10 -4 18.5 -15.5t25.5 -11.5q12 -12 20 -5t13 20.5t7.5 29t-0.5 21.5q-4 8 -7 17.5t-7 19.5h12q10 4 24.5 3t25.5 9q16 0 18 10t-3 22.5t-14.5 25t-15.5 16.5q-8 4 -16 9t-19 9q-4 0 -6 1t-4 1q-8 2 -18 4t-21 4 q33 45 43.5 83t-18.5 61q-16 4 -40 -8.5t-50 -36.5q-10 35 -26.5 55t-43.5 16q-29 -16 -35 -80q-39 25 -71.5 32t-51.5 -19q-6 -18 10.5 -46t45.5 -59q-47 -8 -77 -25.5t-26 -47.5zM326 1159q4 4 6 17zM426 1278l2 -8q-2 2 -2 8zM428 1374l2 -2q2 0 4 -2q4 0 5 -1t5 -1z" />
<glyph unicode="+" horiz-adv-x="561" d="M47 549q10 -25 59.5 -32t108.5 -7v-61q0 -37 -2 -43q4 -10 3 -24.5t9 -25.5q0 -16 10.5 -18t22.5 3t24.5 14.5t16.5 15.5q14 20 25 51l-7 -16q4 16 8.5 42.5t8.5 63.5h59q37 0 43 -2q10 4 24.5 3t24.5 9q16 0 18.5 10.5t-2.5 22.5t-14.5 24.5t-15.5 16.5q-8 4 -16.5 9 t-18.5 9q-20 4 -44.5 8.5t-57.5 8.5q-4 68 -22.5 119t-59.5 45q-25 -10 -32 -57.5t-7 -106.5q-70 -4 -121 -22.5t-45 -59.5zM420 621l16 -7q-12 2 -16 7z" />
<glyph unicode="," horiz-adv-x="415" d="M30.5 -215q-10.5 -53 8.5 -66q27 0 57.5 44t61 100.5t57.5 113t45 80.5q2 10 9 24.5t3 27.5q6 14 -2 20t-21 7t-28.5 -2t-21.5 -9q-10 -8 -21.5 -16.5t-21.5 -18.5l12 8q-18 -20 -48 -77.5t-54.5 -120t-35 -115.5z" />
<glyph unicode="-" horiz-adv-x="610" d="M96 455q10 -25 61.5 -32t112.5 -7q63 0 124 2t91 -2q10 4 24.5 3t25.5 9q16 0 18 11.5t-3 23.5t-14.5 23.5t-15.5 15.5q-23 16 -51 24l16 -6q-18 6 -55 11.5t-82 6.5t-92 -1t-84 -11.5t-58.5 -27t-17.5 -43.5z" />
<glyph unicode="." horiz-adv-x="346" d="M90 52.5q4 -19.5 43 -46.5h39t19.5 4t15.5 16.5t26 36.5q8 37 0 55.5t-23 25t-31.5 4t-22.5 -8.5q-10 -8 -21.5 -16t-21.5 -19l12 9q-39 -41 -35 -60.5z" />
<glyph unicode="/" horiz-adv-x="710" d="M82 -41q-10 6 3 65.5t41 152.5t65.5 212t80.5 242t87 242.5t81 215t64 158t37 72.5l-13 -8q10 10 21.5 18t21.5 17q6 6 21.5 10t29 2t21.5 -8.5t2 -20.5q4 -12 -3 -26.5t-9 -24.5q-8 -12 -31.5 -81t-56.5 -172t-74 -229t-85 -253t-88 -243t-85 -201t-75 -125t-56 -15z " />
<glyph unicode="0" horiz-adv-x="794" d="M20 391q6 -6 7 -14q0 -4 1 -15.5t3 -24.5t3 -25.5t1 -14.5q4 -33 21.5 -67.5t41 -67.5t50 -61.5t49.5 -47.5q23 -20 55.5 -22t58.5 -19h191q6 14 30.5 18.5t36.5 8.5q27 12 54.5 44t51 69.5t42 76.5t26.5 68q2 10 5.5 29.5t6.5 40t7 39t10 26.5v150q-18 39 -23.5 83 t-17.5 85q-18 59 -66.5 119.5t-95.5 97.5q-16 10 -35.5 12t-31.5 18h-103l-47 50q0 2 -6 2h-8q-10 0 -15.5 -1t-8.5 -3.5t-8 -6.5t-15 -10q-92 -61 -150.5 -159.5t-93.5 -200.5q-4 -12 -5 -28.5t-3 -34t-6 -34t-13 -24.5v-156zM115 418v94q6 6 9 22.5t6 35l6 37t5 28.5 q4 16 24.5 60t46.5 91.5t53.5 84t47.5 36.5q0 -14 -8 -35v-108q18 -29 25.5 -46.5t15.5 -29.5t23.5 -22.5t50.5 -24.5q2 0 7 -3t7 -3h6q16 0 31.5 11t15.5 28q0 25 -13 39t-30.5 28.5t-31 29.5t-13.5 42q0 23 6.5 41t8.5 45h22q41 0 70 -18.5t55 -49.5q2 -2 4 -6l4 -8 q12 -31 34 -53.5t34 -54.5q4 -14 8 -36t8 -44.5t9.5 -43t13.5 -32.5q2 -4 2 -23v-20q0 -35 -6 -59.5t-8 -59.5l-7 -6q-4 -70 -38.5 -128t-77.5 -110q-14 -16 -35 -23t-39 -18h-129q-4 4 -19.5 11.5t-21.5 9.5q-2 2 -19.5 4t-19.5 2q-20 8 -41.5 34t-40 55.5t-32 59 t-15.5 48.5q0 2 -1 13t-2 24.5t-2 23.5t-1 15q-2 2 -4 6t-4 6z" />
<glyph unicode="1" horiz-adv-x="632" d="M20 47q0 8 10.5 27.5t24.5 19.5h156q10 8 24.5 11.5t28.5 5.5l21 757h-6q-10 -8 -24.5 -22.5t-30 -27.5t-32 -22.5t-32.5 -9.5t-30.5 12.5t-14.5 28.5q0 12 2 18.5t12 16.5l13.5 13.5t24.5 23.5t23.5 22.5t12.5 14.5l13 19.5t20.5 28.5t20.5 28.5l13 19.5 q-4 25 13.5 43.5t42.5 18.5q14 0 33.5 -12.5t19.5 -28.5q-8 -293 -13.5 -469t-8.5 -274.5t-4 -136.5t-1 -56v-11h211q16 0 31.5 -20t15.5 -35q0 -25 -28 -47h-23q-8 0 -19.5 -1t-17.5 7h-272l-12 -6h-191q-14 0 -20.5 16.5t-6.5 26.5z" />
<glyph unicode="2" horiz-adv-x="970" d="M20 88v14q59 70 127 122t138 114q63 33 125.5 94.5t111.5 135t79 149.5t29 137t-39 101t-122 40q-37 0 -85 -15t-90 -43t-70.5 -65.5t-28.5 -80.5q0 -16 13 -38t36 -22q10 0 17 3t18 9v5q0 16 -14.5 24t-14.5 27q0 20 13 33.5t34 13.5q47 0 71.5 -34t24.5 -77v-18 l-67 -68q-14 -14 -41 -14h-41h-25q-20 0 -22 2q-8 12 -20.5 17t-26 13.5t-25.5 21.5t-23 42q-2 4 -2 27v26q0 76 25 119t78 84q23 18 48 42t54 34q27 10 53 10q29 0 56 17h108l5 -4q5 -3 8 -3q90 -14 138 -62t59 -117.5t-11.5 -155.5t-75.5 -174.5t-132 -172.5t-181 -151 q-6 0 -6 -6q16 -23 36.5 -24t43.5 -11q37 -14 68.5 -41t66.5 -47q12 -4 32.5 -15.5t22.5 -11.5h115q10 8 18 8q6 0 23 7q41 16 71.5 45.5t30.5 76.5t-43 48q-18 0 -25.5 -8.5t-12.5 -20.5t-10 -25.5t-18 -21.5q-4 0 -12 -1t-12 -1q-16 0 -29.5 4t-21.5 24v35q0 31 6 46.5 t35 35.5q10 4 29.5 15.5t23.5 11.5h102q8 -8 22.5 -16.5t28 -17.5t22.5 -21.5t9 -26.5v-109q-16 -23 -18 -42t-23 -46q-23 -27 -56.5 -48t-66.5 -32q-12 -4 -24 -5t-23 -9h-176q-2 0 -15.5 6t-30.5 14.5t-34.5 17.5t-27.5 15q-27 16 -48.5 32.5t-44 29t-48 20.5t-58.5 8h-18 q-16 0 -19 -2q-10 -12 -27.5 -29.5t-38 -34t-41 -27.5t-38.5 -11q-4 0 -12.5 1t-12.5 1q-10 10 -18.5 20.5t-8.5 26.5z" />
<glyph unicode="3" horiz-adv-x="741" d="M18 297q0 -4 1 -20.5t1 -20.5q10 -14 13.5 -29.5t13.5 -29.5q14 -20 44 -49t64.5 -55.5t69.5 -46t60 -19.5h155q20 10 46 9t42 5q23 6 50.5 29.5t52 53.5t45 60.5t29.5 53.5q6 16 5 25t9 22v161q-10 16 -12 33t-4.5 33t-6.5 31.5t-18 31.5q-6 6 -26.5 28t-28.5 26 q-37 8 -73 20.5t-75 14.5v6l148 155q10 25 26.5 40.5t16.5 43.5q0 4 -1 11l-1 8q-2 6 -12.5 18t-14.5 12h-440q2 23 -20.5 44.5t-45.5 21.5q-16 0 -29.5 -12.5t-13.5 -28.5v-16q0 -6 6 -13q0 -4 1 -23.5t1 -23.5q0 -27 -4 -48t-4 -46v-29q20 -27 49 -26q14 0 25.5 11 t18.5 27.5t10.5 34t5.5 29.5h311v-6q0 -2 -18.5 -22.5t-28.5 -32.5q-18 -20 -61.5 -50t-88.5 -64t-79.5 -67.5t-34.5 -58.5t17 -35t38 -10q20 0 37.5 8t36.5 13q39 10 81 19t80 9q41 0 77 -21.5t46 -60.5q4 -10 4 -28q0 -16 9 -27v-109q-12 -20 -19.5 -43.5t-19.5 -44.5 q-37 -59 -93.5 -83.5t-121.5 -24.5h-43q-10 6 -26.5 13t-35 14.5t-36 14.5t-25.5 13q-10 6 -24.5 21.5t-29 34t-24.5 37t-10 32.5q0 18 11 34.5t11 37.5q0 16 -14 28.5t-31 12.5q-23 0 -37 -12.5t-22 -30t-11.5 -38t-3.5 -36.5z" />
<glyph unicode="4" horiz-adv-x="753" d="M20 551q0 -10 8.5 -31.5t18.5 -21.5h344q0 -18 2 -30t-8 -28v-413q0 -10 18.5 -18.5t26.5 -8.5q10 0 28.5 11.5t18.5 23.5v377q2 2 6 7t4 7q2 8 4.5 34.5t2.5 37.5h208q8 0 18.5 16t10.5 27q0 10 -8 30.5t-21 20.5h-194v84l6 14v256q0 16 -19.5 32.5t-33.5 16.5 q-12 0 -29.5 -9t-17.5 -25v-82l6 -13v-143l-10 -12v-115h-246q0 18 10 35.5t23.5 36t27 36t19.5 33.5q10 23 12 45.5t14 42.5v156q0 29 -27.5 48.5t-52.5 19.5q-31 0 -66.5 -20.5t-35.5 -59.5q0 -14 18.5 -31.5t34.5 -17.5h9q2 0 10 3t10 3q6 0 6 -6v-31q0 -68 -36 -130.5 t-72 -115.5q-14 -23 -31 -43t-17 -49z" />
<glyph unicode="5" horiz-adv-x="808" d="M20 197q10 -16 14.5 -37t12.5 -37q12 -23 38 -45.5t38 -36.5q23 -25 41 -38t36.5 -21.5t40 -15.5t50.5 -19h176q6 6 14 6q2 0 13.5 1t23.5 3t23.5 3t13.5 1q31 8 64.5 27.5t64.5 44t54.5 54.5t33.5 63q4 10 4 30t10 31v123q-10 10 -11 36.5t-3 30.5q-14 72 -67.5 133.5 t-114.5 96.5q-16 10 -34.5 13t-33.5 13h-170q-23 -10 -57.5 -17t-61.5 -7v209q-8 8 -10 20t-1 26.5t3 26t2 17.5h369l6 6t8 4q10 2 40 5t40 1q12 10 20.5 19.5t8.5 25.5q0 10 -10.5 26.5t-24.5 16.5h-109l-12 -6h-381q-18 8 -37 8q-18 0 -31.5 -12t-13.5 -31q0 -4 1 -11 l1 -7q0 -2 3.5 -7t3.5 -7q2 -12 5 -36t7 -48.5t8 -44t10 -21.5v-244q0 -23 30 -45t52 -22h17q4 2 14 9t21.5 15.5t22.5 14.5t15 8q10 4 29 4q20 0 33 10h121q18 0 41.5 -14t47 -33.5t42 -41t26.5 -34.5q20 -35 30.5 -85t10.5 -91q0 -78 -48 -131t-122 -78q-2 0 -11 -1 t-19.5 -2t-19.5 -2t-11 -1q-2 -2 -7 -4t-8 -4h-120q-10 10 -27 10q-16 0 -29 4q-20 6 -46.5 26.5t-51.5 48.5t-41 55.5t-16 50.5q0 16 19.5 29.5t35.5 13.5q8 0 12 -8.5t8.5 -17.5t10.5 -16.5t18 -7.5q35 0 44 20.5t9 47.5v12q0 10 -2 10l-53 54h-102q-8 0 -24.5 -8.5 t-32 -20.5t-27 -26.5t-11.5 -24.5v-96z" />
<glyph unicode="6" horiz-adv-x="753" d="M20 352q16 -20 17.5 -53t9.5 -55q39 -104 123 -169t182 -102h176q4 4 16.5 11.5t16.5 9.5q2 0 10.5 3t10.5 3q8 6 23.5 21.5t29.5 32t25.5 31.5t15.5 24q14 33 26.5 65.5t28.5 63.5v202q-16 25 -21 45.5t-26 49.5q-23 29 -45.5 44t-47 23t-51 12t-59.5 9q-8 0 -14 6 q-4 0 -18.5 1t-18.5 1q-47 0 -99 -20.5t-96.5 -54.5t-75 -78t-36.5 -93h-8v129q16 25 19 60.5t7 62.5q4 25 17.5 64.5t23.5 62.5q12 29 36 66.5t32 62.5l88 88q12 4 22.5 15.5t22.5 11.5q18 0 31.5 -17.5t36.5 -17.5q18 0 34.5 12t16.5 33q0 18 -13.5 34.5t-32 28t-39 17.5 t-34.5 6q-43 0 -89 -31t-87 -77t-73 -98t-46 -93q-8 -20 -10 -43t-10 -45q-4 -10 -11.5 -22.5t-9.5 -24.5q-4 -27 -7 -65t-20 -64v-189zM223 264v129q4 4 17.5 19.5t17.5 21.5l2 10q2 9 4 9q10 10 32.5 24.5t47.5 26.5t49.5 21.5t38.5 9.5q25 0 59.5 -7.5t66.5 -24t54.5 -41 t22.5 -56.5v-142q-25 -45 -42.5 -90t-57.5 -80q-8 -6 -23.5 -16t-17.5 -10h-115q-6 0 -21.5 5t-30 12t-25.5 16.5t-11 17.5q0 12 10 22.5t10 24.5t-9 27.5t-22.5 24.5t-27.5 21.5t-23 18.5z" />
<glyph unicode="7" horiz-adv-x="794" d="M20 874q0 -16 16.5 -25t29.5 -9q6 0 26.5 10t20.5 18v74h327q12 -10 35 -9t33 1h22q20 0 25 2q8 0 14 6l4 -2q0 -12 -14 -40t-33.5 -58.5t-38 -57t-26.5 -39.5l-62 -81q-4 -4 -8 -11.5t-6 -9.5q-10 -23 -21.5 -48.5t-31.5 -37.5q-4 -2 -23 -2h-22q-23 0 -40.5 4t-37.5 4 q-16 0 -28.5 -14t-12.5 -31q0 -23 12.5 -35t30.5 -18t38.5 -8t35.5 -2v-15q0 -8 -6.5 -32.5t-14.5 -52t-16 -52t-10 -31.5v-211q23 -37 48 -74.5t72 -52.5q10 -4 27 -4q18 0 29 -10h106q14 0 31.5 20.5t17.5 32.5q0 18 -13 34t-32 16q-14 0 -26.5 -4.5t-26.5 -4.5t-37.5 5.5 t-46 15.5t-39 25.5t-16.5 35.5v156q2 8 13 41t22.5 69.5t20.5 66.5t11 30h191q12 0 22.5 18.5t10.5 28.5t-8.5 28.5t-18.5 18.5h-133q0 16 21.5 53t49 77t55 75t40.5 49q10 10 18 29.5t17 31.5q2 2 7 9.5t10 16.5t10 17.5t5 10.5q8 12 21.5 13t26 4t20.5 12.5t8 35.5 q0 16 -10 32.5t-31 16.5q-10 0 -18 -3t-19 -3h-4q-8 0 -14 6h-135q-10 -6 -18.5 -7t-18.5 -1t-17.5 1t-13.5 11h-323q-4 0 -8.5 12.5t-11.5 27t-19.5 26.5t-32.5 12q-27 0 -35 -15.5t-9 -37t-1 -43.5q0 -20 -13 -33v-115z" />
<glyph unicode="8" horiz-adv-x="917" d="M20 217q39 -66 69 -104.5t61.5 -64t72.5 -45t103 -44.5q20 -8 45.5 -11t42.5 -16h149q23 16 49 17q29 0 52 10q106 41 168.5 127t62.5 199q0 63 -21.5 103t-57.5 67.5t-79 49t-86 50.5q0 2 -1 3l-1 1q0 18 17.5 40t23.5 38q2 4 4 17.5t4 17.5t9.5 16t11.5 17v129 q-20 20 -26.5 41.5t-28.5 39.5q-4 4 -22.5 16.5t-25.5 16.5q6 10 19.5 15.5t23.5 5.5q23 0 41.5 -9.5t37 -21.5t37 -21.5t38.5 -9.5q18 0 30.5 16.5t12.5 32.5q0 4 -1 8l-1 5l-55 55q-6 0 -19.5 5t-28 11.5t-27.5 12.5t-19 10h-89q-14 -10 -29.5 -13t-31.5 -14 q-10 -8 -18.5 -25.5t-22.5 -21.5q-4 -2 -17.5 2t-26.5 9.5t-26.5 12.5t-17.5 11h-115q-23 -16 -50.5 -23.5t-49.5 -17.5q-35 -16 -66.5 -46t-56.5 -56q-12 -14 -14 -29.5t-13 -32.5v-121q0 -18 13.5 -37.5t32 -39t38 -35t31.5 -23.5v-14q0 -2 -13 -14.5t-20 -20.5 q-35 -31 -54 -60.5t-34 -74.5q-4 -10 -10 -16.5t-10 -16.5q-4 -14 -5 -22.5t-10 -18.5v-88zM115 260q0 16 5 22.5t15 28.5q10 18 11 38t10 38q6 12 19 26.5t30.5 27t36 19.5t32.5 7t22.5 -10.5t25.5 -10.5q16 0 26 10.5t25 10.5h149l13 -10h102q20 -16 49 -32.5t54.5 -36 t43 -45.5t17.5 -56q0 -61 -29 -109.5t-73 -82.5t-100 -51t-112 -17h-47q-10 8 -22 9t-25 5q-29 8 -61.5 18.5t-61.5 22.5q-18 8 -44.5 29.5t-51 47t-42 53.5t-17.5 48zM156 756q0 41 26.5 75.5t61.5 55.5q8 6 26.5 13t38 13.5t36.5 11.5t24 5q4 0 13 -1t11 -1q4 0 17.5 -9.5 t15.5 -11.5q4 0 24.5 -2t24.5 -4q23 -6 48.5 -17.5t48 -28.5t38 -38.5t15.5 -48.5q0 -16 -8.5 -42t-22.5 -52.5t-32.5 -45t-39.5 -18.5h-143q-6 6 -12 6q-31 4 -68 10.5t-68.5 21t-53 40t-21.5 68.5z" />
<glyph unicode="9" horiz-adv-x="686" d="M20 145q0 57 43 82t97 25h20q20 0 23 -2q23 -16 39 -39t16 -51v-25q-10 -10 -21.5 -18t-27.5 -8q-10 0 -17.5 7t-13.5 16t-12 16.5t-14 7.5q-16 0 -20.5 -9.5t-4.5 -21.5q0 -16 5 -45t17.5 -39t36.5 -25l23 -16h123q4 0 19.5 9t32.5 22.5t31.5 26t16.5 18.5q2 2 4 19.5 t4 19.5q4 12 14.5 21t12.5 26q4 18 6 20q2 4 4 23.5t4 23.5q0 4 9.5 20.5t9.5 20.5q10 37 13 85t7 85q4 29 11.5 57.5t7.5 57.5q-12 0 -26.5 -2t-25.5 -12h-170q-33 20 -59.5 28.5t-51 16.5t-49 24.5t-55.5 53.5q-14 14 -14 36q0 23 -14 37v109q14 20 18 42.5t10 45.5 q8 31 31 56.5t51.5 45t58 35.5t54.5 31h176q29 -16 63.5 -24.5t59.5 -35.5q10 -14 31.5 -36.5t21.5 -24.5q4 -4 9.5 -16.5t5.5 -16.5v-217l-9 -14q0 -63 -8 -115.5t-12 -114.5q-10 -12 -13.5 -34.5t-5.5 -38.5q0 -6 -1 -18.5t-3 -27t-3 -26.5t-1 -16q-6 -6 -6 -15 q-6 -37 -18.5 -94t-32 -115.5t-49 -105.5t-70.5 -64q-2 0 -13 -3t-13 -3q-4 -2 -20.5 -8t-20.5 -10h-195q-4 0 -19.5 7t-21.5 11q-59 41 -84 94t-25 125zM168 788q0 -59 45 -91.5t98 -47.5q10 -2 26.5 -3t27.5 -9h75q12 10 17.5 7t23.5 5q35 16 54.5 55t19.5 74q0 39 -6 74 t-8 76q-8 14 -17 14q-4 0 -10 1t-14 5q-16 8 -18.5 15.5t-3.5 13.5t-6 12t-26 12q-2 0 -7 3.5t-7 3.5h-106q-4 0 -25.5 -10.5t-30.5 -16.5q-43 -33 -72.5 -85.5t-29.5 -107.5z" />
<glyph unicode=":" horiz-adv-x="342" d="M47 52.5q4 -19.5 43 -46.5h39t19.5 4t15.5 16.5t26 36.5q8 37 0 55.5t-23 25t-31.5 4t-22.5 -8.5q-10 -8 -21.5 -16t-21.5 -19l12 9q-39 -41 -35 -60.5zM49 359.5q4 -19.5 43 -46.5h39t19.5 4.5t15.5 16.5t27 37q8 37 -0.5 55t-23.5 24.5t-31.5 4.5t-22.5 -9 q-10 -8 -21.5 -16t-21.5 -18l12 8q-39 -41 -35 -60.5z" />
<glyph unicode=";" horiz-adv-x="411" d="M37 -200.5q-10 -53.5 8 -65.5q27 0 57.5 44t61.5 100t57.5 112.5t44.5 81.5q2 10 9.5 24.5t3.5 26.5q6 14 -2.5 20.5t-21.5 7.5t-28.5 -2.5t-21.5 -9.5q-10 -8 -21.5 -16t-21.5 -19l12 9q-18 -20 -48 -78t-54.5 -120t-34.5 -115.5zM168 369.5q4 -19.5 43 -45.5h39t19 4 t15.5 16t26.5 37q8 37 0 55.5t-23.5 24.5t-31.5 4t-23 -8q-10 -8 -21 -16.5t-22 -18.5l13 8q-39 -41 -35 -60.5z" />
<glyph unicode="&#x3c;" horiz-adv-x="1294" d="M33 539q0 -43 16.5 -71t43 -42t61 -19.5t71.5 -5.5q45 0 85 14.5t83 14.5q18 0 65.5 -19.5t109 -49t129 -66.5t130 -71t113.5 -62.5t76 -40.5q10 -6 37.5 -19.5t59.5 -30t59.5 -29.5t39.5 -19q4 0 14.5 -1.5t14.5 -1.5q20 0 38.5 9.5t18.5 36.5t-30 40q-16 8 -58.5 31 t-88.5 47.5t-88 47t-58 30.5q-35 16 -101.5 46t-135 64t-126 68.5t-73.5 59.5l14 14q8 4 39 22.5t66.5 40t66.5 40t39 22.5q2 2 7 8t7 6q8 6 30.5 21.5t47.5 31t46.5 29t29.5 17.5q25 14 83 46.5t117.5 70.5t105.5 75t46 60t-15.5 34t-35.5 11q-8 0 -43 -17.5t-76 -40 t-74.5 -43t-38.5 -28.5q-18 -12 -56 -36t-86 -54.5t-101 -64.5t-101.5 -63.5t-87.5 -53t-57 -36.5q-37 -23 -54.5 -33t-49.5 -10q-37 0 -71 11.5t-66.5 24.5t-66.5 24.5t-71 11.5h-29t-28 -2q-29 -20 -36 -43t-7 -57zM133 543h6h8l13 -3q14 -3 29.5 -8.5t28.5 -11.5t13 -14 v-6l-84 14z" />
<glyph unicode="=" horiz-adv-x="649" d="M82 362q10 -25 61.5 -31.5t112.5 -6.5q63 0 123.5 2t91.5 -2q10 4 24.5 3t24.5 9q16 0 18.5 11t-3 23.5t-14.5 24t-15 15.5q-23 16 -51 24l16 -6q-18 6 -55 11t-82 6t-92 -1t-84 -11t-58.5 -26.5t-17.5 -44.5zM90 557q10 -25 61.5 -32t112.5 -7q63 0 124 2t91 -2 q10 4 24.5 3t24.5 9q16 0 18.5 11.5t-2.5 24t-14.5 23.5t-15.5 15q-23 16 -51 25l16 -6q-18 6 -55 11t-82 6t-92 -1t-84 -11.5t-58.5 -26.5t-17.5 -44z" />
<glyph unicode="&#x3e;" horiz-adv-x="1304" d="M18 1008q0 -27 31 -41q16 -10 58.5 -32t88.5 -46.5t88 -47t58 -30.5q35 -16 101.5 -46t135 -63.5t126 -68.5t73.5 -60l-14 -14q-8 -4 -39 -22.5t-66.5 -40t-66.5 -40t-39 -22.5q-2 -2 -7 -8t-7 -6q-10 -6 -32 -21.5t-46.5 -31t-46 -28.5t-29.5 -17q-25 -14 -83 -47 t-117.5 -71t-105.5 -74.5t-46 -59.5t15 -34t36 -11q8 0 43 17t76 39.5t74.5 43t37.5 29.5q18 12 56.5 35.5t86.5 54t101 64.5t101.5 63.5t87 54.5t57.5 35q37 23 54.5 33t49.5 10q37 0 71 -11.5t66.5 -24.5t66.5 -24.5t71 -11.5h28q23 0 29 2q29 20 36 43t7 58 q0 43 -16.5 70.5t-43 42t-61.5 19.5t-71 5q-45 0 -85 -14.5t-83 -14.5q-20 0 -66.5 19.5t-108 49t-129 66.5t-130 71t-113.5 61.5t-76 41.5q-10 6 -37.5 19.5t-59.5 30t-59.5 29.5t-40.5 20q-4 0 -14 1t-14 1q-20 0 -39 -9.5t-19 -35.5zM1085 567v6l84 -14l15 -29h-6h-9 l-13 4q-13 3 -28.5 7t-29 11t-13.5 15z" />
<glyph unicode="?" horiz-adv-x="917" d="M35 1075v41v41q12 16 23.5 20.5t23.5 4.5q14 0 30.5 -2t39.5 2q2 0 15 6t28.5 13t28 13.5t16.5 6.5q41 12 62.5 15t51.5 3h47q78 0 157 -7t142.5 -36t104.5 -85t41 -157q0 -55 -13.5 -92t-42 -62.5t-71.5 -46t-101 -42.5q-12 -4 -41.5 -19.5t-67.5 -38t-77 -50.5 t-68.5 -56.5t-43 -56t1.5 -52.5q6 -16 -8.5 -28.5t-39 -19.5t-55.5 -10t-56.5 0t-39.5 11t-6 23q51 98 109.5 160.5t116.5 103.5t114.5 65.5t104.5 47t88 49t63 71.5v43q0 29 -11.5 56.5t-30 49t-45 34t-59.5 12.5h-221q-43 0 -73.5 -19.5t-57.5 -44t-53.5 -44t-59.5 -19.5 q-39 0 -53 29.5t-14 66.5zM131 52.5q4 -19.5 43 -46.5h39t19.5 4t15.5 16.5t26 36.5q8 37 0 55.5t-23 25t-31.5 4t-22.5 -8.5q-10 -8 -21.5 -16t-21.5 -19l12 9q-39 -41 -35 -60.5z" />
<glyph unicode="@" horiz-adv-x="1624" d="M76 453q4 -4 4 -13q0 -6 1 -30.5t1 -30.5q14 -33 29.5 -63.5t33.5 -59.5q8 -14 14.5 -28.5t16.5 -26.5q12 -16 25.5 -29.5t23.5 -32.5q4 -4 7.5 -9t5.5 -7q8 -6 22 -20.5t16 -16.5q12 -10 31 -18.5t33 -18.5q41 -27 72.5 -39t76.5 -35q41 -16 81 -31.5t81 -25.5 q12 -2 30.5 -6t37 -7t31.5 -6l14 -3h180q4 2 12.5 3t12.5 1q10 0 38.5 1t36.5 1q4 2 7.5 4t7.5 2h10q10 0 20.5 1t20.5 2t12 1q4 0 14 3l9 3q4 2 11 3t9 1t15.5 2t15.5 2q55 16 113.5 43t109.5 49q2 2 6.5 5.5t6.5 3.5q4 4 27.5 15t27.5 15q2 2 12 10.5t22.5 17.5t23.5 18.5 t18 13.5q10 8 13 13t3 20q0 37 -37 36q-47 0 -81 -24.5t-72 -48.5q-12 -10 -26.5 -14.5t-31.5 -12.5l-7 -7t-7 -5q-2 -2 -13.5 -3t-15.5 -1q-2 -2 -18.5 -8.5t-20.5 -8.5l-6 -1t-8 -3q-12 -4 -22.5 -11t-24.5 -11q-25 -8 -49.5 -10.5t-51.5 -8.5q-6 -4 -28.5 -7t-28.5 -5 q-2 0 -10 -1t-19 -1q-8 0 -16 -1t-10 -1l-4 -1q-4 -1 -6 -1h-101q-18 10 -40.5 8t-45.5 2q-6 2 -20.5 5t-16.5 3q-4 0 -27.5 2t-27.5 2t-10 1t-8 3q-23 8 -46.5 20.5t-48.5 20.5q-12 4 -34.5 8.5t-34.5 10.5q-2 4 -12.5 11t-14.5 9q-49 33 -95 61.5t-83 78.5 q-33 47 -59.5 88t-46.5 94v235v11q0 68 19 132t54 120.5t82 104.5t103 85q6 4 22 15.5t21 15.5q2 0 7 1t7 1q2 2 14.5 6t24.5 8t23.5 8t15.5 4q29 10 56.5 14.5t55.5 10.5h127q29 -12 69 -16.5t67 -8.5q18 -2 33.5 -9t31.5 -13q53 -16 104.5 -39t81.5 -72q2 -4 6.5 -9 t4.5 -7q25 -25 37 -43.5t28 -48.5q37 -68 52.5 -143.5t15.5 -153.5v-39q-4 -4 -7 -15.5t-5.5 -15.5t-2.5 -14q0 -8 -2 -8q-12 -35 -33.5 -64t-43.5 -57h-7q-72 0 -115.5 35.5t-54.5 103.5q-10 43 -13 86t-11 88q-2 16 -9.5 32.5t-9.5 33.5q-4 25 -8 55.5t-18 52.5 q-16 23 -30.5 37t-30 24.5t-34 19.5t-42.5 19q-10 4 -17.5 9.5t-20 9.5t-21.5 3t-19 5h-103q-20 -10 -45.5 -15t-48.5 -12q-10 -4 -25.5 -19t-29.5 -34.5t-26.5 -38t-18.5 -28.5q0 -2 -2 -5l-2 -4v-104q0 -14 14 -18.5t25 -4.5q16 0 35.5 7.5t23.5 23.5q-6 35 6 59.5t35 40 t51.5 22.5t57.5 7h4q6 -4 25.5 -9t23.5 -7q59 -23 86.5 -80t27.5 -117v-12q-29 8 -59 8q-29 0 -57 6q-10 2 -41 2h-41h-47q-29 0 -33 -2q-8 0 -28.5 -2t-42 -5t-41 -6t-27.5 -5q-59 -14 -90 -65.5t-31 -108.5q0 -72 40 -118t103 -75q66 -16 128.5 -26.5t129.5 -10.5 q76 0 153 10.5t142 51.5q33 -14 65.5 -38t69.5 -24q39 0 86 18.5t72 49.5q2 2 5 6l3 4q16 14 25.5 17.5t19.5 23.5q33 49 49.5 124t16.5 130v12l2 105q-12 25 -14.5 54.5t-10.5 55.5q-8 33 -22.5 73t-35 79t-43 72.5t-44.5 54.5q-6 4 -14.5 6t-14.5 6q-18 12 -33.5 25.5 t-37.5 19.5q-8 4 -25.5 9.5t-22.5 7.5q-2 0 -12 4t-20.5 9t-20.5 9t-12 4q-29 10 -55.5 14.5t-53.5 14.5q-10 4 -17 9t-17 9q-8 0 -33 1t-33 4q-2 0 -6 1t-4 3h-86l-13 -7h-186q-29 -14 -53.5 -21t-52.5 -19q-18 -8 -36 -18.5t-34 -20.5q-10 -4 -20.5 -6.5t-18.5 -8.5 q-37 -33 -70.5 -62.5t-68.5 -64.5q-16 -16 -27.5 -38.5t-21.5 -39.5q-31 -45 -59.5 -94t-39.5 -102q0 -4 -1 -23.5t-1 -23.5q-2 -4 -7 -14.5t-7 -12.5q0 -4 -1 -23.5t-1 -23.5q0 -8 -4 -12v-219zM485 459v16q0 39 14.5 63.5t39 39t56.5 19.5t64 5q29 0 54.5 -3t54.5 -7 q8 -2 31.5 -5t49 -6t48.5 -5.5t33 -4.5l2 -3q2 -3 2 -5q12 -35 26.5 -73.5t38.5 -69.5l-4 -2q-53 -4 -103 -10.5t-104 -6.5h-88q-4 0 -16 1t-29 1q-14 0 -27.5 1.5t-19.5 1.5q-10 0 -27.5 3t-36 7t-33.5 11t-22 17q-4 4 -4 15z" />
<glyph unicode="A" horiz-adv-x="1685" d="M20 -557q0 94 57.5 130t145.5 36h39q8 -6 16.5 -17.5t8.5 -21.5q0 -27 -15.5 -41t-37 -20.5t-45 -8.5t-39.5 -4q-18 -12 -19 -39q0 -35 31 -46t59 -11q23 0 38 2t38 16q59 104 68.5 218t9.5 233q0 80 -5 157.5t-5 157.5q0 168 65.5 328t174 297t250.5 240.5t294 156.5 q14 4 50 12.5t78 16.5t79 15t51 10h61q16 0 49 1h10l56 -5q33 -6 57.5 -19.5t24.5 -42.5q0 -12 -9 -29.5t-26 -17.5h-129v-516q0 -6 1 -19.5t3 -29t3 -28.5t1 -19q0 -25 1 -85.5t1 -130.5q0 -68 -1 -129t-1 -86q0 -12 11.5 -18t23.5 -11t23.5 -14.5t11.5 -27.5 q0 -16 -12.5 -36t-30.5 -20h-147q-16 0 -38 13.5t-22 32.5q0 31 22.5 45t47.5 20q2 8 5 33.5t3 36.5v168v157q0 25 -3 65t-6 78t-6 64l-3 27l-17 8l-39 3t-94 7t-113.5 8.5t-97.5 8.5h-6q-27 0 -53.5 -9.5t-55.5 -9.5h-22q-4 0 -19.5 1t-33 3t-32.5 3t-20 1h-4h-4 q-16 -2 -44.5 -5t-33.5 -3q-25 -4 -46 -26.5t-38.5 -51t-31 -59.5t-21.5 -51q-23 -59 -39 -105.5t-26.5 -91.5t-15.5 -93t-5 -112q0 -76 4 -149.5t4 -149.5q0 -51 -1 -112.5t-8 -123t-22.5 -118.5t-46 -102t-78.5 -72t-120 -27q-35 0 -69 10.5t-60.5 30t-43 48t-16.5 65.5z M803 854q0 -2 13 -5t22 -3q2 0 19 -1t28 -1q57 0 112.5 5t112.5 5q55 0 110.5 -5t110.5 -5q8 0 23.5 1t17.5 1l8 8v242q0 6 -3 18t-5 14q0 2 -6 2h-8q-137 0 -265 -57t-229 -149q-14 -12 -37.5 -36t-23.5 -26v-8zM883 1370q-2 -8 -2 -16q0 -12 4 -24q6 -20 30 -23 q15 -8 34 -8q6 0 12 1q26 3 44.5 15t26.5 32.5t-4 49.5h-12q-4 14 -15.5 18t-21.5 15q-12 -2 -24.5 0t-18.5 -13l-4 -4l20 17q-16 4 -23 -8.5t-24 -14.5q-4 -9 -15 -17q-8 -6 -8 -14q0 -3 1 -6zM1450 1380q-1 -5 -1 -10q0 -15 11 -22q-4 -12 8.5 -16.5t14.5 -14.5 q11 -3 23 -15q6 -7 13 -6q5 0 11 4q6 -1 11 -1q13 -1 25 5q18 8 17 29q14 9 14 27q0 25 -18 37q-2 10 -10 9t-13 7q-10 -4 -15 5t-15 5h-13l13 11q0 -2 4 -11q-16 -2 -31.5 0t-21.5 -16q-14 4 -15.5 -9.5t-11.5 -17.5z" />
<glyph unicode="B" horiz-adv-x="1718" d="M20 -354q0 -94 47.5 -154.5t123 -98.5t170 -55.5t187.5 -22.5q78 -4 149 -4h28q84 1 139 1h137q14 0 39 1t49.5 2t43 3t22.5 2q137 31 233.5 94.5t161 153.5t100.5 203.5t48 244.5v4v7q-2 18 -5 65t-8.5 101.5t-8.5 101.5t-5 65q-20 119 -67.5 229.5t-139.5 192.5v9 q0 10 8.5 25t18.5 32.5t18.5 36t8.5 35.5v198q0 2 -7.5 21.5t-11.5 29.5q-16 41 -40.5 66t-54.5 39t-67 20t-77 13q-14 2 -48 5t-73 8t-73 8t-48 5q-20 0 -63.5 -1t-98.5 -1h-113h-114q-53 0 -97.5 1t-64.5 1q-59 0 -123.5 8.5t-124.5 8.5q-14 0 -32.5 -2t-35 -9.5 t-27.5 -18.5t-11 -30q0 -16 5 -25.5t23 -17.5q72 -6 142.5 -8t140.5 -10q10 0 27.5 -3t35 -5t29.5 -5l12 -4l9 -8l2 -20q2 -19 5 -45.5t5 -53t4 -45.5v-18v-25q0 -10 -1 -52t-3 -90t-3 -90t-1 -52t1 -51t3 -89.5t3 -90.5t1 -52q0 -4 1 -36t1 -48q0 -78 -5 -156.5t-5 -158.5 q0 -18 12 -38t35 -20t43 18.5t22 43.5q0 8 2.5 31.5t3.5 50t2 49t1 31.5q0 29 -1 102.5t-1 155.5t-1 155.5t-1 102.5q57 0 113 -7.5t114 -9.5h430q57 -12 98 -51t70 -94t46 -120.5t27.5 -132.5t13.5 -128t3 -107q0 -246 -108.5 -404.5t-338.5 -225.5q-51 -4 -92 -6 t-80.5 -3.5t-80.5 -1.5h-89q-96 0 -190 12q-64 8 -128 9q-31 0 -62 -2q-59 18 -104.5 33.5t-94.5 44.5l-25 16l-43 86l-1 4q-1 4 -1 8q0 31 19.5 63t48.5 58.5t61.5 46t61.5 27.5q12 2 31.5 4t41 3t41.5 1h37q25 0 56.5 -6t60.5 -20.5t48.5 -35t19.5 -50.5 q0 -25 -13.5 -37.5t-32 -17.5t-42 -7t-42 -6t-31.5 -14.5t-13 -32.5q0 -18 12 -31.5t30.5 -21t38 -10.5t33.5 -3q35 0 68 15.5t57.5 41t39.5 57.5t15 67q0 39 -21.5 78.5t-55 72.5t-75.5 53.5t-81 20.5h-215q-43 0 -98.5 -30t-104.5 -76t-82 -99t-33 -98zM657 1188 q0 23 10.5 27t32.5 6h33t51.5 1t49.5 1h34h43t53.5 -1t47.5 -1h22q6 0 22.5 -1t36 -2t37 -3.5t25.5 -2.5q49 -6 94 -11t80 -20.5t55.5 -48t20.5 -92.5q0 -14 1 -34.5t1 -40.5t-4 -40t-14 -30l-78 -78h-121q-10 0 -47 -1t-81 -3t-82 -3t-48 -1q-4 0 -20.5 1t-35 3t-35 3 t-20.5 1h-43q-4 0 -20.5 3t-22.5 5q-14 4 -37 11l-24 6l-8 18q1 23 1 45q-1 62 -5 119q-6 78 -5 164zM694 1280q0 10 6 10t7 -10q0 -8 -7 -8q-6 0 -6 8z" />
<glyph unicode="C" horiz-adv-x="1300" d="M20 436q0 104 10.5 223t42 233t91 212t158.5 164q23 14 58.5 22t75.5 13.5t77.5 6.5t66.5 1h66q12 -2 44.5 -7.5t67.5 -10.5t68 -10t45 -7q63 -31 125.5 -70t113 -88t82 -111.5t31.5 -142.5q0 -82 -30.5 -143.5t-83 -103.5t-122 -62t-147.5 -20q-55 0 -124.5 10 t-131 36.5t-103.5 72.5t-42 118q0 51 20.5 95t55 78t81 53.5t97.5 19.5q37 0 71.5 -10.5t62 -32t44 -53t16.5 -72.5q0 -43 -29.5 -71.5t-70.5 -28.5q-27 0 -45.5 14t-18.5 43q0 23 9.5 30t25.5 17l8 8q0 10 -10 20.5t-16 14.5h-37q-63 0 -103 -31.5t-40 -99.5 q0 -35 36.5 -57.5t85 -37t96.5 -19.5t70 -5q49 0 96.5 12.5t84 37t59 63.5t22.5 94q0 57 -25.5 108.5t-66.5 91.5t-91 70.5t-101 49.5q-55 20 -126 22t-130 2q-29 0 -66 -1t-73.5 -7t-69.5 -19.5t-51 -40.5q-6 -10 -21.5 -31.5t-32 -45t-31 -44t-18.5 -26.5 q-18 -27 -26 -59.5t-25 -61.5q-29 -98 -39 -202.5t-14 -208.5q0 -19 -1 -39q0 -59 5 -125q6 -88 24.5 -174t51.5 -166t84 -142l13 -13t13 -11l42 -35t65 -52.5t65.5 -52t42.5 -32.5q57 -39 126 -62.5t141.5 -38t145.5 -22.5t138 -16h23q104 0 216 27.5t210 68.5 q16 6 39.5 24.5t49 38t49.5 34.5t42 15q23 0 33 -13t10 -34q0 -49 -38 -75.5t-75 -51.5q-119 -78 -268 -107.5t-291 -29.5q-209 0 -399.5 64.5t-349.5 193.5q-98 82 -158.5 172t-94.5 190.5t-45.5 212t-11.5 236.5z" />
<glyph unicode="D" horiz-adv-x="1857" d="M20 1313q0 -14 12.5 -35t30.5 -21h422q29 -4 64 -7t69.5 -5t67.5 -4t57 -2l9 -16v-27q0 -20 1 -48t1 -56v-45q0 -217 -8 -433q-5 -141 -4 -282q0 -76 1 -152q2 -8 -1 -37.5t-7 -38.5q0 -2 -7 -8t-14 -13t-14.5 -13.5t-7.5 -8.5q-4 -8 -4 -30q0 -23 4 -31l-26 -8 q-12 0 -46 1t-71 1t-70 -1t-45 -1q-121 -10 -197.5 -54t-146.5 -135q-20 -27 -31.5 -54t-11.5 -62q0 -84 36 -140.5t93 -93.5t131 -57.5t149.5 -29.5t148.5 -10t128 -1q96 0 193.5 12t187.5 47q145 59 276.5 161.5t230.5 234t157.5 285t58.5 315.5t-61.5 302t-164 254.5 t-236.5 199.5t-279 134q-74 25 -174.5 37.5t-209 18.5t-214.5 6h-185h-47q-33 0 -69.5 -1t-71.5 -1h-45q-16 -4 -38 -14.5t-22 -32.5zM166 -324q0 51 27.5 87t69.5 60.5t90 37t89 18.5h27q18 0 39.5 1t40.5 1h26h35t44.5 -1t35.5 -1h19q18 0 52 -2t65.5 -9t56 -23.5 t24.5 -47.5q0 -39 -19.5 -60.5t-49 -31.5t-63.5 -12t-60 -2q-41 0 -78 4t-76 4q-51 0 -51 -47q0 -23 15.5 -39t37 -25.5t45 -13.5t41.5 -4q57 0 123 5t123 26.5t95 64.5t38 117q0 49 -13.5 81t-38 53.5t-58 35.5t-72.5 31q-8 0 -8 8l18 26l1 32t2 76t3 90t2 77v362 q0 14 1 57.5t2 90.5t3 91t2 62q0 4 1 19.5t3.5 32t3.5 32t1 19.5q2 29 1 48t-1 36q0 16 1 32.5t7 38.5q4 14 7 16.5t13 2.5q53 0 118 -19.5t112 -42.5q115 -51 219 -123.5t184 -167t127 -208t47 -248.5q0 -158 -52 -297t-142 -255t-211 -207t-258 -154q-4 -2 -16.5 -5.5 t-16.5 -5.5q-10 -2 -31.5 -5t-46 -7t-47.5 -7t-31 -5h-35t-53 -1t-53 -1h-35h-47t-56.5 1t-49.5 1h-23q-43 0 -102.5 10t-113.5 32.5t-92 60.5t-38 97z" />
<glyph unicode="E" horiz-adv-x="1431" d="M18 1288q0 -10 2.5 -22.5t16.5 -16.5q66 -6 129 -9t129 -9q6 -66 12 -125t6 -125v-127q0 -20 -1 -64.5t-2 -98.5t-3 -113.5t-3 -113.5t-2 -97t-1 -64v-43l-6 -715q2 -4 5 -13t5 -13v-4v-4q-20 -8 -51 -7.5t-60.5 -2.5t-50 -15t-20.5 -49q0 -16 13.5 -29.5t29.5 -17.5h233 q166 0 331 9t331 9h225q23 -10 48.5 -13t51.5 -3q27 0 53.5 -1t51.5 -9q14 0 54 -2.5t84 -3.5t83 -2t55 -1h105q55 0 119.5 4.5t124 22.5t105.5 56t63 106v65q0 154 -81 221.5t-235 67.5q-47 0 -114.5 -4t-131 -22.5t-108.5 -57.5t-45 -106q0 -39 22.5 -66t56 -42 t71.5 -22.5t69 -7.5q12 0 30.5 2t36 7.5t29.5 16.5t12 30q0 12 -9 22t-17 17q-6 0 -21.5 3t-34 6t-34 5t-21.5 4q-6 0 -18 2t-23.5 5t-19.5 10.5t-8 17.5v8q10 18 30.5 28.5t43 16.5t45 9t36.5 5l15 1q14 1 33.5 2t39 3.5t31.5 2.5h10q92 0 149.5 -41t57.5 -136 q0 -41 -16.5 -67.5t-44 -44t-61.5 -26.5t-68 -11h-39q-27 0 -56.5 -1t-56.5 -1h-37q-90 0 -186 -2h-16q-87 0 -168 20q-23 0 -77.5 3t-116.5 5.5t-117.5 5.5t-76.5 3q-2 0 -16 1t-20 1q-98 0 -198.5 -9.5t-199.5 -9.5h-30q-16 0 -43 2t-51.5 3t-43.5 3l-18 1l-16 8v663 q14 125 14 262t2 254l7 14q7 13 11 13h818q27 0 52 16.5t25 44.5q0 41 -41 42h-20q-10 0 -53 -1.5t-92.5 -3.5t-92.5 -3t-55 -1h-4h-4q-6 0 -33 1t-57.5 3t-57 3t-32.5 2h-275q-10 0 -39.5 3t-38.5 5q1 27 1 54q0 76 -8 150q-11 102 -11 201q0 8 10 8q64 10 134 10 q18 0 36 -1q54 -2 102 -2q32 0 62 1q158 4 312.5 11.5t310.5 7.5q75 0 145 -7q45 -4 91 -4q27 0 54 1q18 -2 24.5 -16.5t11.5 -30t14.5 -27.5t31.5 -12q16 0 25.5 11t14.5 26.5t6 32t1 26.5q0 23 -8 42t-26 34q-39 14 -86.5 19t-97.5 6h-33l-67 -1q-17 -1 -33 -1 q-32 0 -62 3h-19h-24q-29 0 -100.5 -2t-153.5 -5t-154 -5t-100 -2h-43h-148t-135 -2t-133 -8t-143 -19q-29 6 -45.5 7t-40.5 1q-14 0 -38 -1t-46.5 -5t-39 -16t-16.5 -33z" />
<glyph unicode="F" horiz-adv-x="1544" d="M20 1214q0 -121 69 -197.5t192 -76.5q43 0 86 12.5t77.5 36t56 59t21.5 85.5q0 68 -38 111.5t-109 43.5q-29 0 -58.5 -21.5t-29.5 -49.5q0 -27 9 -39.5t24.5 -15.5t35 -2t41.5 1q0 -66 -27.5 -87t-99.5 -21q-66 0 -101.5 44t-35.5 105q0 53 35 88t85 55.5t105.5 28.5 t98.5 8h12q10 0 28.5 -1t38 -2t35 -3t19.5 -2q14 -2 47 -5t66.5 -7t61.5 -12.5t34 -18.5q10 -23 8 -39t0 -39q0 -10 4 -49t9 -85t9.5 -85t4.5 -49v-59v-62q-16 -10 -39 -13t-43.5 -8t-35 -16.5t-14.5 -38.5q0 -25 13.5 -36t34 -16t43 -4t41.5 3q4 -16 7 -39.5t5 -47t3 -44 t1 -33.5v-333v-162v-152t-2 -152.5t-6 -160.5q-18 -14 -31.5 -33.5t-13.5 -42.5q0 -37 23.5 -49t53.5 -12q18 0 40 4t39.5 13t26.5 26.5t7 42.5q0 4 -7 21.5t-9 21.5q-2 6 -5 22.5t-3 20.5v1106l16 10h43q92 0 181 -9.5t181 -9.5q35 0 57.5 15.5t22.5 52.5q0 25 -17 37 t-41 18t-48 6h-41h-33h-55h-55h-31q-4 0 -20.5 2.5t-36 3.5t-38 3t-26.5 2q-12 0 -35.5 3t-23.5 5l-9 35l-4 42t-8 100t-8 118.5t-6 101.5v12q8 0 34.5 3.5t34.5 1.5q2 0 13.5 -2.5t25 -5.5t26.5 -5t21 -4q31 -8 57.5 -25.5t59.5 -17.5h12q2 0 12.5 4t14.5 4t21.5 -4 t21.5 -4q16 -4 59 -10t91.5 -12t91.5 -12.5t61 -8.5q14 2 33.5 0t39 -6t37 -7t27.5 -5q72 -10 150 -18.5t149 -8.5q72 0 135.5 8.5t145.5 18.5q31 4 73 20.5t79.5 43t63.5 60t26 74.5q0 23 -11.5 46.5t-30 42t-41 30.5t-44.5 12q-39 0 -39 -38q0 -16 7 -27.5t15 -22 t15.5 -21.5t7.5 -26q0 -25 -28 -43t-68.5 -29.5t-91 -18.5t-96.5 -11t-81 -5t-47 -1h-55l-510 61q-4 2 -21.5 5t-21.5 3q-2 0 -11.5 2t-19.5 3.5t-19.5 2.5t-11.5 1q-25 4 -74.5 15t-114.5 23.5t-134.5 26.5t-134 26.5t-114.5 23t-75 16.5q-23 -2 -45 -2q-33 0 -67 4 q-56 6 -113 6q-61 0 -138 -11.5t-146.5 -42t-117 -84t-47.5 -135.5z" />
<glyph unicode="G" horiz-adv-x="1468" d="M20 676q0 -74 24 -147.5t46 -141.5q37 -113 98.5 -189.5t142.5 -124.5t179 -68.5t209 -20.5q143 0 270 20.5t256 75.5h10l3 -20q4 -19 6 -31v-4q0 -23 -2 -72t-6.5 -108.5t-12.5 -123t-20.5 -115.5t-29.5 -86t-40 -34q-16 0 -29.5 9t-29.5 9q-25 0 -37.5 -15t-12.5 -38 q0 -49 39 -68.5t80 -19.5q39 0 56.5 8t27.5 20.5t19.5 28t31.5 31.5q14 37 26.5 85t16.5 89q27 205 36 402.5t9 402.5v184q-2 8 -5 35t-3 35q0 25 11.5 36t23.5 19.5t23.5 18.5t11.5 33q0 29 -23.5 38t-46.5 13h-184q-6 0 -30.5 2t-52.5 4t-52.5 3t-30.5 1 q-66 0 -145.5 -14.5t-149 -49t-116 -92t-46.5 -143.5q0 -57 23.5 -103.5t63.5 -78t91.5 -48t106.5 -16.5q31 0 73 9.5t80 27.5t63.5 47t25.5 70q0 27 -12.5 57.5t-33 56t-47 42t-57.5 16.5q-35 0 -65.5 -11.5t-30.5 -52.5q0 -29 17.5 -37t39 -11t40 -8t18.5 -30 q0 -20 -13.5 -31.5t-33 -15.5t-40 -5t-32.5 -1q-29 0 -57.5 7t-52 21.5t-39 37t-15.5 55.5q0 37 21.5 65.5t54.5 51t69.5 38t65.5 23.5h127h113q55 0 110 -8q12 -14 15.5 -43t3.5 -37q0 -10 2 -30.5t3 -42t2 -41t1 -25.5v-17q0 -12 1 -29.5t1 -35.5v-29v-22q0 -14 -1 -32 t-1 -34v-20q-8 -45 -42 -76t-84 -51.5t-110.5 -31.5t-120 -17.5t-111.5 -7.5t-85 -1q-94 0 -176 15.5t-148.5 54.5t-118 102.5t-81.5 159.5q-14 43 -34 111.5t-26 126.5l-1 4t-1 8q0 141 52.5 254t142.5 189.5t209.5 117.5t253.5 41q115 0 198.5 -25.5t169.5 -99.5 q4 -14 23.5 -32.5t38.5 -18.5q29 0 45 16.5t16 44.5q0 20 -10 38t-25.5 32t-33 27.5t-29.5 23.5q-41 37 -91.5 58.5t-103.5 32t-108.5 13.5t-108.5 3q-160 0 -297 -51.5t-238.5 -145.5t-159 -227t-57.5 -295zM1055 37q0 8 8 8q6 0 6 -8t-6 -8q-8 0 -8 8z" />
<glyph unicode="H" horiz-adv-x="1609" d="M-109 -444q0 33 13.5 73.5t37 77.5t55.5 61.5t69 24.5h141q20 0 35.5 -14.5t24.5 -34.5t13.5 -41.5t4.5 -36.5q0 -27 -12.5 -48t-32 -37.5t-44 -26t-46.5 -9.5q-4 0 -15.5 1t-15.5 1q-18 8 -19 27q0 14 7.5 26.5t16.5 23.5t17.5 22.5t8.5 25.5q-33 0 -58.5 -3t-43 -14 t-27 -33.5t-9.5 -61.5q0 -63 44 -95t106 -32q90 0 122.5 45t45.5 131q0 14 1 50t3 77t3 76.5t1 50.5q2 193 5 381t3 381q0 150 -2 301t-25 299q-4 14 -17 16t-27.5 3t-24.5 7t-10 33q0 20 11 32.5t28.5 19.5t38 9.5t36.5 2.5q31 0 65 -9.5t34 -52.5q0 -12 -5.5 -24.5 t-5.5 -26.5v-18q0 -4 1 -22.5t3.5 -39t3.5 -39t1 -22.5v-35v-58v-59v-33q2 -4 5 -24.5t5 -26.5q47 -6 75.5 -8t69.5 -2q88 0 176 8t176 10h158q6 0 33 1t55.5 3t54 3t31.5 1h17h28h27h16l27.5 5.5t17.5 5.5v375q-10 10 -10 22v25q0 14 7 31.5t28 17.5h106q14 0 16.5 -13.5 t2.5 -21.5q0 -16 -5 -27.5t-24 -23.5v-189q0 -111 5 -221t5 -221q0 -94 -5 -186.5t-5 -190.5v-139q0 -16 7.5 -26.5t15.5 -19.5t15 -20.5t7 -25.5q0 -23 -14 -35t-34.5 -18.5t-43 -8.5t-39.5 -2q-27 0 -45 9.5t-18 35.5q0 18 3 29.5t15 28.5q2 16 5 56t6 85t5.5 84t2.5 55 v185v182q-4 23 -13.5 32t-32.5 13q-23 -2 -69.5 -4t-106 -4t-125 -4t-125 -3.5t-106.5 -2.5t-70 -1q-76 -2 -150 -7q-41 -3 -82 -3q-33 0 -67 2l-16 -8l-2 -37t-5 -95t-6 -133t-6.5 -150.5t-5.5 -146.5t-2 -120q0 -27 -1 -90.5t-1 -134.5q0 -74 1 -138.5t1 -91.5 q-14 -53 -31.5 -101t-47 -86t-72.5 -60.5t-107 -22.5q-53 0 -106 14.5t-94 44t-67 74t-26 103.5z" />
<glyph unicode="I" horiz-adv-x="366" d="M60 -622q-3 -7 -2 -15q0 -9 3 -20q17 -17 92 -17h9q41 2 76 2h65q41 8 41 48q0 34 -43 46q-42 9 -42 49q0 5 1 11q5 42 5 77v12q-1 40 -1 85l-2 412l-2 225v194v168q0 90 1 178.5t2 173.5t3 156q0 33 17.5 37t31.5 4q16 0 29.5 3t17.5 14q4 9 4 19q0 18 -12 38 q-10 20 -28 29q-13 7 -60 7q-19 0 -43 -1h-123q-16 -12 -24 -31.5t-11.5 -39t1 -33t12.5 -11.5q12 -4 23.5 -5t23.5 -5q10 -2 10 -28q0 -16 -4 -42q-6 -66 -6 -67q4 -16 7 -52t3 -75v-50v-45v-73v-31q0 -14 -2 -16q0 -37 1 -114t1 -171v-199q0 -104 -1 -196t-1 -166v-109 q0 -98 -2 -158q-1 -20 -1 -37q0 -36 3 -65q2 -31 -2 -45t-18 -20q-6 -4 -17.5 -9.5t-20.5 -15.5t-15 -26z" />
<glyph unicode="J" horiz-adv-x="1495" d="M20 -39q0 -170 59.5 -293t164 -204.5t246 -120.5t305.5 -39q152 0 276.5 32.5t214.5 104.5t139.5 185.5t49.5 273.5q0 346 -10.5 691t-32.5 691q-8 27 -34 39t-56.5 16t-61.5 4h-43q-111 0 -222.5 -8t-221.5 -8q-47 0 -91.5 8t-91.5 8h-14q-6 0 -23.5 -1t-36 -2t-36 -3 t-23.5 -2q-20 -16 -28.5 -29.5t-8.5 -37.5q0 -18 5.5 -29.5t31.5 -24.5q23 1 46 1q56 0 112 -7q78 -10 158 -10q86 0 173 4t173 4h145q10 -16 19 -43q23 -305 33 -608t10 -608v-152q-12 -86 -39 -143.5t-69 -97t-100.5 -65.5t-136.5 -46q-18 -4 -32.5 -10t-36.5 -6h-283 q-47 0 -98 15t-92 36q-86 43 -147.5 84t-101.5 94t-59.5 122.5t-19.5 168.5q0 180 82 312t229 224q49 33 100.5 55.5t110.5 22.5q66 0 116 -31.5t85 -82t53.5 -111t18.5 -115.5q0 -53 -20.5 -104.5t-55.5 -92t-83 -66.5t-105 -26q-47 0 -78 23.5t-31 73.5q0 37 18.5 68.5 t18.5 68.5q0 18 -13.5 39.5t-35.5 21.5q-29 0 -48.5 -20.5t-34 -49t-20.5 -59t-6 -53.5q0 -111 61.5 -167t168.5 -56q76 0 144 32.5t119.5 87t81 124t29.5 145.5q0 135 -49 237.5t-166 174.5q-39 23 -80 37t-88 14q-92 0 -183 -42t-170 -108.5t-141.5 -147.5t-95.5 -159 q-27 -59 -35 -123.5t-8 -130.5z" />
<glyph unicode="K" horiz-adv-x="1382" d="M20 1257q0 -41 15.5 -76.5t60.5 -35.5q31 0 40 22.5t30 38.5q8 2 34.5 5t35.5 3h14q12 0 23.5 -5t13.5 -21v-51q0 -205 -6.5 -409t-10.5 -409q0 -10 -1 -36.5t-2 -57t-3 -57.5t-2 -37q-8 -6 -27.5 -25.5t-25.5 -27.5q-2 -2 -5 -11.5t-3 -13.5q4 -33 25.5 -43t47.5 -10 q49 0 73 15.5t33 42t9 61.5t2 71q0 6 1 28t3 46.5t3 46t0 27.5v360l10 17h10t23.5 -2t27.5 -3t25 -3q123 -18 215 -93t160.5 -178.5t117.5 -219.5t84 -214q16 -51 21.5 -103.5t21.5 -103.5q33 -113 72 -198.5t97 -145t144 -90.5t215 -31q51 0 110.5 9.5t111 34t85 66.5 t33.5 105q0 41 -18 76t-48 60.5t-67 40t-75 14.5q-25 0 -53.5 -5t-53.5 -17.5t-40 -32t-15 -50.5q0 -35 20.5 -60.5t61.5 -25.5q35 0 47 17.5t26 52.5h21q33 0 53.5 -23.5t20.5 -56.5t-32 -50t-74 -25.5t-82 -9.5t-58 -1h-19q-12 0 -26.5 1t-26.5 1h-18q-70 14 -118 49 t-81 82t-53.5 104.5t-34.5 119t-27.5 123t-29.5 116.5q-27 86 -67 181.5t-93 185.5t-119.5 168.5t-142.5 134.5q-37 29 -77 48t-77 48l8 8q61 35 119 63.5t114 58.5t113.5 62.5t118.5 73.5q43 29 85 64t87 57q23 10 47.5 14.5t47.5 18.5q12 8 19 27.5t7 33.5q0 12 -10 27.5 t-25 15.5h-163q-18 0 -27.5 -10t-16 -24.5t-11.5 -29t-15 -22.5q-8 -6 -21.5 -17t-27 -22.5t-24.5 -19.5t-13 -10q-135 -96 -279.5 -175t-304.5 -126h-10q-12 0 -16 8v57q0 61 5 121.5t5 122.5v22t-1 35t-1 33v22q-6 20 -25 35h-112q-27 0 -70 3q-18 1 -37 1q-24 0 -48 -2 q-42 -4 -73 -21.5t-31 -58.5z" />
<glyph unicode="L" horiz-adv-x="761" d="M20 1255q0 -16 2.5 -35.5t9.5 -36t20.5 -27.5t33.5 -11q12 0 22.5 7t18.5 15.5t17.5 15.5t21.5 7q23 0 38 -6t23 -29v-82q0 -53 -1 -92t-7 -92v-733q0 -4 -3 -20.5t-7 -22.5q0 -8 -8 -9l-95 -16q-4 -2 -17 -14.5t-17 -20.5v-12q0 -18 9 -31.5t25 -25.5h35t52.5 -2 t51 -3.5t34.5 -3.5q16 -2 48.5 -6t65.5 -10t59.5 -11t32.5 -7q51 -16 102.5 -45t100.5 -63t95 -68.5t89 -63.5q29 -20 70 -45t86 -47.5t88 -42t76 -29.5q12 -4 31.5 -10t39 -11t33.5 -10l15 -4h354q4 0 32.5 6.5t45.5 10.5q45 12 86 30.5t71.5 46t48 64.5t17.5 88 q0 59 -22.5 106.5t-62.5 80t-92 50t-112 17.5q-37 0 -77.5 -7t-76.5 -25t-59.5 -48.5t-23.5 -75.5q0 -47 32.5 -79.5t79.5 -32.5q27 0 52.5 15t25.5 46q0 10 -7 16.5t-15.5 12.5t-15.5 13t-7 18q0 12 11.5 17t25.5 7t29 2h22q74 0 124 -32.5t50 -110.5q0 -33 -24.5 -56.5 t-58 -38t-70.5 -21.5t-64 -7h-16t-33.5 -1t-40.5 -1h-33h-106q-41 0 -98 10q-51 8 -97.5 31.5t-91.5 52.5t-90 57.5t-92 47.5q-41 31 -85 64.5t-90 66t-95.5 61.5t-98.5 49q-47 18 -95 25.5t-95 25.5q-2 4 -5 13.5t-3 13.5q0 6 -2.5 20.5t-3.5 30t-2 27.5t-1 16v672 q8 57 9 104v107q0 26 2 66v19q-1 30 -5 59q-6 38 -25.5 64.5t-62.5 26.5q-20 0 -47.5 -4t-57.5 -8t-57.5 -8t-48.5 -4q-20 -6 -31.5 -24.5t-11.5 -39.5z" />
<glyph unicode="M" horiz-adv-x="2207" d="M20 989q0 -47 17.5 -87t47.5 -68.5t70 -45t85 -16.5q43 0 89 9.5t85 31t64.5 56t25.5 85.5q0 33 -15.5 60.5t-40 47t-56.5 30t-62 10.5q-12 0 -31.5 -3t-38 -9.5t-32 -18.5t-13.5 -31q0 -37 26.5 -44t58.5 -8t58.5 -5t26.5 -33q0 -18 -14.5 -29.5t-33 -17.5t-37.5 -9 t-30 -3q-59 0 -95 31.5t-36 91.5q0 57 27 97t68.5 66.5t93 39t100.5 12.5q109 0 153 -45t66 -142v-118q0 -139 -6 -277.5t-10 -279.5q0 -8 -2 -32t-3 -51.5t-3 -52t-2 -34.5q-2 -35 -10.5 -53.5t-17.5 -32t-16.5 -24.5t-7.5 -30q0 -25 23.5 -40t46.5 -15q27 0 55.5 15.5 t36.5 43.5v195q0 29 3 98.5t5 148.5t5.5 148.5t3.5 96.5q4 74 15 137t71 116q14 12 39.5 34t51 43.5t45 38t23.5 20.5q47 35 96.5 51t108.5 16q29 0 47.5 -19.5t30.5 -47t19.5 -56t11.5 -47.5q-2 -53 -2 -106q0 -140 12 -277q16 -188 16 -381l1 -82q0 -42 -19 -67 q-16 -23 -33.5 -34t-17.5 -38q0 -39 31.5 -51t62.5 -12q39 0 55.5 19.5t21.5 48t4 60t3 58.5q-2 25 -5 90.5t-7.5 138t-8.5 137t-4 91.5v18q0 18 -1 42t-1 46v37v29q0 20 1 43.5t1 42.5v28q2 4 7.5 13.5t9.5 13.5q41 39 97 89t119.5 95t130 75t130.5 30q80 0 116.5 -33 t40.5 -113q0 -10 2.5 -47t3.5 -80t2 -80.5t1 -46.5q0 -4 1 -17t3 -29.5t3 -30t1 -17.5q0 -2 1 -22.5t1 -30.5q0 -152 -13.5 -304.5t-29.5 -301.5q-4 -37 -10 -93.5t-16.5 -120t-24 -130t-31.5 -126t-45 -105.5t-59 -68q-27 -16 -60 -25.5t-63 -9.5q-33 0 -57.5 14.5t-42 38 t-25.5 51t-8 56.5q0 25 1 53.5t17 50.5q10 16 34.5 42t53.5 26q14 0 26.5 -12.5t12.5 -26.5q0 -16 -8 -29.5t-17.5 -27t-17.5 -26.5t-8 -28q0 -20 17.5 -28.5t33.5 -8.5q27 0 46 16.5t31.5 40t18.5 50t6 49.5q0 55 -36.5 94t-92.5 39q-49 0 -90 -22.5t-71.5 -58.5t-48 -81 t-17.5 -92q0 -55 17.5 -106.5t51 -90t81 -61t106.5 -22.5q84 0 146.5 39.5t105.5 103t68.5 140.5t33.5 149l84 770v131v182q0 4 -1 18.5t-3 32t-3 31.5t-1 18q-4 90 -5 168t-24.5 134.5t-81 89t-174.5 32.5q-57 0 -118.5 -25.5t-120 -62.5t-111.5 -77.5t-94 -71.5 q-12 -10 -17.5 -13.5t-15.5 -3.5h-8q-12 45 -29.5 85t-45 71t-65.5 48.5t-87 17.5q-59 0 -113.5 -17.5t-104 -46.5t-95.5 -65.5t-87 -75.5h-24q-29 68 -57.5 113t-67.5 72.5t-91.5 39.5t-127.5 12q-76 0 -146.5 -24.5t-126 -70.5t-88.5 -110.5t-33 -144.5z" />
<glyph unicode="N" horiz-adv-x="1501" d="M-270 -374q-4 -18 -3 -38q0 -40 15 -86q-2 -20 25.5 -45.5t65.5 -49t76 -39t54 -15.5q92 0 169 15.5t135.5 52t94 100t46.5 160.5v67q0 49 1 103.5t1 103.5v63q0 211 -5 421t-6 421v123l9 8q4 -4 16 -12t26.5 -16.5t26.5 -14.5t19 -8q20 -12 77.5 -41t123 -60.5t124 -59 t80.5 -38.5q33 -27 70 -51t72.5 -51t68.5 -58.5t59 -70.5q53 -76 78 -166t25 -182q0 -27 -9.5 -44.5t-9.5 -41.5q0 -41 33 -51.5t70 -10.5h45h35q25 14 24 43q0 25 -11 36l-23.5 23.5t-23.5 29t-11 51.5q0 55 8 123.5t10 125.5q0 6 1 30t3 51.5t3 52t1 30.5q3 98 3 196 q0 49 -1 98v28q0 133 17 266q20 16 31.5 30.5t11.5 41.5q0 29 -21.5 38t-44.5 9q-25 0 -31 2q-6 0 -23.5 2t-36.5 5t-36.5 6t-23.5 5q-23 -2 -37.5 -11t-14.5 -32q0 -39 32 -56t63 -30q4 -6 7 -22.5t3 -22.5q0 -14 -1 -38.5t-4 -51t-6 -53.5t-8 -45v-389q0 -2 -3 -5t-5 -6 h-4q-14 0 -29.5 13.5t-30 31t-27.5 35t-21 25.5q-47 41 -97.5 77t-101.5 70q-59 39 -121.5 69t-126 58.5t-126 59t-120.5 71.5q-25 18 -48 64.5t-41.5 93.5t-33 84t-22.5 37h-61q-12 0 -19.5 -19.5t-7.5 -29.5q0 -8 3 -29.5t7 -46.5t8 -46.5t9 -29.5q18 -424 18 -852v-35 q0 -27 -2 -28q0 -23 -1 -67t-1 -101q0 -55 -2 -115.5t-2 -116.5q0 -57 -1 -101t-1 -66q-6 -59 -32 -99.5t-65.5 -64t-90 -33.5t-105.5 -10h-62q-47 18 -65.5 50t-18.5 79v45q4 4 12.5 10t14.5 6h170q14 0 20.5 19.5t6.5 29.5q0 20 -18.5 33.5t-43 20t-50.5 8.5t-38 2 q-10 0 -31.5 -3t-45 -9.5t-45 -16.5t-29.5 -22q-29 -46 -41 -100z" />
<glyph unicode="O" horiz-adv-x="1316" d="M16 330q0 -139 39 -295t119 -287t203 -217t289 -86q129 0 223 51t160.5 136t107.5 193.5t64.5 223.5t32 226.5t8.5 201.5v72q0 51 -1 108.5t-2.5 108.5t-1.5 72q-27 100 -91 169.5t-149 113.5t-181.5 63.5t-184.5 19.5q-176 0 -298 -74.5t-196.5 -196.5t-107.5 -279.5 t-33 -323.5zM117 295q0 39 6 113.5t21.5 164t41 183.5t63.5 169.5t90 125t120 49.5q4 0 13 -1t11 -3q6 -49 18.5 -104.5t39 -101.5t68.5 -76t108 -30q53 0 93 22.5t40 80.5q0 110 -111 110h-2q-45 0 -73 -18q-25 -16 -25 -73v-17q-2 10 -3 39.5t-1 38.5q0 61 20.5 97 t87.5 36q49 0 120 -17.5t136.5 -50.5t110.5 -82t45 -112q0 -20 1 -71.5t2 -109t2 -108.5t1 -72q0 -102 -6 -206.5t-25.5 -203t-55.5 -184.5t-96 -150.5t-148.5 -101.5t-211.5 -37q-131 0 -225 68t-155.5 171.5t-91 227t-29.5 234.5zM432 1354h51v51h-51v-51zM793 1405 q6 -23 26 -23q21 0 27 23q2 12 -7.5 17t-19.5 5t-19 -5t-7 -17z" />
<glyph unicode="P" horiz-adv-x="2052" d="M20 1364q0 -23 16.5 -39t39.5 -20q10 0 35.5 1t54.5 1q31 0 57.5 -1t36.5 -1q37 -2 81 -3.5t89 -6.5t88 -13t80 -22q10 -4 15 -41t8.5 -92.5t4.5 -121t1 -128.5q0 -61 2 -111.5t6 -75.5q0 -31 2 -92t4 -139t4 -164t3 -164t3 -139.5t2 -89.5v-84v-99q0 -57 -8 -94 q0 -2 -5 -11t-9 -20.5t-9.5 -20.5t-5.5 -11v-31q0 -18 5.5 -42t16.5 -44t28.5 -34.5t42.5 -14.5q57 0 88.5 34.5t31.5 88.5q0 8 -1 24.5t-1 18.5t-1 13t-3 23.5t-3 22.5t-1 14q-2 25 -6 86.5t-8 130t-8 129t-6 85.5q-14 258 -25.5 514t-11.5 514v30v47q0 25 1 47.5t1 30.5 q4 10 22.5 14.5t22.5 4.5h596q2 0 19.5 -3t39 -7.5t44 -9.5t36.5 -7q29 -6 88 -26.5t118.5 -49t104.5 -66.5t45 -79v-219q0 -2 -3 -16.5t-5 -20.5q-16 -53 -37.5 -91t-51.5 -63.5t-72 -42t-97 -24.5q-34 1 -72 1t-80 -1h-19q-73 0 -138 13q-74 15 -125 62.5t-51 149.5 q0 41 4 76t18.5 59.5t41 38.5t73.5 14h18q12 0 37 -3t52.5 -6t52 -6t32.5 -3q18 -4 42 -11t24 -30q0 -49 -34 -65.5t-73.5 -24.5t-73.5 -21.5t-34 -58.5q0 -18 4 -32.5t27 -22.5q6 0 29.5 -1t29.5 -1q66 0 115 21.5t92 72.5q25 29 45 59.5t20 71.5q0 68 -38.5 106.5t-95 59 t-120 27t-114.5 6.5q-47 0 -81 -7.5t-75 -19.5q-55 -16 -86 -41t-47 -58.5t-20.5 -77.5t-4.5 -99q0 -135 69 -235.5t200 -141.5q23 -6 53.5 -8.5t60.5 -2.5q33 0 62 1.5t47 1.5q154 0 257 26.5t165.5 89t89.5 166t27 256.5q0 135 -67 218t-191 134q-86 35 -191.5 68 t-204.5 33h-743q-111 23 -222.5 30t-222.5 7q-23 0 -52 1h-10q-23 1 -46 -3q-27 -4 -44.5 -19.5t-17.5 -48.5z" />
<glyph unicode="Q" horiz-adv-x="1574" d="M20 20q0 199 52.5 384.5t134.5 365.5q45 100 93 198.5t113.5 176.5t153.5 127t215 49q106 0 192.5 -41t154 -108.5t118.5 -155.5t89 -183.5t63.5 -190.5t42.5 -177q25 -123 29 -239q1 -36 1 -73q0 -82 -6 -167q51 -29 105.5 -47.5t107.5 -47.5q4 -2 18.5 -10t32 -18 t32 -19.5t18.5 -11.5q6 -2 25.5 -11t43 -21.5t43 -22.5t23.5 -13q10 -6 48 -29.5t83 -50t83 -50t48 -29.5q92 -55 203.5 -69.5t216.5 -14.5q37 0 93 5t109.5 21.5t92.5 48t39 85.5q0 59 -46 92.5t-102 33.5q-12 0 -31.5 -2t-39 -6t-37 -12t-23.5 -23l-1 -1t-1 -3 q0 -12 16.5 -14t36 -5t36 -11.5t16.5 -32.5q0 -18 -13.5 -29.5t-32 -18.5t-39 -9t-32.5 -2q-25 0 -49.5 8t-44 23.5t-32.5 37t-13 49.5q0 33 19 59.5t48 47t61.5 35t57.5 20.5h72q61 0 114.5 -14.5t93 -45t62 -77.5t22.5 -115q0 -92 -56 -144t-136 -77t-169 -31t-155 -6 q-125 0 -226 30t-195.5 77t-188.5 106.5t-203 118.5q-29 14 -59.5 34.5t-64 39t-68.5 32t-70 13.5h-24q-33 -49 -55.5 -118t-47.5 -120q-45 -92 -120.5 -147.5t-174.5 -79.5q-43 -10 -82 -18.5t-80 -24.5h-71q-170 0 -313.5 37t-248 117.5t-163 207.5t-58.5 307zM121 4 q0 -104 26.5 -184t75.5 -141.5t120 -108.5t159 -84q14 -2 51 -7t77 -9.5t75.5 -9.5t50.5 -7q2 0 6 -1t6 -1q43 0 77 8.5t73 18.5q78 20 130 37.5t91 44t68.5 70.5t64.5 118q14 29 29.5 62.5t15.5 68.5q0 4 -1 8l-1 4l-68 35l-19 2q-20 2 -46.5 5.5t-53 6.5t-43.5 3h-55 q-53 0 -102 -8.5t-101 -8.5q-23 0 -35 7.5t-12 31.5q0 27 31 44.5t71 26.5t78.5 12t57.5 3q78 0 156.5 -13t156.5 -13h19l8 18q0 2 2 21.5t4 46t2 41.5v49q0 88 -17.5 202.5t-50 231.5t-80 222.5t-106.5 174.5q-53 61 -109.5 98t-128.5 72q-23 10 -50 17.5t-52 7.5 q-2 0 -22.5 -5t-44 -11.5t-44 -11.5t-22.5 -5q-76 -39 -130 -99.5t-95 -131t-74 -147.5t-66 -148q-2 -4 -7 -16.5t-10 -27t-10 -25.5t-7 -15q-6 -16 -19.5 -59.5t-29 -92.5t-27.5 -92t-17 -61q-16 -66 -21 -135.5t-5 -139.5z" />
<glyph unicode="R" horiz-adv-x="2160" d="M20 1290q0 -14 9.5 -28.5t25.5 -16.5h68q86 0 170 4t170 4q53 0 90 -1t94 -7q10 -2 27.5 -4t33 -5t28.5 -5l12 -2l8 -10l2 -19q2 -20 3 -47t3 -55.5t2 -46.5v-43v-72v-74v-41t1 -43t3 -74.5t3 -74.5t1 -43v-238v-237q-14 -16 -16 -28.5t-2 -31.5q0 -41 34.5 -50t67.5 -9 q29 0 61.5 11t32.5 48q0 12 -6 22.5t-15 18.5t-17.5 16.5t-12.5 20.5q-14 39 -16 80t-2 82v22q0 23 2 78t3 117.5t2 117t1 76.5q35 16 77 22.5t86 7.5h29q29 0 58 -1q43 -2 80 -2q51 0 113 2q15 1 30 1l92 -5q62 -6 117 -24.5t98 -57.5l24.5 -24.5t38 -39t38 -39t26.5 -24.5 q35 -39 59.5 -89t40.5 -97q6 -18 17.5 -53t22 -69t19.5 -60.5t9 -30.5q6 -20 18.5 -71.5t25.5 -109t24.5 -110t15.5 -72.5q47 -131 140.5 -205.5t211 -111.5t246.5 -46t250 -9q104 0 204.5 26.5t200.5 57.5q88 35 141.5 113.5t53.5 170.5q0 61 -19.5 102.5t-54.5 64 t-83 31.5t-105 9q-35 0 -72 -12.5t-68.5 -34t-52 -53t-20.5 -70.5q0 -41 33.5 -70.5t72.5 -29.5q20 0 38 14t18 37q0 18 -15.5 32.5t-27.5 24.5q2 14 15 24.5t29.5 16.5t34 9t27.5 3q27 0 53.5 -3t48 -12t35 -26.5t13.5 -48.5q0 -84 -57.5 -136t-138.5 -81.5t-168 -40 t-148 -10.5q-98 0 -216 6t-225.5 39t-189.5 99.5t-111 187.5q-2 8 -9 43t-16.5 75t-16.5 74.5t-9 42.5q-4 18 -17.5 64.5t-27.5 97.5t-27.5 96t-19.5 64q-10 23 -23.5 53.5t-30 61t-34 59.5t-31.5 47q-45 55 -102.5 97t-100.5 98l-1 1t-1 3l2 4q43 43 73 103.5t30 123.5 q0 96 -43 155.5t-110.5 92.5t-148.5 44t-157 13h-63h-111h-109h-63q-119 4 -244 15.5t-248 11.5q-82 0 -164.5 -3t-164.5 -5q-16 0 -39 -1t-44.5 -7.5t-37 -19.5t-15.5 -38zM874 1102q0 2 1.5 13t2.5 24.5t3 27t2 19.5q2 10 5 26l3 17h424q27 0 60.5 -5t67.5 -12.5 t64.5 -14.5t53.5 -11q51 -12 72.5 -56.5t21.5 -91.5q0 -70 -35 -113.5t-86 -84.5q-39 0 -76 1q-122 1 -238 -5q-150 -6 -311 -7h-14q-10 1 -12 11q0 14 -2 51t-3 79t-2.5 78.5t-1.5 53.5z" />
<glyph unicode="S" horiz-adv-x="1554" d="M18 -125q0 -76 37 -134t78 -120q49 -74 120 -123t151.5 -79.5t167.5 -44t169 -13.5q154 0 297.5 44t253 128t176 209t66.5 289q0 268 -136 434t-401 211q-6 0 -27.5 3t-46 5t-46 5t-27.5 3q-55 8 -112.5 30.5t-103.5 59.5t-75 88.5t-29 112.5q0 49 22.5 98t59.5 90t85 67 t98 26q35 0 69.5 -9.5t62 -28t45 -47t17.5 -67.5q0 -45 -19.5 -82t-70.5 -37q-16 0 -38.5 5.5t-26.5 31.5q0 4 4 25.5t4 25.5v15q0 18 -10.5 24t-26.5 6q-41 0 -58.5 -30.5t-17.5 -69.5q0 -33 13.5 -59.5t36 -45t51 -28.5t59.5 -10q43 0 82 16t68.5 45t46 67t16.5 83 q0 57 -22.5 109t-61.5 90t-91.5 60.5t-109.5 22.5q-80 0 -150.5 -33.5t-125 -90t-85 -129t-30.5 -150.5q0 -47 11.5 -97.5t41.5 -87.5q68 -84 143.5 -125.5t158.5 -62t172 -33t184 -39.5q157 -84 229 -221q65 -123 65 -280q0 -17 -1 -35q-6 -129 -70 -227.5t-161 -166 t-215 -101.5t-232 -34q-113 0 -202 19.5t-163 61.5t-136.5 109.5t-117.5 166.5q-10 14 -10 28v31q0 98 42 174t109.5 128t154.5 79t177 27q41 0 93.5 -11.5t97.5 -36t75.5 -62.5t30.5 -89q0 -33 -14.5 -59.5t-37 -46t-51 -30.5t-57.5 -11q-31 0 -60.5 9t-57.5 9 q-18 0 -30.5 -14.5t-12.5 -30.5q0 -27 19.5 -42t46 -23.5t56 -10.5t48.5 -2q51 0 98 20.5t82 55.5t55.5 81t20.5 99q0 76 -39 132.5t-99.5 93t-132 55t-135.5 18.5q-111 0 -216 -36t-186 -103.5t-131.5 -162.5t-50.5 -214z" />
<glyph unicode="T" horiz-adv-x="1558" d="M20 995q0 59 19.5 99.5t50.5 87.5q35 51 86 83.5t112.5 51t127 25t129.5 6.5h162h32h52q29 0 53 -1t35 -1q25 -10 81 -13.5t103 -3.5h51h168h170q35 6 52.5 7t45.5 1q166 0 331 -17t331 -17q49 0 96 5t98 5h121q20 -6 31.5 -8t30.5 -2q104 0 208.5 13t208.5 13 q20 0 43 -2t42.5 -9t31.5 -21.5t12 -41.5q0 -18 -7 -40.5t-19 -41t-30.5 -32t-39.5 -13.5q-35 0 -43 26t-16 54h-23q-154 0 -307 -5t-307 -5h-250q-8 0 -38 3t-65.5 6t-65.5 6.5t-38 3.5h-112q-6 0 -17.5 1t-24 2t-22.5 3t-14 2h-383l-8 -8q0 -4 -1 -27t-1 -33q0 -72 4 -129 t14 -133v-780q0 -6 2 -32t3 -54.5t3 -54t2 -31.5v-23q0 -117 -13 -228.5t-13 -228.5q0 -12 8 -20t18 -15.5t18.5 -16.5t8.5 -23q0 -23 -16.5 -37.5t-38 -23.5t-46 -13t-38.5 -4t-33 4t-34 12t-26.5 21.5t-11.5 31.5q0 20 8 29.5t18.5 16t23 12.5t20.5 20q28 255 28 507v26 q-2 266 -2 534v103v127q0 61 -1 108t-1 51l-24 285q-2 10 -52.5 18.5t-110.5 13.5t-111.5 8t-55.5 5h-33q-23 0 -48 1t-50 1h-31h-43q-25 0 -50.5 -1t-45.5 -1h-21q-12 0 -42.5 -3t-65.5 -8t-65.5 -9t-43.5 -6q-33 -14 -65.5 -35t-58 -48.5t-42 -60.5t-16.5 -72 q0 -47 5 -79.5t20.5 -57t43 -44t70.5 -38.5q29 -12 42.5 -15t41.5 -3q29 0 50.5 22.5t21.5 53.5q0 25 -13.5 35t-30.5 18t-30.5 18.5t-13.5 32.5q0 27 27 47q4 0 15 1t15 1q57 0 101.5 -45t44.5 -102q0 -61 -33 -113.5t-90 -79.5q-6 -2 -28.5 -3t-29.5 -1q-10 0 -31.5 1 t-23.5 3q-137 29 -212 115t-75 227z" />
<glyph unicode="U" horiz-adv-x="1458" d="M16 891q0 -43 18.5 -89t51.5 -84t75 -62.5t91 -24.5q37 0 79 18.5t76.5 47t58 66.5t23.5 75q0 55 -22.5 89t-85.5 66q-10 0 -30.5 -20.5t-20.5 -30.5q0 -4 8 -19.5t17.5 -33t17.5 -32.5t8 -19q0 -8 -20.5 -27.5t-30.5 -24.5q-8 -2 -31 0t-47.5 6.5t-47 8.5t-30.5 4v239 q0 23 29.5 34.5t66.5 16.5t70 5h43q109 0 157 -57.5t48 -178.5v-26q-55 -82 -127 -201t-136.5 -253t-108.5 -270t-44 -253t54.5 -205t140.5 -147.5t192.5 -89t208.5 -29.5q61 0 115.5 17.5t106.5 39t104.5 38.5t111.5 17q37 0 57.5 -11t41 -24.5t45 -24.5t69.5 -11 q0 51 -15 89t-44 83v1659q-10 0 -27.5 -4.5t-34 -12.5t-29 -20.5t-12.5 -26.5v-1235q0 -106 -44 -192t-116.5 -147.5t-164.5 -94.5t-191 -33q-84 0 -166.5 24.5t-149.5 74t-108 122t-41 168.5q0 4 1.5 14.5t1.5 12.5q4 18 11 51t15 65.5t15.5 58.5t9.5 30q12 27 39.5 84 t62.5 128.5t74 149.5t74.5 149.5t65.5 127t44 82.5q0 6 1 26.5t1 24.5q0 156 -75.5 235.5t-223.5 79.5q-78 0 -146.5 -12t-119.5 -47t-81 -95.5t-30 -158.5zM690 1354h51v51h-51v-51zM1051 1354h51v51h-51v-51z" />
<glyph unicode="V" horiz-adv-x="1748" d="M20 989v72q0 82 27 148.5t76 113.5t117.5 73.5t152.5 26.5q90 0 154.5 -37.5t106.5 -100t66.5 -142.5t37 -164t16.5 -164t6 -143q0 -25 1 -62t3 -71.5t3 -60t1 -27.5q12 -113 44 -196t82.5 -148.5t118 -123t153.5 -120.5q2 -4 14 -14.5t27.5 -22.5t29 -22.5t17.5 -12.5 q4 -4 16.5 -13t26.5 -19.5t26.5 -18.5t18.5 -10q18 12 19 36.5t-1 43.5q2 18 8.5 59t14.5 92t18.5 107.5t19.5 107.5t16 92t11 60q2 16 12.5 59t21.5 91t21.5 91t14.5 60q74 162 169 305t218 249.5t275.5 168t343.5 61.5q51 0 113.5 -9t115.5 -33.5t89 -67.5t36 -111 q0 -23 -5 -47.5t-16.5 -46t-31 -34.5t-45.5 -13q-12 0 -21.5 1t-13.5 17v31q0 20 5 37.5t5 38.5q0 45 -26.5 70.5t-65.5 36.5t-82 13t-76 2q-160 0 -288 -46t-248 -156q-111 -100 -191 -223t-134 -260.5t-87 -285t-51 -297.5q-17 -150 -21 -298q-3 -99 -3 -192q0 -47 1 -93 q-12 -63 -73 -63q-29 0 -44.5 18t-22.5 44t-12 53.5t-16 45.5q-16 29 -31.5 47.5t-32 34t-34 30.5t-35.5 38q-12 8 -45 32.5t-69.5 53.5t-69.5 54.5t-45 35.5q-61 51 -113.5 117.5t-91.5 142.5t-63.5 158t-30.5 162q0 23 -2 81t-5 123.5t-6.5 123t-5.5 79.5q0 8 -3 35 t-8 55.5t-9 55t-6 38.5q-8 39 -25.5 85.5t-45.5 86t-65.5 67.5t-86.5 28q-129 0 -200 -74t-71 -197q0 -39 21.5 -61.5t58.5 -22.5q14 0 33.5 4.5t38 11.5t32 19t13.5 31q0 2 -1 7t-1 7q-12 10 -33 28.5t-21 41.5q0 14 8.5 25.5t18.5 19.5h35q14 0 32.5 -4t35 -12.5 t27.5 -22.5t11 -33v-114q0 -31 -29.5 -56.5t-70.5 -42t-82 -26t-61 -9.5q-74 0 -116 48.5t-65 111.5z" />
<glyph unicode="W" horiz-adv-x="1816" d="M20 1067q0 31 14.5 60.5t37 52t52.5 37t60 14.5q59 0 95 -23.5t75 -68.5q23 -27 31 -66t12 -69q16 -172 26.5 -343.5t14.5 -343.5q1 -63 1 -126q0 -125 -3 -249q-1 -27 -1 -54q0 -158 20 -320q37 -98 87 -145.5t154 -47.5q106 0 183 59.5t86 174.5l16 319q10 10 10 23v22 v27q-16 154 -29.5 299t-13.5 299v55q12 33 51 33q16 0 26.5 -10t16 -25.5t6.5 -34t1 -32.5v-31q0 -4 1 -32.5t3 -65.5t3 -76t1 -62v-16q2 -16 8 -59t12 -91.5t12.5 -91.5t10.5 -59q8 -57 18 -145t33 -175.5t62.5 -160t111.5 -101.5q6 -2 33 -2h33q74 0 108.5 13.5t49 40 t18.5 67.5t16 98q0 20 1 71.5t3 108t3 107.5t1 72v37v65v66v39q0 18 1 44.5t3 54.5t7.5 55.5t15.5 45.5l84 394q37 184 150.5 291.5t283.5 177.5q35 14 71 23t74 9q59 0 125 -12t121.5 -42t91 -78t35.5 -120q0 -49 -22.5 -85.5t-58.5 -60.5t-81 -35t-90 -11q-23 0 -51.5 6 t-54 19.5t-43 34t-17.5 51.5q0 18 12.5 30.5t28.5 12.5q18 0 31.5 -8.5t27 -18.5t29 -18.5t39.5 -8.5q18 0 43 4.5t47.5 14.5t39 26.5t20.5 40.5q2 25 -11.5 47.5t-35 41t-45 33t-41.5 20.5q-31 10 -60 10h-59q-82 0 -162 -28.5t-147.5 -79t-115.5 -120t-67 -151.5 l-100 -459q-2 -6 -5 -33.5t-6 -63.5t-5 -69.5t-2 -50.5v-491q-4 -84 -18.5 -147.5t-48.5 -106.5t-90 -65.5t-144 -24.5h-13q-50 0 -92 14q-46 16 -83.5 46t-69 71t-60.5 88q0 -2 -3 -5t-5 -6q-37 -61 -66.5 -102t-64.5 -68.5t-85 -46t-126 -32.5h-12q-133 0 -209 50 t-114 132t-48 185.5t-10 209.5v633q0 8 -1 32.5t-3 54.5t-3 57.5t-1 39.5q0 4 -4.5 24.5t-4.5 24.5q0 8 -3 38t-6 64t-5 63.5t-2 35.5q-4 23 -7 58.5t-13.5 69.5t-31 58.5t-57.5 24.5q-20 0 -35.5 -11t-15.5 -36v-4q6 -4 22.5 -20.5t20.5 -22.5v-19q0 -29 -18.5 -39 t-44.5 -10q-53 0 -75 32t-22 83z" />
<glyph unicode="X" horiz-adv-x="1961" d="M20 868q0 86 43 154t111 114t148.5 70.5t158.5 24.5q82 0 166 -32t161 -84t139.5 -118.5t101.5 -134.5q72 -123 122 -243.5t105 -249.5q0 -4 3 -10.5t5 -6.5h2h6l8 8q0 10 -1 38t-1 59t1 58.5t1 37.5q0 14 3.5 53t7.5 84t8 87t6 61q6 49 21.5 101t37.5 99q29 59 61 111.5 t97 81.5q41 16 87 37.5t93 21.5q63 0 106.5 -35.5t70 -89t37 -114t10.5 -111.5q0 -84 -27 -159.5t-73 -141.5t-105.5 -123t-122.5 -104q-6 -4 -30.5 -21.5t-53.5 -38t-53.5 -38t-30.5 -21.5q-2 -2 -8 -7t-8 -10q-4 -59 -6.5 -96t-2.5 -86q0 -78 5.5 -154.5t11.5 -154.5 q6 -76 15 -151.5t38 -137t84 -99.5t154 -38q98 0 180 54.5t115 146.5q2 4 8 30.5t8 36.5q4 12 11 35t26 23q27 0 33 -22.5t6 -39.5v-31q-25 -16 -25 -41q0 -2 3 -8t5 -8v-8h-8q0 -68 -38 -118t-93 -84t-119.5 -51t-120.5 -17q-143 0 -237 72.5t-129 213.5q0 4 -3 16.5t-6 26 t-5.5 25.5t-2.5 16q0 2 -3 8.5t-5 8.5q-2 -2 -4 -8.5t-4 -8.5q-2 -6 -10 -26.5t-18.5 -44t-19.5 -45t-11 -27.5q-18 -43 -52 -79t-75 -63.5t-89.5 -43t-93.5 -15.5q-72 0 -134 23.5t-108 65.5t-74 101.5t-28 131.5q0 88 38 181t98 159q47 51 92 92t100 82q6 4 25.5 16 t42 27.5t44 29t31.5 19.5q2 2 13.5 8t24 12.5t23.5 12.5t13 8q18 8 19 24v9q-37 147 -98.5 274t-137.5 262q-2 4 -11 16.5t-14 16.5q-47 49 -94 94t-99 80t-111.5 56.5t-129.5 21.5q-43 0 -99 -13.5t-106.5 -39t-86 -65.5t-35.5 -95q0 -47 30.5 -72.5t77.5 -25.5 q14 0 25.5 7l23 14t23.5 14.5t28 7.5q41 0 59.5 -23.5t18.5 -60.5q0 -4 -1 -16.5t-1 -16.5q-31 -39 -66.5 -49t-82.5 -10t-94.5 12t-86 38.5t-63.5 64.5t-25 91zM723 -397q0 -47 17.5 -84t47 -63.5t69.5 -41t85 -14.5q88 0 144.5 47t89 116.5t45 151.5t12.5 150t-10.5 140.5 t-22.5 137.5h-8q-14 0 -20.5 -4t-22.5 -12q-8 -4 -23.5 -13.5t-31 -18.5t-28.5 -17t-17 -10q-57 -37 -114.5 -86.5t-105 -108.5t-77 -126.5t-29.5 -143.5zM1408 456q1 -12 6 -21t18 -9q23 0 41 11.5t36 23.5q68 47 127.5 97t103.5 109.5t70.5 129t26.5 155.5q0 29 -4 68 t-17.5 74.5t-38 60.5t-63.5 25q-23 0 -51.5 -11.5t-57 -28t-52 -36t-35.5 -33.5q-41 -55 -62.5 -127t-32 -148.5t-12.5 -153.5t-2 -140q0 -8 -1 -20v-13v-13z" />
<glyph unicode="Y" horiz-adv-x="1277" d="M20 -383q0 -68 33 -116t85 -80.5t119 -51t133.5 -29t129 -13.5t105.5 -3q104 0 205.5 10.5t183.5 48t137 110.5t66 200q0 6 1 34.5t2 63.5t3 67.5t2 51.5q1 79 1 158v80q-1 118 -2 237v119v120q1 119 9 238q0 4 2 22.5t5 40t6 40t3 22.5v141q8 14 8 27v27q0 37 -24.5 47 t-54.5 10q-29 0 -50.5 -8t-21.5 -43v-25q2 -4 9 -13t9 -13q6 -25 7.5 -55.5t1.5 -57.5v-41t-2.5 -35.5t-4.5 -38t-6 -47.5v-702l-5 -6q-5 -7 -9 -11q0 -8 -8 -8q-31 -23 -71 -43t-71 -33q-12 -4 -29.5 -6t-35.5 -2h-35h-27q-41 0 -79.5 6t-72.5 21.5t-59.5 43.5t-37.5 71 q-16 53 -24.5 121.5t-8.5 123.5q0 90 4 178.5t4 178.5v125q-6 49 -22.5 101t-44 95t-68.5 70.5t-98 27.5q-45 0 -93.5 -19t-87.5 -52t-63.5 -78t-24.5 -94q0 -33 15.5 -62.5t41 -51t56.5 -34t61 -12.5q25 0 47.5 7t22.5 38q0 29 -18.5 39t-41 17.5t-41 17.5t-18.5 39 q0 25 12.5 46t32 37.5t43 25.5t47.5 9q27 0 50.5 -17t40 -43t25.5 -54.5t9 -52.5v-560q10 -68 19.5 -128t31 -112t62.5 -93t113 -68q41 -16 82.5 -25.5t82.5 -9.5q45 0 91.5 5t87.5 22q27 10 48 33.5t50 23.5v-282q0 -25 -7 -59t-20.5 -65.5t-32 -59t-38.5 -42.5 q-53 -18 -99.5 -31.5t-91.5 -20.5t-93 -11t-103 -4q-25 0 -71 1t-99.5 7t-109.5 17.5t-101 32t-74 50t-29 74.5q0 59 48 94t114 53.5t133.5 24.5t106.5 6h32q23 0 45.5 -3t40 -10t17.5 -22q0 -27 -20.5 -36t-44 -15t-44 -15t-20.5 -38t25.5 -38t47.5 -9q29 0 61 9t58.5 27.5 t44 45t17.5 61.5q0 43 -22.5 74t-56.5 49t-75 27.5t-76 9.5q-63 0 -157.5 -12.5t-181.5 -44t-148.5 -89t-61.5 -147.5z" />
<glyph unicode="Z" horiz-adv-x="1255" d="M20 -106q0 20 9.5 33.5t23 22.5t29.5 18t31 20l24 22q4 4 16.5 12.5t16.5 12.5l444 477q25 27 63 71t54 87v4v4q-6 0 -21.5 2t-33 5t-32.5 6t-21 3q-16 4 -29.5 13.5t-13.5 29.5q0 12 8 22.5t18 18.5q39 -2 77 -4q11 -1 21 -1q27 0 52 4q35 5 66.5 20.5t58.5 48.5 q12 14 41.5 51t63.5 78t63.5 78t42.5 53v4v4q-2 0 -5.5 3t-5.5 5h-241q-147 0 -293 -5t-293 -21q-6 -23 -18.5 -45.5t-38.5 -22.5q-20 0 -31.5 14.5t-18 34t-8.5 41t-2 33.5q0 41 36 51t71 10h24t21 2q10 0 52 2.5t89 5.5t89 6t52 3q18 0 59.5 1t92.5 1h108h109q51 0 91 -1 t61 -1q41 4 84 10t84 6q31 0 48 -12t17 -43v-21q0 -8 -8 -16q-82 -76 -154.5 -149.5t-138.5 -159.5q-6 -10 -16.5 -25.5t-8.5 -15.5l9 -14h125q20 0 35.5 -23t15.5 -39q0 -12 -10.5 -29.5t-24.5 -17.5h-258q-2 -2 -5 -6t-5 -6q-135 -160 -269.5 -327t-289.5 -308l-9 -17 q56 4 110 4q37 0 71 -2q86 -4 170 -13t169 -21.5t175 -24.5q113 -35 225.5 -69.5t224.5 -71.5q59 -20 121.5 -51t112.5 -50q6 -2 25.5 -8t42 -13t42 -13.5l25.5 -8.5q8 -2 36.5 -14t62.5 -26.5t63.5 -26.5t38.5 -15q104 -39 211.5 -49t218.5 -10q57 0 113.5 1t108.5 8 t102 26.5t97 56.5q20 16 48 45t28 60q0 25 -31.5 41t-71.5 26.5t-75 15.5t-43 5h-20q-16 0 -34 -3t-18 -24q0 -18 17.5 -25.5t17.5 -25.5q0 -27 -15.5 -34t-37.5 -7q-35 0 -66.5 25.5t-31.5 62.5q0 18 6 37.5t17 37t26.5 31t34.5 17.5q8 2 27.5 5t42 5t42 4t29.5 2 q43 -2 94 -14t95 -35.5t74 -61.5t30 -89q0 -35 -14.5 -64t-36.5 -53q-92 -104 -213 -144t-256 -40q-104 0 -208 5t-208 27q-90 20 -175 51t-169 65t-167 70t-167 66q-10 4 -50 18.5t-89 32t-97.5 34t-72.5 24.5q-119 41 -245 58.5t-249 33.5h-29q-113 0 -225 -3t-223 -32 q-2 0 -13.5 -5t-23.5 -11t-23.5 -11.5t-13.5 -5.5t-10 -1t-12 -1q-23 0 -38.5 14.5t-15.5 37.5z" />
<glyph unicode="[" horiz-adv-x="518" d="M113 1466q4 -16 7 -52t3 -75v-198q0 -14 -2 -17q0 -37 1 -113.5t1 -170.5v-199q0 -104 -1 -195.5t-1 -164.5v-109q0 -98 -2 -157.5t2 -102.5l6 -160l164 -6q27 -10 60.5 -8t68.5 0q2 6 6 6h10q-2 10 8.5 7t16.5 -1v6q-8 4 -6 14.5t0 20.5q8 27 -2.5 39t-28.5 16t-40 3 t-40 -1q-14 -4 -26.5 -6t-28.5 -2q-47 10 -41 60q4 25 5 47t-1 43v84l-2 409l-2 226v362q0 133 1 265t5 243q0 33 17.5 37t31.5 4l-18 -6q16 -2 32.5 -9.5t36.5 -2.5q-2 -10 8.5 -7.5t16.5 0.5q4 -8 12 -6t17 0q20 -2 29 6.5t11.5 22.5t1.5 30.5t-1 32.5q-8 -2 -9 11 q0 12 -10 8v6q-27 -4 -52.5 0t-51 7t-51 4t-52.5 -7l-86 2q-4 0 -7 -21.5t-4 -51t-3 -59.5t-4 -46q-6 -66 -6 -68zM268 1612h11l6 2q-4 0 -8.5 -1t-8.5 -1z" />
<glyph unicode="\" horiz-adv-x="622" d="M84 1384l4 13q-2 -14 13.5 -80t41 -165t61.5 -221t73.5 -247t75.5 -243.5t71 -211t57.5 -147.5t34.5 -53q33 -6 37 46t-12.5 143t-49 212t-71.5 249t-80 254t-75 228.5t-55.5 171t-23.5 84.5q-4 10 -6 26.5t-12 24.5q-4 14 -14.5 15.5t-22.5 -6t-21.5 -19.5t-11.5 -20 q-4 -12 -7 -25.5t-7 -28.5z" />
<glyph unicode="]" horiz-adv-x="477" d="M53 1733v6q6 2 16.5 -1t8.5 7h8q6 0 8 6q35 -2 69 0t60 -8l164 -6l6 -160q4 -43 2 -102.5t-2 -157.5v-109q0 -74 -1 -165t-1 -195v-199q0 -94 1 -171t1 -113q-2 -2 -2 -17v-31v-73v-45v-49q0 -39 3 -75t7 -52q0 -4 -6 -68q-2 -16 -4 -46t-3 -59.5t-4 -51t-7 -21.5l-86 2 q-27 -8 -52.5 -7t-51 4l-51 6t-52.5 1v6q-10 -4 -10 8t-8 10q0 14 -1.5 32t1 32t11.5 22.5t29 6.5q8 -2 16.5 0t12.5 -6q6 -2 16.5 1t8.5 -8q25 4 43 -6t43 -4h-10l-25 -8q14 0 31.5 4t17.5 37q4 111 5 243t1 265v168v194l-2 226l-2 409v84q-2 20 -1 43t5 47q6 49 -41 60 q-16 0 -28.5 -2t-26.5 -7q-18 0 -39.5 -1t-40 3.5t-29 16.5t-2.5 39q-2 10 0 20.5t-6 14.5z" />
<glyph unicode="^" horiz-adv-x="565" d="M55 1361.5q8 53.5 38 114t68 116t60 73.5l-6 -6q10 10 19.5 15t19.5 12q4 2 14.5 4t22.5 2q27 0 37 -13q29 -16 59.5 -54t56 -82t46 -87t28.5 -70v-2q2 -2 2 -6q0 -2 2 -4l-2 2q2 -10 3 -19t1 -20q0 -6 -6 -20t-14 -25.5t-18.5 -15.5t-18.5 10q-14 4 -19.5 16.5 t-15.5 20.5q-10 29 -43 80t-65 106q-10 16 -18.5 33t-18.5 33q-16 -29 -38 -69t-44 -81q-33 -53 -62.5 -94t-58.5 -37q-37 14 -29 67.5z" />
<glyph unicode="_" horiz-adv-x="700" d="M20 35q-4 27 33 43t96.5 25.5t132 10.5t139 -1t119 -8.5t70.5 -12.5l-16 6q31 -10 51 -24q6 -4 15.5 -15.5t14.5 -25t3 -23.5t-19 -10q-10 -10 -24 -9t-25 -3q-16 2 -70.5 4t-121 3t-129.5 1h-94q-61 0 -112.5 7t-62.5 32z" />
<glyph unicode="`" horiz-adv-x="430" d="M49 1645q18 20 46 15t59.5 -27.5t63.5 -57.5t59.5 -71t47 -67.5t25.5 -47.5l-6 16q8 -16 10 -28.5t6 -24.5q0 -8 -3 -22.5t-9 -27t-15 -17.5t-20 7q-16 0 -23 13.5t-18 17.5q-16 25 -57 71t-82 93q-39 47 -66.5 91t-17.5 67z" />
<glyph unicode="a" horiz-adv-x="890" d="M20 51q4 -6 18.5 -14t31 -16.5t32 -14.5t21.5 -6q37 0 47 22.5t9 57.5t-6 75q-2 20 -2.5 38.5t2.5 36.5q5 34 27.5 56.5t78.5 22.5h360q8 -23 24.5 -67.5t42 -90t60.5 -79t78 -33.5v63l-258 568v102h-256zM174 874q6 -23 27 -22q20 -1 26 22q2 12 -7 17.5t-19 5.5 t-19.5 -5t-7.5 -18zM313 463q0 25 13.5 48.5t33 43.5t40 36.5t32.5 26.5q39 -27 63.5 -70.5t39.5 -84.5h-222zM586 874h53l-53 52v-52z" />
<glyph unicode="b" horiz-adv-x="952" d="M20 53v4q18 29 47 40.5t56 15.5t47 7t25 15q8 20 10 43t24 35q-6 10 -20 10q0 35 6 70t6 69q0 92 -6 182q-5 67 -5 135q0 23 1 46l-8 16q-8 0 -24.5 1t-32 6.5t-28 14.5t-12.5 25q0 25 18.5 44.5t43.5 21.5h16q12 0 26.5 1t25.5 1h18h96q70 0 150 -7t149.5 -31.5 t115.5 -68.5t46 -118q0 -29 -9 -51.5t-9 -49.5v-14q57 -51 98 -114.5t41 -145.5q0 -90 -34 -142.5t-88 -78t-124 -32.5t-139 -7q-29 0 -49.5 1t-51.5 7h-383q-12 0 -27.5 18.5t-15.5 30.5zM307 127q6 -14 21.5 -20.5t29.5 -6.5h217q45 12 86 16.5t73 16.5t50.5 40t18.5 89 q0 59 -37 105.5t-98 46.5q-82 0 -163 -12q-60 -9 -121 -8q-21 0 -42 1q-12 0 -19.5 -18.5t-10.5 -46t-4 -59t-1 -56.5v-45v-43zM324 559q4 -6 8 -13t10 -11q4 0 23.5 -1.5t23.5 -1.5q59 0 124 6.5t124 20.5q23 20 38 35.5t15 44.5q0 25 -21.5 41t-55 27.5t-75.5 16.5t-80 8 t-70 5t-46 4q-2 0 -5 -3l-5 -5q-2 -4 -5 -21.5t-3 -21.5v-65v-66z" />
<glyph unicode="c" horiz-adv-x="813" d="M20 444q0 82 32 158t86.5 134.5t129 92t160.5 33.5q33 0 77 -6t85 -22.5t69.5 -44t28.5 -70.5q0 -29 -11 -56.5t-46 -27.5q-12 0 -24.5 14.5t-27 31.5t-31 34.5t-34.5 23.5q-20 8 -49 9.5t-51 1.5q-53 0 -103.5 -27t-90.5 -68t-63.5 -94t-23.5 -104q0 -166 97.5 -254 t258.5 -88q57 0 97.5 6t93.5 29q4 0 24.5 13t26.5 13q2 0 8 1t11 1q23 0 33 -13t10 -34q0 -41 -35 -66.5t-83 -41t-97.5 -21.5t-79.5 -6h-54q-10 2 -38.5 8t-60.5 14.5t-59.5 15.5t-39.5 11q-53 14 -95 60.5t-71 104.5t-44.5 121.5t-15.5 112.5z" />
<glyph unicode="d" horiz-adv-x="866" d="M20 61q0 35 26 47.5t54 12.5h41q2 8 5.5 31.5t5.5 29.5q0 12 1 52t3 85.5t3 88.5t1 61v45q0 35 -1 74t-1 71v48q-10 0 -29.5 -2.5t-38 1t-32 12.5t-13.5 32q0 33 25.5 49t61.5 22q31 5 62 5h10q36 -1 56 -1q76 0 148.5 -2t138 -17t124 -49t105.5 -98q70 -94 70 -210 q0 -115 -29 -191t-83 -127t-134 -81t-180 -50h-152q-20 0 -47.5 -1t-58.5 -1t-60.5 2t-54.5 8q-27 18 -27 53zM262 182q0 -12 1 -35.5t1 -25.5l8 -8q2 0 28 -1t38 -1q86 0 158.5 17t125 56t82 103.5t29.5 161.5q0 88 -37 140t-95 79.5t-130 36t-139 8.5h-27q-14 0 -24 -11 q0 -25 -3.5 -85t-6.5 -127.5t-5 -127t-2 -83.5v-17q0 -12 -1 -27.5t-1 -29.5v-23z" />
<glyph unicode="e" horiz-adv-x="856" d="M20 805q0 31 15.5 50t48.5 19q27 0 57 -10h170q68 0 134.5 4t134.5 4h4q17 -3 40 -3q12 0 25 1t26 1q26 0 51 -3q38 -4 65.5 -19t27.5 -54q0 -31 -17.5 -50.5t-45.5 -19.5h-17q-59 14 -112.5 20.5t-118.5 6.5h-107q-12 0 -33.5 -1l-43 -2t-36.5 -3l-16 -3l-18 -8 l-25 -217q-2 -12 19.5 -15t25.5 -3h23q57 6 114 6q21 0 43 -1h24q66 0 132 13q23 4 36 20.5t42 17.5q37 0 45 -23t8 -54q0 -27 -3 -42t-23 -31q-93 -8 -187 -10q-36 -1 -72 -1q-58 0 -114 2q-25 -10 -57.5 -13t-55.5 -5l-10 -8v-252l10 -8h17h76h32h170q86 0 172 8 q27 4 46.5 20.5t45.5 16.5q31 0 39.5 -27t8.5 -49q0 -27 -9.5 -40t-24 -19.5t-32.5 -9.5t-39 -11h-547q-23 0 -50.5 18t-35.5 43v170v175q2 74 14.5 147.5t12.5 146.5v35q-12 2 -30.5 6t-35 11.5t-28 20.5t-11.5 32z" />
<glyph unicode="f" horiz-adv-x="866" d="M20 791q0 27 18.5 39t43.5 17q20 4 42 4h9q27 -1 43 -1h547q57 0 90 -18.5t33 -75.5v-43q-23 -29 -55 -29q-14 0 -23.5 8t-19 19.5t-18.5 19.5t-23 8q-20 0 -39 -5t-41 -5q-72 0 -140.5 5t-140.5 5q-8 0 -32.5 -1t-32.5 -1t-17.5 -7t-9.5 -17v-209h287q8 0 14 -8.5 t9 -18.5t4 -20.5t1 -14.5q0 -29 -13 -53t-44 -24h-6q-4 0 -24.5 9t-26.5 9h-4h-5q-4 -2 -26.5 -6t-26.5 -4h-129q-14 -4 -16 -34t-2 -54v-25q0 -4 -1 -22.5t-3 -38t-3 -38t-1 -22.5v-6q0 -16 13 -31.5t13 -38.5q0 -20 -12 -32.5t-29.5 -19.5t-38 -9t-34.5 -2q-27 0 -48.5 13 t-21.5 42q0 27 13 43.5t24 40.5q14 117 19 237t5 236v4q0 6 -1 23.5t-3 37t-3 37t-1 23.5q-18 -2 -37.5 -3t-37 3t-28 16.5t-10.5 37.5z" />
<glyph unicode="g" horiz-adv-x="907" d="M20 391v19q0 10 1.5 30.5t3.5 42t3 38t1 20.5q0 2 3 12t7 14q43 94 82 153.5t88 93.5t118.5 46t174.5 12q18 0 58 -7t81 -21.5t71 -37.5q25 -21 25 -48v-8q-4 -31 -21.5 -38t-41.5 -7q-23 0 -35 9t-33 19q-35 14 -74.5 20.5t-78.5 6.5q-82 0 -140.5 -29t-96.5 -79 t-55.5 -117.5t-17.5 -143.5q0 -27 8.5 -54.5t18.5 -49.5q27 -61 64.5 -95t85 -49.5t102.5 -18.5t119 -3q68 0 109.5 24.5t65 64.5t32 93t8.5 111v30q-41 18 -90 19h-91h-20q-14 0 -29.5 -1t-29.5 -1h-21q-16 -12 -29.5 -19.5t-35.5 -7.5q-43 0 -50.5 26.5t-7.5 61.5 t15.5 65.5t58.5 30.5h6q12 0 58.5 -5t98.5 -12t98 -12t58 -5q29 -2 54.5 -3t45 -8.5t31 -25t11.5 -53.5q0 -92 -9.5 -181.5t-42 -159t-99 -111.5t-179.5 -42q-84 0 -158.5 6t-137 28.5t-115 70t-91.5 128.5q-35 80 -35 158z" />
<glyph unicode="h" horiz-adv-x="890" d="M18 711q0 20 7.5 32.5t29.5 18.5q4 2 27 2h24q57 0 87 -17.5t42.5 -49t14.5 -74.5t4 -95q10 -12 27 -16h20q16 0 33.5 -1t32.5 -1h22h29q18 0 34.5 1t28.5 1h17q18 0 54 1t73 5t67.5 10.5t38.5 18.5q10 14 10 37v37q0 4 -1 22.5t-1 24.5q-10 10 -22 28.5t-12 36.5 q0 29 16 38t39 9q29 0 59.5 -6t42.5 -37q0 -25 -1 -89t-1 -136t1 -136.5t1 -88.5q0 -8 1 -38t3 -63.5t3 -62.5t1 -37v-10q0 -31 -24.5 -49.5t-52.5 -18.5q-16 0 -39 12.5t-23 30.5v322l-8 26h-27q-98 0 -194 -3t-195 -7q-12 0 -32.5 -3t-20.5 -5v-813q0 -14 -10.5 -23.5 t-23.5 -15.5t-28.5 -9t-25.5 -3q-29 0 -53.5 8t-24.5 43q0 16 4 23.5t10.5 11.5t14.5 9t16 17q10 16 9 49t-1 46v79q0 16 -1 71.5t-1 125.5q0 74 -2 156t-2 155q0 74 -1 128.5t-1 72.5v113q0 4 -3 13t-5 11q-18 2 -37.5 4t-35 7.5t-25 16.5t-9.5 34z" />
<glyph unicode="i" horiz-adv-x="364" d="M20 63q0 27 15.5 38.5t33 20.5t33 20.5t15.5 39.5q0 23 1 81.5t3 124t3 123.5t1 81v53v21v28q0 14 -2 27.5t-6 17.5q-2 2 -9.5 6.5t-16.5 8.5t-17 8t-11 4q-8 6 -8 16v19q0 37 35 53q8 0 29.5 -1t44.5 -1q25 0 46 1t30 1q2 0 16 4t18 4h15q55 0 55 -57q0 -29 -14.5 -40 t-31.5 -18.5t-32.5 -16.5t-17.5 -34q-6 -84 -8 -146.5t-2 -133.5v-99v-36v-54q0 -29 1 -54.5t1 -35.5q10 -16 26.5 -20t31.5 -7.5t26.5 -13.5t11.5 -37q0 -25 -16.5 -42t-45.5 -17q-53 0 -116.5 8t-110.5 10q-27 18 -27 45z" />
<glyph unicode="j" horiz-adv-x="813" d="M20 311q0 94 59.5 151.5t153.5 57.5q63 0 116.5 -39t53.5 -108q0 -53 -28.5 -88t-87.5 -35q-41 0 -41 41q0 12 5 21.5t12 17.5t12.5 16t5.5 21q0 25 -20.5 27.5t-41.5 2.5h-35q-27 -23 -35 -48t-8 -60q0 -49 22.5 -83t57.5 -55.5t78 -30.5t84 -9q92 0 142 39.5t85 125.5 l8 25v426l-8 8q-6 0 -23.5 1t-37 3t-36.5 3t-24 1q-4 0 -18 4.5t-16 6.5q-6 0 -31 1t-52.5 3t-52 3t-30.5 1q-25 2 -39 12t-14 35q0 23 15 40t38 17h469q4 0 17 -13t18 -22v-12q0 -27 -10.5 -43t-32.5 -33q-8 -70 -8 -147v-10q1 -9 1 -18q0 -73 -4 -148q-4 -84 -18 -161 t-52 -136.5t-106.5 -95t-179.5 -35.5q-76 0 -141.5 20.5t-114.5 60.5t-78 99t-29 139z" />
<glyph unicode="k" horiz-adv-x="899" d="M20 803q0 35 24 48t56 13q37 0 67 -7t54 -36q0 -8 2 -26.5t3 -40t3 -40t2 -24.5q0 -14 3.5 -33.5t21.5 -19.5q16 0 54 19.5t79 44t78 49t53 36.5q31 23 52.5 42.5t62.5 19.5q37 0 70.5 -10.5t33.5 -51.5q0 -23 -32.5 -47t-76.5 -48.5t-88 -48.5t-67 -40l-10 -10t-6 -8 q-2 0 1 -6.5t7 -10.5q68 -98 132.5 -191t137.5 -186q8 -8 31 -32.5t31 -28.5q8 -8 22.5 -13t26.5 -12.5t21.5 -17.5t9.5 -27q0 -20 -17.5 -37.5t-36.5 -21.5h-53q-18 0 -42 -1h-5q-22 0 -39 9q-25 10 -26 35t-9 43q-41 70 -89 133.5t-95 128.5q-20 29 -33.5 50.5t-27 40 t-30 37t-40.5 38.5q-6 -2 -23.5 -8t-35 -14.5t-32 -16.5t-14.5 -14v-340q4 -10 19.5 -39t15.5 -45q0 -10 -11 -23.5t-24 -13.5h-133q-25 0 -39 18t-14 41q0 20 7 38t15.5 35.5t15.5 35.5t7 41v489q-23 18 -46.5 44t-23.5 61z" />
<glyph unicode="l" horiz-adv-x="845" d="M18 791q0 -23 12.5 -32t27 -18.5t26.5 -22.5t14 -44q0 -2 2 -27.5t3 -60.5t3.5 -72t2.5 -59v-4v-5q0 -18 -2.5 -62t-3.5 -95t-3 -95t-2 -63q-18 -16 -31.5 -33.5t-13.5 -42.5q0 -27 18.5 -41t45.5 -14h235q35 14 81 16t83 2q53 0 107.5 -5t107.5 -5q14 0 31.5 1t31 7.5 t22.5 17.5t9 32q0 16 -2 38.5t-10 42t-21.5 33t-33.5 13.5q-25 0 -38 -8.5t-25.5 -18.5t-26 -18.5t-37.5 -8.5h-43q-4 0 -19.5 2t-33 4t-33 3.5t-19.5 1.5q-47 -4 -87 -16.5t-87 -12.5h-35q-18 0 -34 10q-10 164 -10 325q0 8 0.5 16t0.5 16q0 161 -10 325q-18 27 -49 31 t-59 4q-33 0 -64 -9.5t-31 -47.5z" />
<glyph unicode="m" horiz-adv-x="987" d="M20 834q0 47 36 58t75 11q18 0 38.5 -5t35.5 -21q63 -78 124.5 -163t137.5 -153h8q27 0 47.5 24.5t32.5 37.5q8 8 28.5 31.5t42 50t41 50t27.5 33.5q-5 23 -5 41q0 13 3 24q6 24 23.5 35t44 13t61.5 2q18 0 42 -1t45.5 -7t35.5 -19.5t14 -37.5q0 -16 -6 -25.5t-14 -19 t-15.5 -18.5t-9.5 -21q-6 -31 -7 -47.5t-1 -44.5q1 -125 7 -247q4 -69 3 -139q0 -54 -2 -108q10 -27 32 -47.5t22 -50.5q0 -18 -13.5 -30.5t-32 -19t-38 -8.5t-31.5 -2q-18 0 -43 3t-45.5 12.5t-33.5 27t-9 45.5q2 8 15.5 30t19.5 32v454l-8 9h-5h-4q-16 -12 -38.5 -40 t-32.5 -38q-8 -8 -29 -28.5t-42.5 -43t-40.5 -42t-28 -28.5q-14 -8 -29.5 -13t-31.5 -5q-29 0 -53.5 19.5t-46 46t-40 55.5t-34.5 47q-8 10 -25.5 27.5t-31 29t-15.5 13.5h-6q0 -49 -2 -78v-10q0 -26 8 -62l19 -358q0 -10 12 -16.5t27.5 -14.5t27.5 -21.5t12 -35.5 q0 -12 -10 -26.5t-26 -14.5h-174q-8 0 -21.5 18.5t-13.5 26.5q0 27 10 36t14 31q10 35 11 78v80q0 119 -6.5 236.5t-12.5 234.5q-2 27 -13 38t-23.5 18.5t-23 16.5t-10.5 34z" />
<glyph unicode="n" horiz-adv-x="819" d="M20 -594q0 18 8.5 29.5t18.5 23t18.5 23.5t8.5 31q14 180 20 359t6 359v43v56q0 29 -1 49t-1 22q0 18 -2 62.5t-4 95.5t-5 95t-5 63q-25 18 -39 36.5t-14 47.5q0 20 12 32.5t30.5 16.5t38 5t33.5 1q53 0 75 -32.5t46 -71.5q2 -4 13.5 -13.5t13.5 -13.5 q80 -94 151.5 -198.5t137.5 -202.5q4 -4 12 -11.5t14 -7.5t11.5 26.5t8.5 59.5t5 62.5t2 35.5q0 12 1 42t3 63t3 62.5t1 41.5q-8 27 -30.5 45.5t-22.5 47.5q0 20 14 38.5t37 18.5h10q6 0 22.5 -1t35 -3t35 -3t22.5 -1q35 -12 35 -47q0 -27 -10.5 -35t-16.5 -33 q0 -2 -1 -12.5t-3 -22.5t-3 -24.5t-1 -18.5q-6 -72 -8 -138.5t-3 -132.5v-67v-69q1 -68 1 -144q-6 -31 -15.5 -55.5t-48.5 -24.5q-12 0 -25.5 1t-23.5 10q-18 14 -34.5 36.5t-31 46t-26.5 46t-23 37.5q-2 2 -11 13t-19.5 24.5t-18.5 24.5t-10 15q-10 14 -37 53t-56.5 82.5 t-55 82t-35.5 55.5q-12 14 -27.5 27.5t-34.5 23.5v-51q0 -47 4 -92t4 -93v-8q0 -12 -1 -64.5t-3 -110.5t-3 -110.5t-1 -64.5v-41v-74v-75v-43q0 -10 -2 -51.5t-4 -90.5t-5 -96t-5 -70q-4 -53 -17.5 -82.5t-70.5 -29.5q-16 0 -32.5 2t-31 8t-24 17.5t-9.5 31.5z" />
<glyph unicode="o" horiz-adv-x="749" d="M18 424q0 -78 31 -151.5t83 -132t123 -94.5t153 -36q20 0 66 11.5t94 32t85 49t37 63.5v414q0 43 -40 79.5t-95 65.5t-111.5 45t-89.5 16q-76 0 -138 -31.5t-106 -81.5t-68 -115.5t-24 -133.5zM168 416q0 72 3 115.5t21.5 67.5t58.5 31t111 7q70 0 114 -15.5t70.5 -46 t37 -78.5t10.5 -114q0 -39 -3 -85t-18.5 -87t-48 -68.5t-92.5 -27.5q-72 0 -122 24.5t-81.5 65.5t-46 95.5t-14.5 115.5zM174 887l53 -51v51h-53zM524 887q0 -12 11 -13q10 0 10 13q0 14 -10 14t-11 -14z" />
<glyph unicode="p" horiz-adv-x="714" d="M20 825q0 -23 10.5 -36t27 -19t37 -8t40.5 -2q18 -14 22.5 -28.5t4.5 -37.5q0 -168 -14.5 -334.5t-30.5 -332.5q-8 -74 -12.5 -150t-14.5 -147q-4 -23 -19.5 -39t-15.5 -41q0 -33 23.5 -51.5t54.5 -18.5q25 0 46.5 2t49.5 6q12 10 24.5 23.5t12.5 30.5q0 29 -13 46 t-24 42v90v92q2 27 8.5 94.5t13.5 142t13 142t10 94.5q8 12 22.5 21.5t29.5 13.5q55 0 119.5 7t120 29.5t92 64.5t36.5 116q0 92 -40 140t-100 69.5t-133 23.5t-138 4q-6 0 -34 1.5t-58.5 3.5t-58.5 3t-34 1h-30q-47 0 -48 -58zM281 557v86t10 92l5 5t5 3h148q14 0 33.5 -8 t38 -21.5t30.5 -30t12 -30.5q0 -47 -37 -69.5t-77 -24.5h-35q-23 0 -49.5 -1t-51.5 -1h-32z" />
<glyph unicode="q" horiz-adv-x="782" d="M20 416q0 66 23 141.5t65 139t102 105.5t138 42h14q16 -4 39 -7t46.5 -7.5t45 -11.5t35.5 -17q100 -72 154.5 -176.5t54.5 -227.5v-57q0 -31 -8 -55q-12 -33 -36.5 -67t-24.5 -71q0 -10 7 -35.5t17 -54t20.5 -54.5t16.5 -34q51 -80 94 -125t94.5 -66.5t118.5 -24.5 q28 -1 62 -1q46 0 102 2q20 -6 32.5 -22.5t12.5 -34.5q0 -41 -31.5 -49t-62.5 -8q-47 0 -93 2t-93 6q-4 0 -21.5 4t-21.5 6h-11l-147 70q-16 6 -36.5 28.5t-41 51t-37 57.5t-24.5 45q-6 12 -12.5 36.5t-15.5 49t-19.5 43t-22.5 18.5h-10q-61 -16 -110.5 -30.5t-112.5 -14.5 q-82 0 -139.5 37t-93.5 95.5t-52.5 130t-16.5 141.5zM133 446q0 -53 9.5 -110t34 -105.5t66.5 -78.5q37 -25 93 -25h16q4 0 34 7t46 11q4 0 14.5 3.5t10.5 5.5q2 0 2 4q0 10 -22.5 12t-49.5 6t-49.5 15.5t-22.5 39.5q0 20 11.5 31.5t28 16t34 5.5t31.5 1q41 0 82 -8.5 t78 -26.5q31 23 38 71t7 82v56q-18 31 -34 64.5t-32 64t-40.5 56.5t-61.5 42q-6 2 -20.5 8t-32 14.5t-32 14.5t-20.5 8q-43 -10 -83 -38.5t-70.5 -68.5t-48 -86.5t-17.5 -91.5z" />
<glyph unicode="r" horiz-adv-x="1091" d="M20 713q0 -2 6.5 -8.5l10.5 -10.5q16 -10 40.5 -12t39.5 -4q29 -80 29 -164v-14q-2 -92 -3 -183q0 -8 -1 -22t-1 -16q0 -16 -3 -43t-5 -51.5t-5 -42.5l-3 -19l-53 -53l-1 -10q-1 -9 -1 -13q0 -23 6 -38t30 -25q4 0 19.5 -1t19.5 -1q33 0 66 10t43 43q0 16 2 57t3 86t3 86 t2 58v18q0 80 -9 160t-9 157q0 4 -1 15.5t9 13.5q8 0 31.5 1t29.5 1q10 0 34 -1t28 -1q8 0 36.5 -2t62.5 -5t68 -5t50 -4q18 -2 39.5 -5t40 -10.5t31 -22t12.5 -38.5q0 -39 -18.5 -60.5t-47 -33t-62.5 -13.5t-65 -2q-20 0 -34.5 6.5t-29 12.5t-30.5 12t-37 6q-29 0 -53.5 -6 t-24.5 -43q0 -18 9.5 -29.5t21.5 -18.5t27.5 -12t27.5 -14q72 -66 134.5 -134t128.5 -142q25 -29 44 -59.5t58 -45.5h92h88q41 0 90 9q14 10 24.5 24.5t10.5 32.5q0 23 -15.5 35t-37 18t-44 8t-34.5 5q-6 0 -23.5 1t-37 2t-37 3t-23.5 2q-18 12 -50 40.5t-63.5 60.5 t-55 60.5t-23.5 40.5q0 2 1 4l1 1q16 12 23 15t14 3q8 0 18 1t31 7q70 25 100.5 76t30.5 121t-30 108.5t-76 57t-101 24.5t-107 13q-4 0 -19 3t-32.5 6t-33 6t-19.5 3h-100q-66 0 -146 1h-8q-76 0 -137 -19q-4 -2 -10.5 -8.5t-6.5 -8.5v-61z" />
<glyph unicode="s" horiz-adv-x="837" d="M20 78v41v41q0 35 13.5 64.5t52.5 29.5q33 0 58.5 -19.5t52 -42t57.5 -42t74 -19.5h217q63 0 102 46t39 104v43q-23 43 -76 62.5t-119.5 28.5t-137 15t-129 21.5t-96.5 50.5t-38 100q0 111 57.5 158t161.5 47q72 0 139.5 -19.5t137.5 -19.5q25 0 41 14.5t41 14.5 q31 0 38 -15.5t7 -44.5q0 -37 -19.5 -71.5t-60.5 -34.5q-80 23 -152.5 37t-152.5 14h-54q-18 -4 -35.5 -22.5t-17.5 -38.5q0 -23 17.5 -34.5t35.5 -17.5q16 -2 60.5 -8t92.5 -14t92 -14.5t61 -8.5q104 -16 170.5 -74.5t66.5 -168.5q0 -98 -39 -153.5t-101.5 -84.5t-140 -36 t-155.5 -7h-47q-29 0 -50.5 3t-62.5 15q-4 0 -16 5.5t-26.5 12.5t-28 12t-15.5 5q-20 4 -36.5 2t-30.5 -2q-12 0 -24 4.5t-24 20.5z" />
<glyph unicode="t" horiz-adv-x="976" d="M18 782q0 20 6.5 31.5t30.5 24.5q12 0 46 1t72 3t72 3t46 1q135 2 269 10t269 8q20 0 43 -2t41.5 -10t30.5 -24.5t12 -43.5t-8 -57.5t-45 -30.5q-31 0 -55.5 18.5t-59.5 18.5q-66 0 -131 -3t-129 -7q-20 -8 -18 -36t0 -42q0 -4 -1 -14t-3 -22.5t-3 -23t-1 -12.5v-16 q0 -12 -1 -30.5t-1 -37.5v-28v-23q0 -16 1 -34.5t1 -34.5v-23q2 -4 5 -21.5t3 -21.5q0 -8 1 -30.5t1 -47.5t-1 -48t-1 -32q2 -14 9 -24t15.5 -21.5t14.5 -21.5t6 -25q0 -18 -12.5 -32.5t-32.5 -14.5h-131q-20 0 -36.5 16.5t-16.5 36.5q0 16 6 24.5t14 14.5t17.5 14.5 t15.5 24.5q2 6 4 20.5t4 32t2 33.5v29q0 23 -1 39t-9 39v393h-219q-25 0 -36 -18.5t-36 -18.5q-41 0 -55.5 27.5t-14.5 68.5z" />
<glyph unicode="u" horiz-adv-x="815" d="M20 723q6 -6 14.5 -20.5t16.5 -31t14.5 -31.5t6.5 -22q2 -27 3 -92t1 -139t-1 -139t-3 -92q37 -63 91 -96t115.5 -47.5t128 -15.5t130.5 -1h41t61.5 1t62 2t41.5 1q10 0 31 20.5t21 30.5q0 4 -8.5 19.5t-17.5 33t-17.5 33t-8.5 19.5q-4 20 -9 64t-10 100.5t-11 118 t-10.5 117.5t-8.5 101t-4 66l-51 51l-51 -51v-516q0 -20 -23.5 -38.5t-54.5 -33t-60.5 -24t-41.5 -9.5q-88 0 -141.5 34t-80.5 90q-28 56 -34 128q-4 46 -5 95q-1 25 1 51q4 74 13 146.5t15 127.5zM256 901q0 -9 5 -19q3 -6 10 -7q4 0 8 2q23 6 22 24q1 21 -22 27h-4 q-9 0 -13 -6q-6 -8 -6 -21zM463 901q0 -9 5 -19q3 -6 10 -7q3 0 7 2q23 6 23 24q0 21 -23 27h-4q-9 0 -13 -6q-5 -8 -5 -21z" />
<glyph unicode="v" horiz-adv-x="882" d="M20 737q2 10 14.5 30.5t28.5 20.5h140q20 0 31.5 -15t18.5 -35.5t11 -41t8 -28.5q4 -14 14.5 -44t20.5 -61t20.5 -55.5t14.5 -30.5q4 -10 18.5 -42t33 -68.5t35.5 -71.5t26 -51q2 -4 15 -24.5t19 -29.5q2 -4 8.5 -10t8.5 -6q8 -2 30.5 18.5t47 50t47 59.5t31.5 44 q35 57 61.5 121.5t26.5 132.5q0 59 -62 59q-35 0 -51 -15t-45 -46v-8q0 -10 12 -14.5t27.5 -10.5t28 -16t12.5 -33q0 -35 -31 -50t-59 -15q-53 0 -91 35.5t-38 88.5q0 39 21.5 77t54 69t72.5 49t79 18q86 0 134 -51t48 -129q0 -92 -27.5 -169t-70.5 -145.5t-97.5 -134 t-107.5 -132.5q-6 -4 -26.5 -13.5t-26.5 -13.5h-8q-61 0 -86 51l-174 365q-6 20 -18.5 52t-26 65.5t-27.5 67.5t-25 58q-6 16 -27.5 20.5t-43.5 7.5t-38 13q-13 8 -13 27q0 5 1 10z" />
<glyph unicode="w" horiz-adv-x="1038" d="M18 756q0 20 12.5 31.5t30 17.5t37 7t35.5 1q23 0 38 -6t24 -29q41 -141 93 -267t105 -261q2 0 5 -1l3 -1q12 0 30 24.5t35 56t28.5 62.5t11.5 45v4l-62 191v16q0 27 16.5 44.5t45.5 17.5q14 0 22.5 -8.5t14.5 -18.5t12 -18.5t16 -8.5l4 2q4 6 20.5 22.5t22.5 20.5h19 q37 0 49 -18t12 -53q0 -47 -22.5 -91t-22.5 -92q0 -14 6.5 -44.5t16.5 -62.5t25.5 -56.5t33.5 -24.5h4q37 98 68 198.5t63 200.5v17q0 25 -13 43t-13 43q0 37 26.5 50t59.5 13q37 0 62.5 -13t25.5 -54q0 -29 -4 -53.5t-15 -55.5q-4 -10 -19 -56t-33.5 -98.5t-33 -98.5 t-16.5 -58q-2 -6 -8 -31.5t-14.5 -54.5t-14.5 -55.5t-8 -32.5q-6 -23 -15.5 -50.5t-22.5 -53t-32.5 -43t-46.5 -17.5q-35 0 -53 12.5t-29.5 31.5t-17.5 44t-17 51q-2 6 -9 20.5t-15 31t-16.5 32t-10.5 21.5h-4h-6q0 -2 -3 -5.5t-5 -5.5q-2 -4 -11.5 -20t-18.5 -34.5t-18 -35 t-12 -22.5q-10 -14 -19 -32.5t-21.5 -34t-27.5 -27t-38 -11.5q-20 0 -31.5 13.5t-19.5 31.5q-59 154 -113.5 303.5t-112.5 303.5q-10 25 -25 34t-28.5 14t-24 12t-10.5 30z" />
<glyph unicode="x" horiz-adv-x="1048" d="M18 57q0 41 21.5 56.5t58.5 25.5q78 78 158 162t147 176q4 4 10.5 14.5t6.5 12.5t-3 8t-5 8l-191 201q-12 12 -29.5 18t-35 12.5t-29.5 16.5t-12 29q0 35 22.5 49t55.5 14q25 0 52 -3t44 -23l192 -209q6 -8 27 -9q18 0 49 39t70 87.5t82 87t84 38.5q33 0 60.5 -15 t27.5 -54q0 -18 -13.5 -26.5t-32 -13.5t-37 -10.5t-30.5 -19.5q-2 -4 -10 -15.5t-19.5 -24.5t-20.5 -24.5t-11 -13.5q-8 -10 -24.5 -24.5t-32 -31.5t-28 -35.5t-12.5 -35.5v-12l105 -104q2 -2 12 -9.5t22.5 -16.5t22.5 -16.5t12 -9.5q51 -45 91 -100t92 -100 q20 -16 40.5 -25t20.5 -39q0 -16 -12 -36.5t-31 -20.5h-131q-23 0 -31 11t-10 28.5t-1 35t-1 29.5q-4 16 -18.5 36t-32 37t-34.5 32.5t-27.5 23.5t-34 27.5t-50 42t-50 42t-32.5 28.5q-2 0 -6 1t-6 1q-14 0 -17 -3.5t-14 -15.5q-49 -57 -106 -123.5t-111 -128.5v-8 q0 -14 4.5 -24.5t4.5 -24.5q0 -31 -26 -47.5t-60.5 -24.5t-69.5 -9t-53 -1q-25 0 -39.5 17t-14.5 40z" />
<glyph unicode="y" horiz-adv-x="684" d="M20 825q0 -33 27 -51q0 -14 3 -49t5 -73t5 -72.5t3 -49.5q6 -66 41 -110.5t84.5 -73.5t108.5 -43t115 -16q6 0 20 -1t30.5 -2t32 -3t21.5 -2q14 -6 19.5 -28t7.5 -46.5t1 -47t-1 -32.5q0 -53 -4 -99t-17.5 -88t-39 -78t-70.5 -67q-33 -23 -66 -38t-72 -15q-18 0 -40.5 6 t-43 17.5t-35 29t-14.5 39.5q0 20 11.5 36.5t28 29t36 19.5t37.5 7t35.5 -5t36.5 -5q23 0 37 18.5t14 40.5q0 33 -20.5 56.5t-57.5 23.5q-49 0 -97 -13t-86 -40t-62.5 -68t-24.5 -94q0 -49 19.5 -89t53 -68.5t76.5 -45t92 -16.5q63 0 122 22.5t107 60.5t86 89t60 107 q20 44 20 97l-1 105q0 86 -13.5 171t-13.5 171q0 74 5 147t5 146v23q0 16 -1 34.5t-1 34.5v25q-10 20 -22.5 31.5t-36.5 11.5q-25 0 -56.5 -18.5t-31.5 -47.5v-4q4 -6 13 -25.5t13 -25.5v-117v-118q0 -12 -1 -33t-3 -40.5t-3 -33.5l-1 -14l-18 -8q-2 0 -25.5 -1t-34.5 -1 q-90 0 -143 21.5t-81 62t-37 103t-9 144.5q0 2 1 11.5t3 19.5t3 19.5t1 11.5l1 7t1 11q0 31 -19.5 49.5t-49.5 18.5q-33 0 -61 -12.5t-28 -49.5z" />
<glyph unicode="z" horiz-adv-x="874" d="M20 807q0 -2 3.5 -15.5t5.5 -19.5q2 -2 5 -13t3 -14q4 -16 6 -33.5t8 -31.5t16.5 -22.5t32.5 -8.5q35 0 41 16.5t10.5 37t19.5 37t69 16.5q47 0 94 -11.5t94 -15.5v-10l-16 -21q-17 -20 -27 -30l-61 -62q-6 -8 -21.5 -25.5t-33 -37t-32 -35.5t-18.5 -23 q-25 -31 -56.5 -82t-59 -108t-47 -113.5t-19.5 -99.5q-1 -24 25 -50q24 -24 51 -24h4q84 8 166 21.5t168 13.5q80 0 158.5 -5t156.5 -22h6q47 0 64.5 32t17.5 73q0 20 -1 40.5t-8 37t-20.5 27t-38.5 10.5q-29 0 -39 -10.5t-20 -24t-26.5 -24.5t-55.5 -13q-47 2 -91 2 q-66 0 -124 -4q-98 -6 -209 -6q-14 0 -21 3t-7 19q0 2 1 6t1 6q23 61 68.5 136t105 145t125 126t124.5 79q27 10 50.5 19.5t41 22.5t25.5 33.5t6 55.5q-4 20 -18 33.5t-35 17.5q-35 -1 -69 -1q-99 1 -196 9q-130 12 -263 11h-97q-18 -12 -30.5 -30t-12.5 -40z" />
<glyph unicode="{" horiz-adv-x="477" d="M18 969q0 2 1 7t1 7q66 53 115 128t53 167l43 715q2 49 19.5 106.5t48.5 105.5t76 79.5t102 31.5q18 0 39 -3t38 -10t29.5 -21.5t12.5 -36.5q0 -12 -5 -26.5t-24 -14.5h-127q-16 0 -29.5 -15.5t-23.5 -36t-18.5 -42t-12.5 -33.5q-4 -10 -8 -28.5l-8 -37t-7 -33.5l-3 -14 l-43 -715q-2 -37 -15.5 -70.5t-30 -65.5t-31.5 -64.5t-22 -65.5q-4 -23 11.5 -45.5t35 -47t36 -51t16.5 -53.5v-575q0 -66 14 -138.5t44 -140t75 -124t106 -87.5q4 -2 20.5 -13t20.5 -13q6 -4 16.5 -9t12.5 -5h223q18 0 24.5 -14.5t6.5 -26.5q0 -18 -10.5 -38t-32.5 -20 h-240q-4 0 -17 6t-31.5 15.5t-36 18.5t-27.5 16q-66 45 -115 106t-83 134t-51.5 150.5t-17.5 155.5v574q0 47 -26.5 75.5t-58 50t-58.5 40t-27 45.5z" />
<glyph unicode="|" horiz-adv-x="442" d="M131 1453q-2 17 8.5 48t33 46.5t44 14.5t36.5 -18.5t15 -52.5q-4 -109 -2 -215.5t2 -237.5v-168v-194l2 -225l2 -410v-84q2 -20 1 -43t-5 -47q-2 -12 -7 -15.5t-14 -2.5t-19.5 2.5t-22.5 -3.5l-43 -14q6 2 4 4t-7 6t-11.5 11.5t-6.5 23.5q-4 43 -2 102.5t2 157.5v109 q0 74 1 165t1 195v199q0 94 -1 171t-1 114q2 2 2 16v31v73v45v50q0 39 -3 74.5t-7 52.5q0 2 -2 19z" />
<glyph unicode="}" horiz-adv-x="581" d="M-172 -418q0 25 31 41q10 2 37.5 6t59.5 9.5t59.5 8.5t39.5 5q33 4 61.5 15t49.5 40q2 6 7 23.5t9 38t8.5 39t4.5 26.5q12 115 19 230.5t18.5 232.5t27.5 232.5t47 228.5q12 53 40 88t44 80q-37 47 -57.5 101t-29.5 111.5t-11 116t-2 113.5q0 70 9 137.5t20.5 135 t20.5 135t9 137.5q0 43 -12 75.5t-33.5 61.5t-49.5 55.5t-60 55.5q-12 10 -22.5 12t-27.5 2q-23 0 -40 -8t-37 -8q-23 0 -40.5 17t-17.5 40q0 35 33 46t61 11h37q51 0 98.5 -24.5t87.5 -63.5t70.5 -87t48.5 -93q0 -6 1.5 -19.5t1.5 -29.5v-29v-20q0 -68 -9.5 -135.5 t-20.5 -134t-20.5 -133t-9.5 -136.5q0 -86 7 -170t50 -160q10 -18 30 -29.5t38 -20.5t32.5 -23.5t14.5 -38.5q0 -23 -15.5 -38.5t-36 -29.5t-42 -27.5t-33.5 -31.5q-37 -53 -56.5 -135t-30.5 -172.5t-15 -176.5t-10 -147q-2 -14 -6.5 -67.5t-8.5 -114t-8 -113.5t-6 -68 q-10 -92 -39 -145t-77 -79.5t-115.5 -34t-153.5 -7.5h-49q-31 14 -31 43z" />
<glyph unicode="~" horiz-adv-x="1486" d="M18 537q0 47 19.5 78.5t51.5 52t71 29t80 8.5q57 0 117.5 -6.5t111.5 -39.5q102 -61 181 -107t157 -74.5t166 -43t211 -14.5q23 0 54.5 3t60 13t49 29.5t20.5 52.5q0 35 -30.5 53.5t-63.5 18.5h-6q-4 -4 -20.5 -21.5t-20.5 -19.5q-2 -2 -6 -2h-9q-23 0 -33 14t-10 35 q0 45 32 68.5t73 23.5q82 0 137 -41t55 -127q0 -80 -53 -130t-131 -66h-20q-14 0 -32 -1t-32 -1h-20q-117 0 -235 12t-222 59q-61 29 -117.5 66t-113 68.5t-116.5 54t-132 22.5q-16 0 -38 -4t-40.5 -13t-31.5 -24.5t-13 -36.5q0 -10 7 -23.5t19.5 -25.5t25.5 -20t26 -8 q12 0 21 7t18.5 15t19.5 15.5t25 7.5q51 0 51 -52q0 -29 -15.5 -46t-37 -27.5t-47 -14.5t-46.5 -4q-35 0 -65.5 16.5t-53 43t-36 59.5t-13.5 68z" />
<glyph horiz-adv-x="1355" d="M-109 489q8 -18 37 -25t70 -11q-12 -150 21.5 -279t142.5 -240q129 -129 304 -193.5t384 -64.5q141 0 298 30t294 108q43 25 87 51t56 76q4 20 -3 33.5t-30 13.5q-18 0 -45.5 -15.5t-57.5 -35t-57.5 -38t-45.5 -24.5q-109 -41 -227 -68.5t-222 -27.5h-23q-63 8 -133.5 16 t-139.5 22.5t-132 38t-113 62.5q-10 8 -34.5 32.5t-52 52.5t-53.5 52.5t-34 34.5q-4 2 -10 11.5t-10 13.5q-41 66 -52.5 152.5t-7.5 183.5h93h139h160h153q70 0 118 -1t58 -4q10 4 24.5 3.5t24.5 9.5q16 0 18.5 10t-2.5 23.5t-14.5 24.5t-15.5 15q-8 4 -16.5 9.5t-18.5 9.5 q-18 6 -96 11t-182.5 8t-220 1t-211.5 -10q4 23 7 45.5t7 44.5h90h141h162h154q72 0 122 -1t60 -3q10 4 24.5 3t24.5 9q16 0 18.5 10.5t-3 24t-14.5 24.5t-15 15q-8 4 -16.5 9.5t-18.5 9.5q-18 6 -94 11t-178.5 8t-217 1t-212.5 -10q29 102 64.5 206.5t88.5 202.5 q23 29 39 62t41 59q6 6 25.5 26.5t41 44t42 45.5t28.5 32q25 27 61 40t74.5 19t75.5 7t66 1q59 0 128.5 -2t121.5 -22q47 -18 91 -49t74.5 -71t44 -91t-0.5 -109q-12 -55 -45 -94t-76 -63.5t-93.5 -37t-99.5 -12.5q-23 0 -69 5.5t-91 19.5t-76.5 36.5t-23.5 57.5 q16 68 64.5 99.5t111.5 31.5h37q4 -4 12.5 -14t6.5 -21l-11 -8q-20 -10 -30.5 -17t-16.5 -30q-6 -29 8.5 -43t40.5 -14q41 0 78 28.5t47 71.5q10 41 1 73t-30.5 53.5t-54 31.5t-69.5 10q-51 0 -102.5 -19.5t-94.5 -53t-73.5 -77.5t-43.5 -96q-16 -72 14.5 -117.5t86 -72.5 t122 -37t121.5 -10q78 0 153 20.5t137.5 62.5t107.5 103.5t65 143.5q18 80 2 142t-54 111.5t-92 88t-110 69.5q-12 2 -42.5 7t-64.5 10.5t-66 10.5t-44 7h-65q-29 0 -68 -1t-79 -6t-78 -13.5t-64 -22.5q-113 -66 -196 -164t-142 -210.5t-98 -230.5t-64 -222 q-59 -10 -94 -24.5t-31 -35.5q8 -18 37 -25.5t68 -11.5q-6 -29 -11.5 -54.5t-9.5 -51.5q-55 -10 -88 -23.5t-29 -34.5zM807 557l16 -6q-12 4 -16 6zM840 758l16 -6q-12 4 -16 6z" />
<glyph horiz-adv-x="1384" d="M6 -119q0 -23 15.5 -37t37.5 -14q4 0 12.5 1t10.5 1t13 5t23.5 11.5t24 11.5t13.5 5q111 29 223.5 32t224.5 3h29q123 -16 249 -34t244 -59q25 -8 73 -24t97.5 -33.5t89 -32t50.5 -18.5q84 -31 167 -66.5t166.5 -70.5t168.5 -64.5t176 -50.5q104 -23 207.5 -28t207.5 -5 q135 0 256 40t213 145q23 25 37 53.5t14 62.5q0 51 -29.5 89t-73.5 61.5t-95 36t-94 14.5q-10 0 -30 -2t-42.5 -4t-42 -5t-27.5 -5q-37 -8 -60.5 -48t-23.5 -75q0 -37 32 -62.5t67 -25.5q23 0 38 7t15 34q0 18 -17.5 25t-17.5 26q0 20 17.5 23t33.5 3h21q8 0 43 -5t74.5 -15 t71.5 -26.5t32 -41.5q0 -31 -27.5 -59.5t-48.5 -44.5q-47 -37 -97 -56.5t-102.5 -26.5t-108.5 -8t-114 -1q-111 0 -218 10t-212 49q-8 2 -37.5 14.5t-63.5 27t-62.5 26.5t-37.5 14q-6 2 -25.5 8t-42 13.5t-42 13.5t-25.5 8q-49 18 -111.5 49t-121.5 51q-113 37 -225.5 72 t-225.5 70q-90 12 -175 24.5t-169 21.5t-170 12t-180 -3l8 16q156 141 290 308.5t269 326.5q2 2 5 6.5t6 6.5h258q14 0 24 17t10 30q0 16 -15 38.5t-36 22.5h-125l-8 15q-2 0 8.5 15t16.5 25q66 86 138.5 160t154.5 150q8 8 8 16v21q0 31 -17.5 43t-48.5 12q-41 0 -84 -6 t-84 -10q-20 0 -60 1t-91 1h-109h-108q-51 0 -92.5 -1t-59.5 -1q-10 0 -52 -3.5t-89 -6.5t-89 -5t-53 -2q-6 -2 -20 -2h-25q-18 0 -36.5 -2t-34 -8t-25.5 -18.5t-10 -32.5q0 -12 2 -34t8 -41.5t17.5 -33.5t31.5 -14q27 0 39 22.5t19 44.5q147 16 292.5 21.5t292.5 5.5h242 l5 -5t5 -3v-4v-4q-12 -16 -41.5 -53.5t-63.5 -78t-63.5 -77.5t-42.5 -52q-27 -33 -58.5 -48t-66 -20t-72.5 -3t-77 4q-10 -8 -18.5 -18.5t-8.5 -22.5q0 -20 13.5 -29.5t29.5 -13.5q6 0 21.5 -3t33 -6t33 -5t21.5 -2v-5v-4q-16 -43 -54 -87t-63 -70l-444 -478 q-4 -4 -16.5 -12t-16.5 -12l-25 -21q-14 -10 -30.5 -19t-29.5 -18.5t-22.5 -22.5t-9.5 -34zM512 1669q0 6 6 20.5t14.5 25.5t18.5 15.5t18 -10.5q14 -4 19.5 -16t15.5 -21q10 -29 43 -80t66 -106q10 -16 18 -32.5t19 -32.5q16 29 37.5 66.5t43.5 82.5q33 53 63 94t58 37 q31 -18 20 -72.5t-41 -115t-65 -113.5t-51 -70l6 7q-10 -10 -19 -15.5t-20 -11.5q-4 -2 -14 -4t-23 -2q-29 0 -36 12q-29 16 -60 54t-56.5 82t-46 87t-28.5 70v2q-2 2 -2 6q0 2 -2 4l2 -2q-2 10 -3 19.5t-1 19.5z" />
<glyph horiz-adv-x="843" d="M0 799q0 23 12.5 40t30.5 29h96q135 0 264 -11t265 -7q43 -10 53 -51q2 -35 -6 -55.5t-25.5 -34t-41 -22.5t-50.5 -19q-59 -23 -124.5 -79.5t-125 -126t-105.5 -144t-69 -136.5q0 -2 -1 -6t-1 -6q0 -16 7 -19.5t22 -3.5q111 0 209 6.5t215 2.5q39 2 55 13t26.5 24.5 t20.5 23.5t39 10q25 0 38 -10t20 -26.5t8.5 -37t1.5 -40.5q0 -41 -17.5 -73t-64.5 -32h-7q-78 16 -156.5 21.5t-158.5 5.5q-86 0 -167 -13.5t-167 -21.5q-29 -2 -54.5 23.5t-25.5 50.5q0 43 19.5 99t47.5 113.5t59.5 108.5t56.5 82q4 6 18 22.5t31.5 36t33 37t21.5 25.5 l62 61q10 10 27 31l16 21v10q-47 4 -94.5 15.5t-94.5 11.5q-53 0 -68.5 -16.5t-19.5 -37t-10 -37t-41 -16.5q-23 0 -33 8t-15 22.5t-8.5 32t-7.5 33.5q0 2 -3 13.5t-5 13.5q-2 6 -5 19.5t-3 15.5zM174 1272q0 6 6 20.5t14.5 25.5t18.5 15t18 -10q14 -4 19.5 -16.5 t15.5 -20.5q10 -29 43 -80t66 -106q10 -16 18 -32.5t19 -33.5q16 29 37.5 67t44.5 83q33 53 62.5 94t57.5 37q31 -18 20 -72.5t-41 -115t-64.5 -113.5t-51.5 -70l6 6q-10 -10 -19 -15t-20 -11q-4 -2 -14 -4t-22 -2q-29 0 -37 12q-29 16 -59.5 54t-56.5 82t-46.5 87t-28.5 70 v2q-2 2 -2 6q0 2 -2 4l2 -2q-2 10 -3 19.5t-1 19.5z" />
<glyph unicode="&#xa0;" />
<glyph unicode="&#xa1;" horiz-adv-x="344" d="M63 1208q10 20 22.5 43t39.5 27q10 12 21.5 6t21.5 -10q27 -10 33 -35t-1 -47.5t-26.5 -37.5t-44.5 -9l21 4q-14 -2 -32 -1t-32 8t-21.5 19.5t-1.5 32.5zM80 121q4 45 5 126t1 175t2 194.5t9 185.5t20.5 145.5t36.5 76.5q23 -4 40 -60.5t29.5 -141.5t18.5 -188.5 t7 -200.5t-2 -177t-11 -119l10 23q-20 -55 -35 -111q-6 -18 -24.5 -40.5t-38 -35t-35 -6.5t-15.5 43q-14 18 -13 53t-5 58z" />
<glyph unicode="&#xa2;" horiz-adv-x="837" d="M35 467q0 -49 15.5 -112.5t44 -122t70.5 -104.5t95 -60q4 -2 13.5 -4.5t19.5 -6.5q-29 -133 -45.5 -221t-5.5 -96q12 -18 27.5 -2t34 57t37.5 103.5t42 138.5q25 -6 45.5 -10t30.5 -7h53q31 0 80 5.5t97 20.5t83 41t35 67q0 20 -10.5 33.5t-32.5 13.5q-4 0 -10 -1t-9 -1 q-6 0 -26.5 -13.5t-24.5 -13.5q-53 -23 -93 -29t-97 -6q-53 0 -92 8q39 147 75.5 306t67.5 294q14 -12 26.5 -26t23.5 -28.5t20.5 -24t19.5 -9.5q35 0 46 28t11 56q0 49 -36.5 78t-85.5 45q18 78 31.5 131.5t17.5 63.5q2 10 7 24.5t1 28.5q4 14 -1 20.5t-14.5 8.5t-19.5 -2 t-14 -11q-8 -8 -16.5 -16t-14.5 -20l8 10q-8 -10 -25.5 -69.5t-41.5 -151.5q-16 2 -30.5 3t-25.5 1q-86 0 -160.5 -34t-129 -92.5t-86 -134t-31.5 -157.5zM147 479q0 51 24 104.5t63.5 94.5t90 67.5t103.5 26.5h39q-35 -135 -74 -292.5t-74 -305.5q-82 39 -127 115.5 t-45 189.5z" />
<glyph unicode="&#xa3;" horiz-adv-x="1417" d="M-72 -207q0 31 10.5 67t30 66.5t48 52t67.5 21.5h309q12 0 38 38t53.5 87t50 94t26.5 62q-14 0 -33.5 3t-38 11t-31 21.5t-12.5 33.5q0 12 7.5 27.5t23.5 15.5h139q8 0 23 31q10 20 20.5 42.5t14.5 31.5h-168q-4 0 -20.5 19.5t-22.5 29.5q0 2 -1 7t-1 7q0 12 7 27.5 t24 15.5h237l14 14q41 82 87.5 159t80.5 163q4 8 9.5 24.5t5.5 18.5t-5.5 7t-9.5 5q-4 2 -17 5.5t-30.5 8.5t-32 9t-18.5 6q-10 4 -31.5 17.5t-46 29.5t-46 30.5t-30.5 20.5q-10 18 -19 41t-9 45q0 16 12 28.5t29 12.5q16 0 44.5 -24.5t66.5 -53t83 -53t97 -24.5 q12 0 35.5 31.5t51 74.5t57.5 85t56 63q8 0 35 1t37 1q35 0 70.5 -9.5t63.5 -29t45.5 -50t17.5 -71.5q0 -78 -39 -122t-98.5 -66.5t-128 -27.5t-128.5 -5q-49 -88 -95 -184.5t-87 -188.5h223q16 0 23.5 -17.5t7.5 -31.5q0 -12 -7 -30.5t-24 -18.5h-280q-10 0 -17.5 -13.5 t-11.5 -31t-6 -35t-2 -25.5q59 0 119.5 7.5t119.5 7.5q23 0 44.5 -6.5t21.5 -36.5q0 -18 -11.5 -28.5t-26.5 -16t-31.5 -7.5t-28.5 -4q-16 -2 -56.5 -6t-85.5 -8t-85 -8t-54 -6q-47 -63 -88 -145.5t-82 -145.5q-2 -4 -7 -14.5t-5 -14.5q160 -74 311.5 -151.5t304.5 -169.5 q2 -4 19.5 -16.5t37 -28t36 -27.5t20.5 -14q2 -2 12 -6.5t15 -6.5q106 -41 215.5 -80t221 -68.5t224.5 -47t229 -17.5h31q25 0 50.5 1t47.5 1h33q55 14 109.5 40t99.5 64t72.5 88t27.5 113q0 20 -9 46t-24.5 48.5t-37 40t-43.5 23.5h-84q-41 0 -73 -7t-68 -7q-16 0 -28.5 12 t-12.5 31q0 20 24.5 44.5t46.5 24.5h223q41 0 75 -27.5t58.5 -67.5t38 -85t13.5 -80q0 -125 -74 -213t-180 -143q-4 -2 -16.5 -6t-25.5 -9t-26.5 -9.5t-15.5 -4.5l-29 -14h-39q-27 0 -58.5 -1t-59.5 -1h-39q-244 0 -470.5 60.5t-453.5 152.5q-18 6 -43 18.5t-49.5 27.5 t-45 32t-32.5 33q-59 31 -138 83t-166 102t-174 87t-159 37h-6q-59 -98 -135 -161.5t-189 -63.5q-35 0 -56.5 2t-36.5 11t-31.5 26.5t-41.5 46.5q0 8 -2 34.5t-2 34.5zM27 -197q0 -41 19.5 -54t59.5 -13q33 0 63 15.5t54.5 38t46 50t39.5 51.5l-28 15h-168 q-16 0 -31.5 -11.5t-28 -26.5t-19.5 -34t-7 -31zM1106 1075q25 0 63.5 3t74.5 14.5t62.5 33t26.5 60.5q0 33 -30.5 48t-61.5 15h-20q-18 -12 -38 -31.5t-37.5 -43t-28.5 -49t-11 -50.5z" />
<glyph unicode="&#xa4;" d="M-12 260q0 -23 14 -40t39 -17q18 0 53 1t70 9t60.5 24.5t25.5 47.5q0 14 -4 24t-4 25v2q57 -51 129.5 -80t158.5 -29q78 0 140.5 28t109.5 79q2 -12 1 -29.5t2 -32t11.5 -24.5t28.5 -10h131q18 0 30.5 20.5t12.5 36.5q0 31 -20.5 39t-40.5 24q-23 20 -43.5 44t-40.5 49 q4 8 5 15t5 15v117q0 49 1 88t-11 84q-12 51 -40 93t-64 77q12 8 30.5 13t33.5 10.5t26.5 13.5t11.5 24q0 39 -27.5 54.5t-60.5 15.5q-29 0 -56.5 -18.5t-56.5 -46.5q-94 47 -198 53q-10 0 -27.5 -5t-34 -11.5t-31 -11.5t-20.5 -7q-14 -4 -27.5 -9t-23.5 -9l-29 30 q-16 20 -44 23.5t-52 3.5q-33 0 -55.5 -14.5t-22.5 -49.5q0 -16 10 -26t24.5 -16.5t31 -11.5t28.5 -13q-23 -29 -37 -68t-30 -94q-10 -35 -14.5 -51.5t-4.5 -44.5q0 -137 66 -240q-23 -23 -45.5 -46t-44.5 -46q-37 -10 -58.5 -25.5t-21.5 -56.5zM219 688q0 117 65.5 178.5 t176.5 61.5q37 0 71.5 -15.5t71.5 -29.5q55 -20 86 -50t45.5 -69t16.5 -84t2 -94t-12.5 -94.5t-39 -79t-66.5 -53t-95 -19.5q-74 0 -134.5 27.5t-101.5 76t-63.5 110.5t-22.5 134z" />
<glyph unicode="&#xa5;" horiz-adv-x="1548" d="M31 -272q0 -68 32.5 -116t85 -81t119 -51.5t134 -28.5t129 -13t104.5 -3q104 0 205.5 10t184.5 48t137.5 110.5t64.5 199.5q0 6 1 22.5t2 40t2 49.5t1 50q63 2 115 2q53 0 86 -4q18 4 41.5 3t44.5 9q29 0 31.5 9.5t-6.5 21.5t-25.5 22.5t-26.5 14.5q-39 10 -88 20l29 -6 q-29 4 -81.5 8.5t-117.5 8.5q0 12 1 24.5t1 26.5q63 0 116.5 1t86.5 -3q18 4 41.5 3t44.5 9q29 0 32 9.5t-6.5 21.5t-26 22.5t-26.5 14.5q-39 10 -88 20l29 -6q-29 4 -83 8t-120 8q0 119 -1 251t0 263.5t4 253t9 218.5q0 4 2 22.5t5.5 40t6.5 39.5t3 22v142q8 14 8 26v27 q0 37 -24.5 47t-55.5 10q-29 0 -50.5 -8t-21.5 -43v-24q2 -4 9.5 -13.5t9.5 -13.5q6 -25 7 -55.5t1 -57.5v-41q0 -29 -3 -54t-9 -66v-703l-5 -6l-10 -10q0 -8 -8 -8q-31 -23 -70.5 -43.5t-70.5 -32.5q-12 -4 -29.5 -6t-36.5 -2h-61q-41 0 -80 6t-73 21.5t-59.5 43 t-37.5 70.5q-16 53 -24.5 121.5t-8.5 124.5q0 92 4 178t4 178v125q-6 49 -22.5 101.5t-44 95.5t-68.5 70.5t-98 27.5q-47 0 -94 -19.5t-86 -52.5t-63.5 -78t-24.5 -94q0 -35 15 -63.5t41 -50t56.5 -34t61.5 -12.5q25 0 47 7.5t22 37.5q0 29 -18.5 39.5t-41 17.5t-40.5 17 t-18 39q0 25 12 46.5t31.5 37.5t43 25.5t48.5 9.5q27 0 50 -17.5t39.5 -43t26 -54.5t9.5 -53v-559q10 -68 19 -128.5t30.5 -111.5t62.5 -92t113 -68q86 -35 166 -34q45 0 91 5t87 21q27 10 48.5 33t49.5 23l-2 -132q-70 0 -136 -4t-117.5 -12t-80 -23.5t-22.5 -35.5 q8 -10 36.5 -17.5t69.5 -11.5t92.5 -5t104.5 -1h51v-49q-70 0 -137.5 -4t-118.5 -12.5t-80.5 -24t-23.5 -35.5q8 -10 36.5 -17.5t69.5 -11.5t92.5 -5t104.5 -1h55v-127q0 -27 -7 -59.5t-20.5 -64t-32 -59.5t-38.5 -42q-53 -18 -99.5 -31.5t-91.5 -21t-93 -11.5t-103 -4 q-25 0 -71 1t-99 7.5t-109.5 17.5t-101.5 31.5t-74 50.5t-29 75q0 57 48.5 93t114 54t133 24.5t106.5 6.5h33q31 0 66.5 -6.5t35.5 -28.5q0 -27 -20.5 -36t-44 -15t-44 -16.5t-20.5 -37.5q0 -29 25.5 -38t48.5 -9q29 0 60.5 9.5t58 28t44 45t17.5 61.5q0 43 -22.5 73.5 t-56.5 49t-75 27.5t-75 9q-66 0 -159 -12t-180 -44t-148.5 -89t-61.5 -147z" />
<glyph unicode="&#xa6;" horiz-adv-x="249" d="M54 439.5q-1 58.5 2 104.5t7 64l-8 -12q6 12 11.5 25.5t11.5 25.5q4 6 16 16.5t24.5 16.5t23 4t10.5 -18q10 -8 9 -24.5t3 -27.5q0 -6 -1 -33.5t-1 -68.5t-1 -87t-1 -87v-70v-35q0 -49 -4 -96t-39 -65q-16 2 -27.5 36.5t-19 89t-11.5 119t-5 123zM54 1229.5 q-1 58.5 2 105t7 64.5l-8 -13q6 12 11.5 25.5t11.5 26.5q4 6 16 16t24.5 16.5t23 4.5t10.5 -19q10 -8 9 -24.5t3 -26.5q0 -6 -1 -34t-1 -68q0 -41 -1 -87.5t-1 -87.5v-69v-35q0 -49 -4 -96t-39 -66q-16 2 -27.5 37t-19 89t-11.5 118.5t-5 123z" />
<glyph unicode="&#xa7;" horiz-adv-x="839" d="M92 499q6 -46 22.5 -86t38 -71t37.5 -45q16 -12 34 -21.5t36 -19.5q14 -6 54 -23.5t85 -36t84 -36t54 -23.5q16 -12 30.5 -28.5t7.5 -45.5q-6 -27 -27.5 -44t-41.5 -19l-49 10q-78 16 -141.5 50t-135.5 77q-2 -12 -10 -20t-12 -19h-6q-4 -27 -7.5 -62.5t13.5 -51.5h6v-9 q0 -6 6 -4h6v-6h12q66 -16 124.5 -53t127.5 -53q100 -23 167 20t98 178q20 94 -20 145.5t-107 86.5q20 31 35.5 44t30.5 22.5t31.5 22.5t35.5 44l43 113q2 25 3 43t2 35.5t2 36t5 42.5l-55 86q-16 10 -24.5 19.5t-13.5 16.5t-10.5 11t-17.5 9q-16 10 -32.5 20t-34.5 18 q-16 6 -55.5 23.5t-84.5 37t-84 37t-53 23.5q-16 10 -30.5 27.5t-8.5 46.5q6 25 27.5 43t42.5 20l49 -10q78 -18 141.5 -51t134.5 -78q6 2 7 6q0 6 6 11v6h6q-4 6 3 8t3 8q-2 4 6 12v37q0 20 -6 33q4 6 -3 9t-3 9h-6q2 10 -5.5 17.5t-5.5 17.5h-6v9q0 4 -6 2h6 q-66 16 -126 47.5t-130 48.5q-100 20 -166.5 -23t-97.5 -176q-10 -47 -5 -83t22.5 -63.5t45 -48t62.5 -36.5q-53 -29 -93 -85.5t-63 -156.5l-2 -8q-14 -47 -8 -93zM213 522l12 51q8 35 33 74t56.5 68.5t66.5 44t61 0.5l148 -80q27 -33 35 -72l-13 -51q-10 -49 -56 -90 t-101.5 -63.5t-107.5 -21.5t-79 36l-22 33q-27 27 -33 71z" />
<glyph unicode="&#xa8;" horiz-adv-x="464" d="M50 1348.5q7 27.5 46 68.5l-12 -8q10 10 21.5 18.5t21.5 16.5q6 6 21.5 10t28.5 2t21.5 -8t2.5 -21q4 -12 -3.5 -26.5t-9.5 -24.5q-18 -25 -26 -41t-17.5 -25.5t-22.5 -12.5t-40 -3q-39 27 -32 54.5zM253 1346.5q7 27.5 46 68.5l-12 -8q10 10 21 18.5t22 16.5 q6 6 21.5 10t28.5 2t21.5 -8t1.5 -21q4 -12 -3 -26.5t-9 -24.5q-18 -25 -26.5 -41t-17.5 -25.5t-22.5 -12.5t-39.5 -3q-39 27 -32 54.5z" />
<glyph unicode="&#xa9;" horiz-adv-x="1263" d="M18 1067q0 20 1 35.5t4.5 30t9.5 32t14 41.5q25 86 49.5 145.5t62.5 101.5t93 70.5t141 57.5q8 2 29.5 10t48.5 17.5t52.5 16.5t41.5 7q100 -6 198.5 -36.5t182.5 -84t145.5 -130t86.5 -175.5q16 -66 15 -123t-1 -129v-172q-55 -170 -187.5 -271t-318.5 -101 q-141 0 -263 51t-212 140t-141.5 209t-51.5 257zM160 1106q0 -115 38 -219.5t109.5 -182t172 -123.5t227.5 -46q94 0 162.5 31.5t113.5 87t66.5 128t21.5 156.5q0 82 -9 154.5t-36 134t-78 112t-133 86.5q-59 29 -120.5 50.5t-123.5 21.5q-184 0 -295.5 -105.5 t-115.5 -285.5zM268 1059q0 -41 12.5 -93.5t37 -100.5t59.5 -86t78 -50q8 -4 31.5 -9t50 -11.5t49 -11.5t32.5 -7h46q25 0 65.5 4t79.5 16.5t67.5 34t28.5 56.5q0 16 -7 27.5t-28 11.5q-4 0 -8 -1t-6 -1q-6 0 -22.5 -11.5t-20.5 -11.5q-45 -18 -78 -23.5t-80 -5.5 q-135 0 -215 73t-80 210q0 43 20.5 86t53.5 78t75 56.5t85 21.5q18 0 41.5 -1t40.5 -7q14 -6 28.5 -19.5t25.5 -29t21.5 -26.5t20.5 -11q29 0 38 22.5t9 46.5q0 35 -23.5 58.5t-57 37t-70.5 18.5t-64 5q-72 0 -132 -28.5t-106.5 -76t-72 -110.5t-25.5 -131z" />
<glyph unicode="&#xaa;" horiz-adv-x="720" d="M53 1071q0 -25 18.5 -34t41.5 -9h28q16 0 29.5 9.5t13.5 29.5q0 14 -9 22.5t-9 22.5q0 25 11 45.5t22 40.5q14 25 27 48l12 24l24 6h55q49 0 87 -1t88 -5q25 -18 41 -57t29 -77t29.5 -67t41.5 -29q16 0 30.5 8.5t14.5 28.5q0 16 -8 34.5t-17 35.5q-41 88 -89 171t-93 171 q-6 10 -13 17t-7 20q0 16 13 22t13 23q0 20 -13 30.5t-32.5 13.5t-40 2t-35.5 -1q-12 0 -28.5 -1t-31.5 -4t-28.5 -9.5t-17.5 -16.5q6 -29 -2 -64.5t-22.5 -71.5t-31 -71t-28.5 -59q-4 -4 -14.5 -26.5t-22.5 -48t-21.5 -48t-11.5 -27.5q-4 -4 -11 -23.5t-7 -23.5 q-6 -16 -15.5 -25.5t-9.5 -25.5zM272 1368q0 16 9.5 34.5t20.5 39t21.5 40t14.5 38.5h12l8 -12q7 -13 18 -30.5t22.5 -36t17.5 -30.5q4 -4 12 -21.5t12 -25.5l-12 -4h-137q-2 0 -7 2t-10 2z" />
<glyph unicode="&#xab;" horiz-adv-x="1671" d="M-37 643q0 35 7 57.5t36 42.5q4 2 29 2h28q37 0 71 -11t66.5 -24.5t66.5 -24.5t71 -11q33 0 50.5 10t53.5 33q18 12 57.5 36.5t87.5 54.5t101 63.5t101.5 63.5t86 53.5t56.5 35.5q4 8 38 28.5t74.5 43t76.5 40t42 17.5q20 0 35.5 -11t15.5 -34t-46 -59.5t-105 -74.5 t-117.5 -71t-83.5 -47q-8 -4 -29.5 -17.5t-46 -28.5t-47 -30.5t-30.5 -21.5q-2 0 -7.5 -6.5t-7.5 -8.5q-8 -4 -38.5 -22.5t-66.5 -40t-66.5 -39.5t-39.5 -23l-14 -14q16 -25 73.5 -59.5t126 -68.5t135 -63.5t101.5 -45.5q16 -8 58.5 -31t88.5 -47.5t88 -47t58 -30.5 q31 -16 31 -41q0 -27 -18.5 -36t-39.5 -9q-4 0 -14 1t-14 1q-12 6 -40 19.5t-59.5 28.5t-59.5 29.5t-38 20.5q-27 12 -77 40t-112.5 62.5t-130 71.5t-129 67t-107.5 49.5t-66 19.5q-43 0 -83 -14.5t-85 -14.5q-37 0 -72 5t-61.5 19.5t-43 42t-16.5 70.5zM63 647l15 -29 l84 -14v6q0 10 -21.5 18.5t-40 13.5t-22.5 5h-8h-7zM725 555q6 35 6 55q0 23 8.5 40.5t31 37t73.5 49.5q18 12 57 37t87 54.5t101.5 63.5t101.5 63.5t86 53t56 35.5q4 8 38 29t75 43.5t77 40t42 17.5q20 0 35.5 -11.5t15.5 -34.5t-46 -59.5t-105.5 -74.5t-118 -70.5 t-82.5 -46.5q-8 -4 -30 -17.5t-46.5 -29t-47 -31t-30.5 -21.5q-2 0 -7 -6t-7 -8q-6 -4 -37 -22.5t-67 -40t-67.5 -40t-39.5 -22.5l-15 -14q16 -25 73.5 -60t126.5 -68.5t135.5 -63.5t101.5 -46q16 -8 58 -30.5t88 -47t88 -47t58 -31.5q31 -16 31 -41q0 -27 -18.5 -36 t-38.5 -9q-4 0 -14.5 1t-14.5 1q-12 6 -39.5 19.5t-59.5 29t-59.5 30t-37.5 20.5q-39 18 -100.5 49t-130 64.5t-139.5 67.5t-127 61.5t-91 46t-35 20.5z" />
<glyph unicode="&#xac;" horiz-adv-x="653" d="M43 573q10 -25 61.5 -31.5t112.5 -6.5h57q39 0 81 1t77 1h53l-2 -2q4 -16 -1 -32t-3 -32q-4 -10 0 -16t10.5 -10.5t12.5 -8.5t6 -12q14 4 10 -10h6q4 -8 11.5 -7t13.5 1q33 20 40 47.5t5 68.5l4 23q6 35 1 51t-15 23q-8 4 -16.5 9t-18.5 9q-18 6 -64.5 11t-103.5 7 t-118.5 -1t-112 -12t-81 -26.5t-26.5 -44.5zM532 645l17 -6q-12 4 -17 6z" />
<glyph unicode="&#xad;" horiz-adv-x="616" d="M76 557q-4 27 18.5 44t59 26.5t83 12.5t91.5 1t82 -7t55 -11l-16 6q31 -10 51 -25q6 -4 15 -15t14.5 -24.5t3 -24t-18.5 -10.5q-10 -10 -24.5 -9t-24.5 -3q-31 4 -91.5 2t-123.5 -2q-61 0 -112.5 7t-61.5 32z" />
<glyph unicode="&#xae;" horiz-adv-x="1304" d="M47 1165q0 -137 51.5 -257t141.5 -209t211.5 -140t263.5 -51q186 0 318 101.5t188 271.5v172q0 72 1 129t-16 123q-25 98 -86 174.5t-145 130t-182.5 84t-198.5 37.5q-16 0 -42 -7.5t-52.5 -16.5t-48 -17.5t-29.5 -10.5q-86 -29 -141.5 -57.5t-93 -70.5t-62.5 -101 t-49 -145q-8 -25 -14.5 -42.5t-9.5 -31.5t-4 -30t-1 -36zM188 1204q4 180 116 285.5t296 105.5q61 0 122.5 -21.5t121.5 -49.5q82 -37 133 -87.5t77.5 -111.5t36 -134t9.5 -155q0 -72 -15 -127q-8 2 -16 2t-12 2q-4 0 -18.5 1t-31 2.5t-30.5 2.5t-21 1q-14 10 -41.5 33.5 t-54 51t-46 51t-19.5 34.5q0 2 1 3l1 1q14 10 20 12t10 2q6 0 15.5 1t25.5 7q59 20 85 63.5t26 100.5q0 59 -24.5 91t-63.5 48.5t-85 21.5t-89 9q-4 0 -17.5 2t-28 5t-27.5 6t-15 3h-84h-123q-66 0 -121 -16q-4 -2 -9 -7l-5 -5v-54l5 -5l9 -9q14 -10 34.5 -11t31.5 -3 q27 -72 24.5 -149t-2.5 -152q0 -8 -1 -19.5t-1 -13.5q0 -14 -2 -36.5t-4 -43t-4 -36.5l-2 -15l-45 -45l-1 -8q-1 -7 -1 -11t-1 -8t1 -8q-68 78 -104 179.5t-36 213.5zM362 776q6 0 15.5 -1t13.5 -1q29 0 55.5 7t36.5 36q0 14 1 48t3 72t3.5 71.5t1.5 48.5v16 q0 66 -8.5 133.5t-8.5 132.5q0 4 -1 13.5t9 11.5h103q6 0 30.5 -2t53 -4t56.5 -4t42 -4t32.5 -5.5t34 -9.5t25.5 -17t10 -32q0 -33 -15 -51t-38.5 -27.5t-52.5 -11.5t-55 -2q-16 0 -28.5 5t-25 11.5t-25 11.5t-30.5 5q-25 0 -45 -5t-20 -38q0 -16 7 -25.5t18 -14.5 t23.5 -10.5t22.5 -11.5q59 -55 111.5 -112.5t107.5 -118.5q23 -25 38.5 -50.5t47.5 -37.5h136q-43 -78 -119 -124t-193 -46t-210 38t-163 105z" />
<glyph unicode="&#xaf;" d="M78 1518q-4 27 53 44t147.5 25t199 10t205.5 0t170 -7t91 -11l-16 6q31 -10 51 -24q6 -4 15.5 -15.5t14.5 -25t3 -23.5t-19 -10q-10 -10 -24.5 -9t-24.5 -3q-10 2 -59 3t-121 1h-152h-153h-129h-78q-61 0 -112.5 7t-61.5 32z" />
<glyph unicode="&#xb0;" horiz-adv-x="370" d="M51 1468q0 51 36 93.5t97 42.5q12 0 35 -7.5t44.5 -17.5t37.5 -25.5t16 -29.5l9 -111q0 -12 -15.5 -29.5t-36 -33t-41 -26.5t-26.5 -11q-33 0 -61.5 13t-49 34.5t-33 50t-12.5 57.5zM145 1466q0 -23 16.5 -42t41.5 -19q2 0 9 4t15.5 10t13.5 12.5t5 12.5l-2 45 q0 12 -19.5 21.5t-29.5 9.5q-23 0 -36.5 -15.5t-13.5 -38.5z" />
<glyph unicode="&#xb1;" horiz-adv-x="530" d="M20 365q-4 27 18.5 44t59.5 26t83 12.5t91 1t82.5 -7.5t55.5 -11l-17 6q31 -10 51 -24q6 -4 15.5 -15.5t14.5 -25t3 -23.5t-18 -10q-10 -10 -24.5 -9t-24.5 -3q-31 4 -91.5 2t-123.5 -2q-61 0 -112.5 7t-62.5 32zM45 723q10 -25 59.5 -32t108.5 -7v-61q0 -37 -2 -43 q4 -10 3 -24.5t9 -25.5q0 -16 10.5 -18t22.5 3t24.5 14.5t16.5 15.5q14 20 25 51l-7 -16q4 16 8.5 42.5t8.5 63.5h59q37 0 43 -2q10 4 24.5 3t24.5 9q16 0 18.5 10.5t-2.5 22.5t-14.5 24.5t-15.5 16.5q-8 4 -16.5 9t-18.5 9q-20 4 -44.5 8.5t-57.5 8.5q-4 68 -22.5 119 t-59.5 45q-25 -10 -32 -57.5t-7 -106.5q-70 -4 -121 -22.5t-45 -59.5zM418 795l16 -7q-12 2 -16 7z" />
<glyph unicode="&#xb2;" horiz-adv-x="647" d="M66 1051q0 -10 5 -15.5t9 -11.5q4 0 8 -1t8 -1q18 0 44 22.5t38 36.5h10h11q37 0 60.5 -15t51.5 -34q12 -8 36 -20.5t26 -12.5h102q4 6 10 7q8 0 15 4q18 6 37.5 18t33.5 27q10 16 11.5 26.5t11.5 22.5v61q0 18 -18.5 27.5t-28.5 19.5h-58q-4 0 -14 -5t-16 -9 q-16 -10 -19.5 -19.5t-3.5 -27.5v-21q4 -10 11.5 -12t17.5 -2h14q8 4 10.5 11.5t5.5 14.5t7 12t14 5q25 0 25 -26q0 -27 -17.5 -43.5t-42.5 -26.5q-4 -2 -12 -2t-10 -6h-66l-11 5t-20 9q-23 10 -40 26.5t-37 24.5q-14 6 -25 6q-10 0 -20 15q0 4 4 4q88 57 145 134 t75.5 148.5t-6 125t-100.5 65.5q-2 0 -4 2l-2 2h-63q-16 -10 -31 -10q-20 0 -31 -4q-16 -8 -30.5 -20.5t-26.5 -22.5q-31 -25 -45 -49.5t-14 -67.5v-14q0 -14 2 -15q6 -16 13 -24.5t14 -13.5t14.5 -8t11.5 -9q0 -2 14 -2h13h24q14 0 23 10l39 37v12q0 23 -13.5 43.5 t-42.5 20.5q-12 0 -19 -9.5t-7 -19.5t8 -14t8 -15v-4q-8 -2 -11 -3t-9 -1q-12 0 -20.5 11.5t-8.5 21.5q0 25 16.5 46.5t41 36.5t51 24.5t49.5 9.5q49 0 70.5 -22.5t21.5 -57.5t-17.5 -79t-45 -85t-62.5 -77t-72 -54q-41 -35 -79 -64.5t-72 -68.5v-10z" />
<glyph unicode="&#xb3;" horiz-adv-x="634" d="M70 1143q0 23 10 51.5t41 28.5q10 0 20.5 -8.5t10.5 -20.5q0 -14 -8.5 -24.5t-8.5 -24.5q0 -8 7.5 -21.5t16.5 -26t20 -23.5t18 -15q12 -8 41.5 -19.5t44.5 -17.5h28q47 0 85 16.5t65 57.5q8 14 12 30.5t14 30.5v74q-6 6 -6 18q0 8 -1 12.5t-1 8.5q-8 27 -32.5 42 t-53.5 15q-27 0 -55.5 -6t-54.5 -14q-14 -4 -25.5 -9.5t-26.5 -5.5q-14 0 -26 7.5t-12 23.5q0 18 23.5 40.5t55 46.5t61 44.5t42.5 34.5q8 10 20.5 23.5t12.5 15.5v4h-215q-2 -8 -4.5 -20.5t-6.5 -23.5t-11 -19.5t-19 -8.5q-20 0 -35 19v20q0 16 3 31.5t3 34.5v32q-6 2 -6 9 v10q0 12 9 20.5t21 8.5q16 0 32 -14.5t14 -31.5h303q4 0 11 -8t7 -12l1 -5t1 -9q0 -20 -11 -30.5t-18 -27.5l-102 -106v-4q27 -2 51.5 -11.5t50.5 -13.5l18.5 -18.5l18.5 -18.5q20 -23 17.5 -45t11.5 -45v-110q-8 -10 -7 -15.5t-3 -17.5q-6 -16 -19.5 -38t-31 -42.5 t-37 -35.5t-33.5 -19q-12 -4 -29.5 -3t-32.5 -8h-106q-16 0 -41 13.5t-49.5 32t-45 38t-28.5 33.5q-8 10 -9 20.5t-9 20.5q0 4 -1 14.5t-1 14.5z" />
<glyph unicode="&#xb4;" horiz-adv-x="483" d="M60.5 1410q-5.5 9 7.5 20q0 16 13 23t17 17q25 16 71 57.5t93 82.5q47 39 91 66.5t67 17.5q33 -29 6 -75t-76 -94t-104 -86t-82 -46l16 6q-16 -8 -28.5 -10.5t-24.5 -6.5q-8 0 -22.5 3.5t-26.5 9.5t-17.5 15z" />
<glyph unicode="&#xb5;" horiz-adv-x="942" d="M10 -565q0 -27 27 -45q47 -2 110.5 -10.5t116.5 -8.5q29 0 45.5 17.5t16.5 42.5q0 27 -11.5 37t-27 13t-31.5 7t-27 20q0 6 -2 44t-3 85.5t-3 90.5t-2 57v188v103q10 -4 19.5 -8.5t19.5 -8.5q63 -23 116.5 -37t119.5 -14q53 0 101 21.5t83 21.5q12 0 19.5 -7t16.5 -14 t21.5 -14.5t32.5 -7.5q16 0 39.5 2t45 8.5t37 19.5t15.5 36q0 25 -10 35t-23.5 17l-27 14t-19.5 24q-16 43 -20 89t-4 93q0 20 -1 71.5t-1 108.5t1 107.5t1 71.5q-2 12 -4 35.5t-9.5 47t-20.5 41t-38 17.5q-29 0 -58.5 -17.5t-29.5 -50.5q0 -14 6 -22t12.5 -16.5t12.5 -17.5 t6 -26q0 -18 -1 -64t-1 -97t1 -97.5t1 -64.5q0 -4 1 -16.5t3 -27t3 -27.5t1 -15v-15q0 -31 -18.5 -58.5t-48 -48t-68.5 -33.5t-80 -15t-88 15.5t-87 54t-65.5 94t-25.5 133.5q4 86 30.5 165.5t57.5 161.5v21q0 29 -13.5 55.5t-48.5 28.5q-14 -2 -41.5 -5t-55.5 -10.5 t-48 -23.5t-20 -43q0 -35 24.5 -47t52.5 -12v-9q-29 -104 -47 -239t10 -307v-596q0 -29 -15 -40.5t-32.5 -20.5t-33 -20.5t-15.5 -37.5z" />
<glyph unicode="&#xb6;" horiz-adv-x="972" d="M6 1391q18 -49 51 -87t74 -67t89 -49.5t95 -34.5q6 -8 15.5 -6t13.5 -6q16 4 28.5 -4.5t28.5 -12.5q0 -41 1 -96t1 -119v-198q0 -104 -1 -195.5t-1 -165.5v-108q0 -98 -2 -157.5t2 -102.5q0 -16 6.5 -23.5t11.5 -11.5t7 -6t-4 -4l43 14q12 4 22.5 3t19.5 -2t14 2t7 15 q4 25 5.5 47.5t-1.5 42.5v84l-2 410l-2 225v363q0 121 -2 218t0 195h64h45q-2 -12 0 -18l2 -6q4 -16 7 -52t3 -75v-199q0 -14 -2 -16q0 -37 1 -114t1 -171v-198q0 -104 -1 -195.5t-1 -165.5v-108q0 -98 -2 -158t2 -103q0 -16 6 -23t11.5 -11t7.5 -6.5t-4 -4.5l43 15 q12 4 22 3t19.5 -2t14.5 2t7 15q4 25 5 47.5t-1 42.5v84l-2 410l-2 225v363q0 123 -2 222t0 199q29 2 52.5 1t39.5 -3q10 4 24.5 3t24.5 10q16 0 18.5 10t-2.5 23.5t-14.5 24.5t-15.5 15q-8 4 -16.5 9.5t-18.5 9.5q-16 4 -43.5 8t-63.5 7t-75 3q-37 0 -74 -4q-41 4 -88 4 t-90 -6q-2 2 -4 2t-4 4q-14 -2 -26.5 1t-26.5 3q-68 14 -137.5 0t-123 -54t-83 -100.5t-17.5 -135.5zM682 1665l16 -6q-12 4 -16 6zM846 1665l16 -6q-12 4 -16 6z" />
<glyph unicode="&#xb7;" horiz-adv-x="350" d="M108.5 605.5q-4.5 19.5 34.5 60.5l-12 -9q10 10 21.5 18.5t21.5 16.5q6 6 21.5 8t31 -4t24.5 -24.5t1 -55.5q-14 -18 -21.5 -29.5t-13.5 -17.5t-11 -8t-16 -2h-38q-39 27 -43.5 46.5z" />
<glyph unicode="&#xb8;" horiz-adv-x="634" d="M31 -660.5q-2 -21.5 7 -44t28 -32.5v-6q8 -4 31.5 -15.5t101.5 -32.5q33 -18 63.5 -10t65.5 10l45 13q27 14 44 23.5t28.5 15.5t17.5 8t10 4q-4 6 3 9t3 9q20 25 32.5 55.5t12.5 63.5q0 31 -10 60.5t-35 48.5l-123 82q-4 2 -9 0t-3 4h-6v6q-10 0 -10 10q0 8 -6 14 q-2 4 0 11.5t-7 5.5q6 49 7.5 65.5t2.5 20.5t3 8t6 29q2 4 0 13t4 9v6q4 2 6 -1t6 -7h-151q4 -66 0 -128t-13 -120h7v-6h6v-6q6 -2 11 -4t16.5 -5t32 -8t56.5 -12q6 4 9.5 -3t9.5 -3q25 -2 30 -15t15 -32q4 -35 -5 -61.5t-36 -42.5q-4 -14 -19.5 -17.5t-25.5 -11.5 q-29 -6 -52.5 0t-45 18.5t-42 25.5t-40.5 20q-6 -4 -9.5 3t-9.5 3q-31 2 -46 -13.5t-17 -37z" />
<glyph unicode="&#xb9;" horiz-adv-x="512" d="M29 1040q0 -6 4 -16t14 -10h137l9 4h194q4 -4 12 -4h15h14q20 14 21 28q0 8 -10.5 20.5t-22.5 12.5h-150v6q0 10 1 34t2 81t5.5 161.5t10.5 278.5q0 10 -14.5 17.5t-24.5 7.5q-16 0 -29.5 -10.5t-9.5 -26.5q-6 -8 -24.5 -28.5t-24.5 -28.5q-2 -4 -24.5 -21.5t-27.5 -21.5 q-8 -6 -9 -9.5t-1 -11.5q0 -10 10.5 -17t22.5 -7q23 0 45.5 19.5t38.5 29.5h4l-14 -451q-25 0 -39 -8h-111q-10 0 -17 -12.5t-7 -16.5z" />
<glyph unicode="&#xba;" horiz-adv-x="534" d="M43 1249v88q10 10 11 32t5 34q20 59 54 113.5t88 89.5q12 8 14 10t12 2h6q2 0 3 -2l28 -27h60q8 -10 18 -10t20 -8q29 -20 56.5 -53t38.5 -68q8 -23 11 -47.5t13 -46.5v-84q-8 -10 -11 -37t-5 -39q-4 -16 -15.5 -38.5t-24.5 -44t-29.5 -39t-33.5 -23.5q-6 -2 -20 -3 t-18 -10h-111q-16 8 -34.5 9.5t-33.5 11.5q-12 10 -28.5 26.5t-29.5 35t-23.5 38t-12.5 37.5q0 4 -2 22.5t-2 22.5t-4 8zM98 1264q2 0 3 -4l1 -3q0 -4 2 -21t2 -19q2 -10 9.5 -28t17.5 -35t22.5 -31.5t24.5 -18.5q2 0 12.5 -1t10.5 -3q14 0 24 -10h76q10 6 21.5 9t21.5 13 q25 29 44.5 61.5t23.5 73.5l4 2q2 20 5 32.5t3 35.5v10q0 12 -2 14q-10 12 -13 41t-10 45q-6 18 -18 30.5t-21 29.5q0 4 -2 6t-2 4q-16 16 -32.5 26.5t-40.5 10.5h-13q-2 -14 -5 -24.5t-3 -22.5q0 -16 8.5 -25.5t17.5 -16.5t17 -15.5t8 -22.5q0 -10 -8 -15.5t-18 -5.5h-4 q-2 0 -4 2.5t-5 2.5q-20 8 -29 13t-13.5 12t-9.5 16.5t-15 25.5v62q4 8 4 20q-12 0 -27.5 -20.5t-31 -47t-26.5 -52t-13 -34.5q-4 -10 -7.5 -36.5t-9.5 -32.5v-53z" />
<glyph unicode="&#xbb;" horiz-adv-x="1712" d="M41 1161q0 27 18.5 36t38.5 9q4 0 14.5 -1t14.5 -1q12 -6 40 -19.5t59.5 -28.5t59 -29.5t38.5 -20.5q39 -20 100 -50t130 -64t139.5 -67.5t127 -61t91 -46t34.5 -20.5q-6 -35 -6 -58q0 -20 -8 -37.5t-30.5 -37t-74.5 -50.5q-18 -12 -57 -36.5t-87 -54t-101.5 -63.5 t-101.5 -63.5t-86 -53.5t-56 -36q-4 -8 -38 -28.5t-75 -43t-76.5 -40t-42.5 -17.5q-20 0 -35.5 11t-15.5 34t46 59.5t105.5 74.5t118 71t83.5 47q8 4 29.5 17.5t46 29t46 30.5t31.5 21q2 0 7 6.5t7 8.5q8 4 39 22.5t67 40t66.5 40t38.5 22.5l15 14q-16 25 -73.5 59.5 t-126.5 68.5t-135.5 63.5t-100.5 46.5q-16 8 -58.5 30.5t-88.5 47t-88 47t-58 30.5q-31 14 -31 41zM442 1182q0 27 18.5 36t39.5 9q4 0 14 -1t14 -1q12 -6 40 -19.5t59.5 -29t59.5 -29.5t38 -21q25 -12 76 -39.5t113.5 -62.5t130 -72t129 -66.5t107.5 -49t67 -19.5 q43 0 82.5 14.5t85.5 14.5q37 0 71.5 -5t61 -19.5t43 -42t16.5 -70.5q0 -35 -7 -57.5t-36 -43.5q-4 -2 -29 -2h-28q-37 0 -71 11.5t-66.5 24.5t-66.5 24.5t-71 11.5q-33 0 -50 -10.5t-54 -32.5q-18 -12 -57 -37t-87.5 -54.5t-101.5 -63.5t-101 -63.5t-86 -53t-57 -35.5 q-4 -8 -37.5 -28.5t-74.5 -43.5t-77 -40t-42 -17q-20 0 -35.5 11t-15.5 34t46 59.5t105.5 74.5t117.5 70.5t83 47.5q8 4 29.5 17t46 28.5t46 31t32.5 21.5q2 0 7 6t7 8q8 4 39 22.5t66.5 40t66.5 40t39 22.5l14 15q-16 25 -73.5 59.5t-126 68t-135 63.5t-101.5 46 q-16 8 -58 30.5t-88.5 47t-88.5 47.5t-58 31q-31 14 -31 41zM1509 741q0 -10 21.5 -18t40 -13t22.5 -5h9h6l-15 28l-84 15v-7z" />
<glyph unicode="&#xbc;" horiz-adv-x="1093" d="M10 29q10 -33 58.5 -9.5t119 84t157.5 149.5t177 187.5t178 197.5t159 180t120 135.5t61 62.5q6 10 18.5 19t14.5 24q10 10 6 19t-16 16.5t-27.5 9.5t-23.5 0q-12 -4 -25.5 -7t-28.5 -10l15 5q-12 -6 -62.5 -52.5t-122 -119t-159.5 -164.5t-176 -188.5t-171 -189.5 t-145.5 -168t-97.5 -124t-29 -57zM37 719q0 -6 4 -15.5t14 -9.5h135l11 4h192q4 -4 13 -4h14h14q20 12 21 29q0 8 -10.5 19.5t-22.5 11.5h-150v8q0 10 1 32.5t2 80t5.5 162t10.5 276.5q0 10 -13.5 16t-23.5 6q-16 0 -29.5 -10t-9.5 -27q-6 -6 -24.5 -27.5t-24.5 -27.5 q0 -2 -8 -8t-17.5 -14.5t-17.5 -14.5t-10 -6q-8 -8 -9 -22q0 -10 9.5 -16.5t21.5 -6.5q23 0 46.5 18.5t39.5 28.5h4l-14 -446q-25 0 -39 -8h-111q-10 0 -17 -11.5t-7 -17.5zM582 309q0 16 11 26.5t21 22.5q27 29 51.5 63t24.5 71v14q0 4 -2 4t-7 -2t-7 -2h-8q-10 0 -22.5 10 t-12.5 16q0 23 24.5 34.5t44.5 11.5q16 0 37 -10.5t21 -26.5v-86q-10 -10 -11.5 -21.5t-9.5 -23.5q-6 -16 -30.5 -37t-24.5 -39h172v61l10 6v78l-6 6v43q0 10 12.5 15.5t22.5 5.5t22.5 -9.5t12.5 -19.5v-137l-4 -8v-45h137q10 0 15 -11.5t5 -15.5q0 -6 -8 -14t-12 -8h-148 q0 -8 -1 -22.5t-3 -18.5l-2 -4q-2 -3 -6 -5v-202q0 -4 -11 -11.5t-20 -7.5q-4 0 -17 4t-13 11v225q6 8 4 14t-2 17h-244q-6 0 -11 11t-5 17z" />
<glyph unicode="&#xbd;" horiz-adv-x="1163" d="M25 20q10 -33 58 -9t118.5 84.5t157.5 149.5t177.5 187t178.5 197.5t158.5 180.5t119.5 135t62 63q6 10 18 19t14 24q10 10 6.5 19t-16 16.5t-28 9.5t-23.5 0q-12 -4 -25.5 -7.5t-27.5 -9.5l14 4q-12 -6 -62.5 -52t-122 -118.5t-159.5 -165t-176 -188.5t-171 -189.5 t-145.5 -168t-97.5 -123.5t-28 -58zM90 717q0 -6 4 -15.5t15 -9.5h135l10 4h192q4 -4 13 -4h14h14q20 12 21 29q0 8 -10.5 19.5t-22.5 11.5h-149v8q0 10 1 32.5t2 80t5 162t10 276.5q0 10 -13.5 16t-23.5 6q-16 0 -29.5 -10t-9.5 -27q-6 -6 -24.5 -27.5t-24.5 -27.5 q0 -2 -8 -8t-17.5 -14.5t-17.5 -14.5t-10 -6q-8 -8 -8 -22q0 -10 9 -16.5t21 -6.5q23 0 46.5 18.5t39.5 28.5h5l-15 -446q-25 0 -39 -9h-110q-10 0 -17.5 -11t-7.5 -17zM600 12q0 -10 5 -15t9 -11q4 0 8.5 -1t8.5 -1q18 0 43.5 22.5t38.5 36.5h10h10q37 0 60.5 -15.5 t52.5 -33.5q12 -8 35.5 -20.5t25.5 -12.5h103q4 6 10 6q8 0 14 4q18 6 38 18.5t34 26.5q10 16 11 26.5t11 23.5v61q0 18 -18 27.5t-29 19.5h-57q-4 0 -14.5 -5t-16.5 -9q-16 -10 -19 -19.5t-3 -27.5v-21q4 -10 11 -12t17 -2h15q8 4 10 11t5 14.5t7 12.5t15 5q25 0 24 -27 q0 -27 -17.5 -43t-41.5 -26q-4 -2 -12 -2t-11 -7h-65l-12 6q-11 5 -19 9q-23 10 -40 26.5t-38 24.5q-14 6 -24 6t-21 14q0 4 4 4q88 57 145.5 134t76 149t-6 125t-100.5 66q-2 0 -4 2l-2 2h-64q-16 -10 -30 -11q-20 0 -31 -4q-16 -8 -30.5 -20t-26.5 -23q-31 -25 -45.5 -49 t-14.5 -67v-15q0 -14 2 -14q6 -16 13.5 -24.5t14.5 -13.5t14 -8t11 -9q0 -2 15 -2h12h25q14 0 22 10l39 37v12q0 23 -13.5 43t-41.5 20q-12 0 -19.5 -9t-7.5 -19t8.5 -14.5t8.5 -14.5v-4q-8 -2 -11.5 -3t-9.5 -1q-12 0 -20.5 11t-8.5 22q0 25 16.5 46t41 36.5t51.5 24.5 t49 9q49 0 70.5 -22.5t21.5 -56.5q0 -35 -17.5 -79t-45 -85t-62.5 -77t-71 -54q-41 -35 -79 -65t-73 -68v-11z" />
<glyph unicode="&#xbe;" horiz-adv-x="1036" d="M-10 27q10 -33 58 -9.5t119 84t158 149.5t177 187.5t178 197.5t158.5 180t120 135.5t61.5 62.5q6 10 18.5 19t14.5 24q10 10 6 19t-16.5 16.5t-28 9.5t-23.5 0q-12 -4 -25.5 -7t-27.5 -10l14 5q-12 -6 -62 -52.5t-122 -119t-160 -164.5t-176 -188.5t-171 -189.5 t-145.5 -168t-97 -124t-28.5 -57zM39 711q0 16 8 38.5t35 22.5q10 0 19.5 -5t9.5 -15t-7.5 -19.5t-7.5 -19.5q0 -14 21.5 -38t34.5 -30q10 -6 36.5 -14t36.5 -15h25q41 0 75.5 12.5t57.5 47.5q6 10 9 22.5t11 22.5v59q-4 4 -4 15q0 4 -1 8t-1 8q-6 23 -27.5 33t-47.5 10 q-23 0 -48.5 -5t-48.5 -9q-10 -4 -21 -8.5t-24 -4.5q-12 0 -22.5 6.5t-10.5 18.5q0 14 20.5 31.5t48.5 36t54.5 35t36.5 26.5l17.5 17.5t11.5 13.5v2h-189q-4 -12 -10 -32.5t-26 -20.5t-31 12v16q0 14 3 25.5t3 25.5q0 2 -1 12.5t-1 14.5q-4 0 -4 4v10q0 23 26 23 q16 0 30 -12.5t11 -24.5h267q4 0 9 -6t7 -10v-11q0 -16 -9 -23t-18 -22l-88 -84v-4q23 0 44.5 -6t43.5 -10q4 -4 17.5 -14.5t17.5 -14.5q16 -16 14.5 -35.5t12.5 -35.5v-86q-8 -8 -7 -11.5t-3 -13.5q-4 -12 -16.5 -29.5t-28 -34t-32 -29t-30.5 -16.5q-10 -2 -26 -2 q-14 0 -27 -4h-94q-16 0 -37 10.5t-42.5 24.5t-38.5 29.5t-26 27.5q-8 6 -9 15.5t-7 17.5q0 2 -1 9.5t-1 11.5zM557 299q0 16 11.5 26.5t21.5 22.5q27 29 51.5 62.5t24.5 70.5v15q0 4 -2 4t-7.5 -2t-7.5 -2h-8q-10 0 -22.5 10t-12.5 16q0 23 24.5 34t45.5 11q16 0 36.5 -10 t20.5 -27v-86q-10 -10 -11 -21t-9 -24q-6 -16 -31 -36.5t-25 -38.5h172v61l11 6v78l-6 6v43q0 10 12 15.5t22 5.5t22.5 -9.5t12.5 -19.5v-137l-4 -8v-46h137q10 0 15.5 -11t5.5 -15q0 -6 -8.5 -14.5t-12.5 -8.5h-147q0 -8 -1 -22.5t-3 -18.5l-2 -3t-6 -5v-203 q0 -4 -11.5 -11t-19.5 -7q-4 0 -17.5 4t-13.5 10v226q6 8 4 14t-2 16h-244q-6 0 -11 11.5t-5 17.5z" />
<glyph unicode="&#xbf;" horiz-adv-x="907" d="M20 365q0 -100 41 -156.5t104.5 -85.5t142.5 -36t157 -7h47q31 0 52.5 3t62.5 15q2 0 15 6.5t28.5 13.5t29 13t15.5 6q23 4 39 2t30 -2q12 0 23.5 4.5t23.5 20.5v41v41q0 37 -14 66.5t-53 29.5q-33 0 -59.5 -19.5t-53 -44t-57.5 -44t-74 -19.5h-221q-66 0 -105.5 46 t-39.5 106v43q23 45 61.5 71.5t87.5 49t105.5 47t116 64.5t116.5 103.5t109 161.5q12 20 -23 28.5t-79 5.5t-78.5 -17.5t-24.5 -40.5q14 -25 0.5 -52.5t-43 -56.5t-68.5 -56.5t-77 -50t-67.5 -38t-41.5 -19.5q-59 -23 -101.5 -43t-71 -46.5t-42 -62.5t-13.5 -91zM592 1255 q14 18 21.5 29.5t13.5 18t11 8.5t15 2h39q39 -27 43 -46.5t-35 -60.5l13 8q-10 -10 -21.5 -18t-21.5 -16q-6 -6 -21.5 -8.5t-31 4t-24.5 25t-1 54.5z" />
<glyph unicode="&#xc0;" horiz-adv-x="1396" d="M-293 -539q0 94 57.5 130t145.5 36h39q8 -6 16 -17t8 -22q0 -27 -15 -41t-36.5 -20t-45 -8t-40.5 -4q-18 -12 -18 -39q0 -35 30.5 -46.5t59.5 -11.5q23 0 38 2t38 17q59 104 68 218t9 232q0 80 -5 158t-5 158q0 168 65.5 327.5t174 297t251 240.5t294.5 157q14 4 50 12 t78 16.5t78.5 15.5t51.5 9h61q16 0 49 1t66 -4t57.5 -19.5t24.5 -43.5q0 -12 -9.5 -29.5t-25.5 -17.5h-129v-516q0 -6 1 -19.5t3 -28.5t3 -28.5t1 -19.5q0 -25 1 -85t1 -130q0 -68 -1 -129.5t-1 -85.5q0 -12 11.5 -18.5t23.5 -11.5t23.5 -14t11.5 -28q0 -16 -12.5 -35.5 t-30.5 -19.5h-148q-16 0 -37.5 13.5t-21.5 31.5q0 31 22.5 45t46.5 20q2 8 5.5 34t3.5 36v168v158q0 25 -3.5 64.5t-6.5 77.5t-6 64l-3 27l-16 8l-39 3q-39 4 -94.5 8t-113.5 8t-97 8h-6q-27 0 -53.5 -9t-55.5 -9h-22q-4 0 -19.5 1t-33 3t-33 3t-19.5 1h-4h-4q-16 -2 -45 -5 t-33 -3q-25 -4 -46.5 -27t-38.5 -51.5t-30.5 -59t-21.5 -51.5q-23 -59 -39 -105t-26.5 -91t-15.5 -93.5t-5 -111.5q0 -76 4 -149.5t4 -149.5q0 -51 -1 -112.5t-8 -123t-22.5 -119t-46.5 -102.5t-79 -71.5t-119 -26.5q-35 0 -69 10t-60.5 29.5t-43 48t-16.5 65.5zM489 872 q0 -2 13.5 -5t21.5 -3q2 0 19.5 -1t27.5 -1q57 0 112.5 5t113.5 5q55 0 110.5 -5t110.5 -5q8 0 23.5 1t17.5 1l8 8v242q0 6 -3 18.5t-5 14.5q0 2 -6 2h-9q-137 0 -265 -57.5t-228 -149.5q-14 -12 -38 -35.5t-24 -25.5v-9zM846 1735q18 20 46 15t59.5 -27.5t63.5 -57.5 t59.5 -70.5t47 -67.5t25.5 -48l-6 16q8 -16 10 -28.5t6 -24.5q0 -8 -3 -22.5t-9 -27t-15.5 -17.5t-19.5 7q-16 0 -23.5 13.5t-17.5 17.5q-16 25 -57 71t-82 93q-39 47 -66.5 91t-17.5 67z" />
<glyph unicode="&#xc1;" horiz-adv-x="1431" d="M-231 -518q0 94 57 130t145 36h39q8 -6 16.5 -17.5t8.5 -21.5q0 -27 -15.5 -41t-37 -20.5t-45 -8.5t-39.5 -4q-18 -12 -19 -39q0 -35 31 -46t59 -11q23 0 38.5 2t37.5 16q59 104 68.5 218t9.5 233q0 80 -5 157.5t-5 157.5q0 168 65.5 328t174 297t250.5 240.5t294 156.5 q14 4 50 12.5t78 16.5t79 15t51 9h62q16 0 48.5 1t65.5 -4t57.5 -19t24.5 -43q0 -12 -9 -29.5t-26 -17.5h-129v-516q0 -6 1 -19.5t3 -29t3 -28.5t1 -20q0 -25 1.5 -85t1.5 -130q0 -68 -1.5 -129t-1.5 -86q0 -12 11.5 -18t24 -11t23.5 -14.5t11 -27.5q0 -16 -12 -36t-31 -20 h-147q-16 0 -38 13.5t-22 31.5q0 31 22.5 45.5t47.5 20.5q2 8 5 33.5t3 36.5v168v157q0 25 -3 65t-6 77.5t-6 64.5l-3 27l-17 8l-39 3t-94 7t-113.5 8t-97.5 9h-6q-27 0 -53.5 -9.5t-54.5 -9.5h-23q-4 0 -19.5 1t-33 3t-32.5 3t-19 1h-5h-4q-16 -2 -44.5 -5t-32.5 -3 q-25 -4 -46.5 -26.5t-39 -51t-31 -59.5t-21.5 -51q-23 -59 -39 -105.5t-26 -91.5t-15.5 -93t-5.5 -112q0 -76 4 -149.5t4 -149.5q0 -51 -1 -112.5t-8 -123t-22.5 -118.5t-46 -102t-78.5 -72t-120 -27q-35 0 -68.5 10.5t-60.5 30t-43 48t-16 65.5zM551 893q0 -2 13.5 -5 t21.5 -3q2 0 19.5 -1t27.5 -1q57 0 112.5 5t112.5 5q55 0 110.5 -5t110.5 -5q8 0 23.5 1t17.5 1l8 8v242q0 6 -3 18t-5 14q0 2 -6 2h-8q-137 0 -265 -57t-229 -149q-14 -12 -37.5 -36t-23.5 -26v-8zM822 1383.5q-5 9.5 7 19.5q0 16 13.5 23.5t17.5 17.5q25 16 71 57t93 82 q47 39 91 66.5t67 17.5q33 -29 6 -75t-76 -94t-104 -86t-82 -46l16 6q-16 -8 -28.5 -10t-24.5 -6q-8 0 -22.5 3t-27 9t-17.5 15.5z" />
<glyph unicode="&#xc2;" horiz-adv-x="1333" d="M-291 -524q0 94 57.5 130t145.5 36h39q8 -6 16 -17.5t8 -21.5q0 -27 -15 -41.5t-36.5 -20.5t-45 -8t-40.5 -4q-18 -12 -18 -39q0 -35 30.5 -46t59.5 -11q23 0 38 2t38 16q59 104 68 218t9 233q0 80 -5 157.5t-5 157.5q0 168 65.5 328t174 297t251 240.5t294.5 156.5 q14 4 50 12.5t78 16.5t78.5 15t51.5 9h61q16 0 49 1t66 -4t57.5 -19.5t24.5 -42.5q0 -12 -9.5 -29.5t-25.5 -17.5h-129v-516q0 -6 1 -19.5t3 -29t3 -29t1 -19.5q0 -25 1 -85t1 -130q0 -68 -1 -129t-1 -86q0 -12 11.5 -18t23.5 -11.5t23.5 -14.5t11.5 -27q0 -16 -12.5 -36 t-30.5 -20h-148q-16 0 -37.5 13.5t-21.5 31.5q0 31 22.5 45.5t46.5 20.5q2 8 5.5 33.5t3.5 35.5v168v158q0 25 -3 65t-6.5 77.5t-6.5 64.5l-3 27l-16 8l-39 3t-94.5 7t-113.5 8t-97 8h-6q-27 0 -53.5 -9t-55.5 -9h-22q-4 0 -19.5 1t-33 3t-33 3t-19.5 1h-4h-4q-16 -2 -45 -5 t-33 -3q-25 -4 -46 -26.5t-38.5 -51.5t-31 -59.5t-21.5 -50.5q-23 -59 -39 -105.5t-26.5 -91.5t-15.5 -93t-5 -112q0 -76 4 -149.5t4 -149.5q0 -51 -1 -112.5t-8 -123t-22.5 -119t-46 -102.5t-79 -71.5t-119.5 -26.5q-35 0 -69 10.5t-60.5 30t-43 48t-16.5 65.5zM492 887 q0 -2 13 -5t21 -3q2 0 19.5 -1t27.5 -1q57 0 112.5 5t113.5 5q55 0 110.5 -5t110.5 -5q8 0 23.5 1t17.5 1l8 8v241q0 6 -3 18.5t-5 14.5q0 2 -6 2h-8q-137 0 -265.5 -57t-228.5 -150q-14 -12 -37.5 -35.5t-23.5 -25.5v-8zM764 1425.5q8 53.5 37.5 113.5t67.5 115.5t61 74.5 l-6 -7q10 10 19 15.5t20 11.5q4 2 14 4t22 2q27 0 37 -12q29 -16 59.5 -54t56.5 -82t46.5 -87t28.5 -70v-2q2 -2 2 -6q0 -2 2 -4l-2 2q2 -10 3 -19.5t1 -19.5q0 -6 -6 -20.5t-14.5 -26t-18.5 -15.5t-18 11q-14 4 -19.5 16t-15.5 20q-10 29 -43 80.5t-66 106.5q-10 14 -10 29 q0 16 -27 36q-16 -29 -37.5 -68.5t-44.5 -80.5q-33 -53 -62.5 -94t-57.5 -37q-37 14 -29 67.5z" />
<glyph unicode="&#xc3;" horiz-adv-x="1333" d="M-307 -530q0 94 57 129.5t146 35.5h38q8 -6 16.5 -17t8.5 -21q0 -27 -15.5 -41.5t-37 -20.5t-45 -8t-39.5 -4q-18 -12 -19 -39q0 -35 31 -46t60 -11q23 0 38 2t37 16q59 104 68.5 218t9.5 233q0 80 -5 157.5t-5 157.5q0 168 65.5 327.5t174 297t251 241t293.5 156.5 q14 4 50 12t78 16.5t79 15.5t51 9h62q16 0 49 1t65.5 -4t57 -19.5t24.5 -42.5q0 -12 -9 -29.5t-25 -17.5h-129v-517q0 -6 1 -19t3 -28.5t3 -29t1 -19.5q0 -25 1 -85t1 -130q0 -68 -1 -129t-1 -86q0 -12 11 -18.5t23.5 -11.5t23.5 -14t11 -28q0 -16 -12 -35.5t-31 -19.5h-147 q-16 0 -38 13.5t-22 31.5q0 31 23 45.5t47 20.5q2 8 5 33.5t3 35.5v168v158q0 25 -3 64.5t-6 77.5t-6 64l-3 27l-17 9l-38 3q-39 3 -94.5 7t-114 8t-97.5 8h-6q-27 0 -53.5 -9t-54.5 -9h-23q-4 0 -19.5 1t-32.5 3t-32.5 3t-19.5 1h-4h-4q-16 -2 -45 -5t-33 -3 q-25 -4 -46.5 -26.5t-39 -51.5t-30.5 -59.5t-21 -51.5q-23 -59 -39.5 -105t-26.5 -91t-15 -93.5t-5 -111.5q0 -76 4 -149.5t4 -149.5q0 -51 -1 -112.5t-8.5 -123t-22.5 -119t-46 -102.5t-79 -71.5t-120 -26.5q-35 0 -68.5 10t-60 29.5t-43 48.5t-16.5 66zM430 1511 q0 -45 29.5 -85t70.5 -40q25 0 55.5 13.5t30.5 48.5t-28 35q-18 0 -26.5 -14.5t-24.5 -14.5t-32 19.5t-16 33.5q0 29 27 40.5t47 11.5q43 0 79 -14.5t69.5 -36t66.5 -47t70 -46.5q63 -31 132 -39t140 -8h13q8 0 17 1t19 1h13q47 10 77.5 44t30.5 89q0 57 -32.5 84t-79.5 27 q-25 0 -43.5 -15.5t-18.5 -46.5q0 -12 5 -22t20 -10h6l2 2q4 0 12 11t13 15h4q18 0 36.5 -12t18.5 -35t-12.5 -36t-29.5 -19t-35.5 -8t-31.5 -2q-74 0 -127 9t-99 28.5t-92 49t-108 72.5q-29 23 -65.5 27t-71.5 4q-47 0 -89 -24.5t-42 -90.5zM475 881q0 -2 13.5 -5.5 t21.5 -3.5q2 0 19.5 -1t27.5 -1q57 0 112.5 5.5t112.5 5.5q55 0 110.5 -5.5t111.5 -5.5q8 0 23 1t17 1l9 9v241q0 6 -3 18.5t-6 14.5q0 2 -6 2h-8q-137 0 -265 -57.5t-228 -149.5q-14 -12 -38 -35.5t-24 -25.5v-8z" />
<glyph unicode="&#xc4;" horiz-adv-x="1560" d="M-90 -535q0 94 57.5 130t145.5 36h39q8 -6 16 -17t8 -22q0 -27 -15.5 -41t-37 -20t-45 -8t-39.5 -4q-18 -12 -19 -39q0 -35 31 -46.5t60 -11.5q23 0 38 2.5t37 16.5q59 104 68.5 218t9.5 232q0 80 -5 158t-5 158q0 168 65.5 327.5t174 297t251 241t293.5 156.5 q14 4 50 12t78 16.5t79 15.5t51 9h62q16 0 49 1t65.5 -4t57 -19.5t24.5 -42.5q0 -12 -9 -30t-25 -18h-129v-516q0 -6 1 -19t3 -28.5t3 -29t1 -19.5q0 -25 1 -85t1 -130q0 -68 -1 -129t-1 -86q0 -12 11 -18.5t23.5 -11.5t23.5 -14t11 -28q0 -16 -12 -35.5t-31 -19.5h-147 q-16 0 -37.5 13.5t-21.5 31.5q0 31 22.5 45t46.5 21q2 8 5 33.5t3 35.5v168v158q0 25 -3 64.5t-6 77.5t-6 64l-3 27l-16 9l-39 3t-94.5 7t-114 8t-96.5 8h-7q-27 0 -53.5 -9t-54.5 -9h-23q-4 0 -19.5 1t-32.5 3t-32.5 3t-19.5 1h-4h-4q-16 -2 -45 -5t-33 -3 q-25 -4 -46.5 -26.5t-39 -51.5t-30.5 -59.5t-21 -51.5q-23 -59 -39.5 -105t-26.5 -91t-15 -93.5t-5 -111.5q0 -76 4 -149.5t4 -149.5q0 -51 -1 -112.5t-8.5 -123t-22.5 -119t-46 -102.5t-79 -71.5t-120 -26.5q-35 0 -68.5 10t-60 29.5t-43 48t-16.5 65.5zM692 877 q0 -2 13.5 -5.5t21.5 -3.5q2 0 19.5 -1t27.5 -1q57 0 112.5 5.5t112.5 5.5q55 0 110.5 -5.5t111.5 -5.5q8 0 23.5 1t17.5 1l8 9v241q0 6 -3 18.5t-5 14.5q0 2 -7 2h-8q-137 0 -265 -57.5t-228 -149.5q-14 -12 -38 -35.5t-24 -25.5v-8zM1150 1419.5q-3 -28.5 15 -41.5 q27 0 50.5 18.5t45 46t41 58.5t37.5 55q2 10 9.5 24.5t3.5 27.5q6 14 -2.5 20t-21.5 7t-28.5 -2t-21.5 -9q-10 -8 -21.5 -16.5t-21.5 -18.5l12 8q-18 -20 -40.5 -52t-38 -64.5t-18.5 -61zM1353 1417.5q-3 -28.5 15 -41.5q27 0 50.5 18.5t45 46t41 58.5t37.5 55 q2 10 9.5 24.5t2.5 27.5q6 14 -2 20t-21 7t-28.5 -2t-21.5 -9q-10 -8 -21.5 -16.5t-21.5 -18.5l12 8q-18 -20 -41 -52t-38 -64.5t-18 -61z" />
<glyph unicode="&#xc5;" horiz-adv-x="1361" d="M-272 -535q0 94 57 130t145 36h39q8 -6 16.5 -17t8.5 -22q0 -27 -15.5 -41t-37 -20t-45 -8t-39.5 -4q-18 -12 -19 -39q0 -35 31 -46.5t59 -11.5q23 0 38.5 2.5t37.5 16.5q59 104 68.5 218t9.5 232q0 80 -5 158t-5 158q0 168 65.5 327.5t174 297t251 241t293.5 156.5 q14 4 50 12t78 16.5t79 15.5t51 9h62q16 0 48.5 1t65.5 -4t57.5 -19.5t24.5 -42.5q0 -12 -9 -30t-26 -18h-129v-516q0 -6 1 -19t3 -28.5t3.5 -29t1.5 -19.5q0 -25 1 -85t1 -130q0 -68 -1 -129t-1 -86q0 -12 11 -18.5t23.5 -11.5t23.5 -14t11 -28q0 -16 -12 -35.5t-31 -19.5 h-147q-16 0 -38 13.5t-22 31.5q0 31 22.5 45t47.5 21q2 8 5 33.5t3 35.5v168v158q0 25 -3 64.5t-6 77.5t-6 64l-3 27l-17 9l-39 3t-94 7t-113.5 8t-97.5 8h-6q-27 0 -53.5 -9t-54.5 -9h-23q-4 0 -19.5 1t-33 3t-32.5 3t-19 1h-5h-4q-16 -2 -44.5 -5t-32.5 -3 q-25 -4 -46.5 -26.5t-39 -51.5t-30.5 -59.5t-22 -51.5q-23 -59 -39 -105t-26 -91t-15.5 -93.5t-5.5 -111.5q0 -76 4.5 -149.5t4.5 -149.5q0 -51 -1.5 -112.5t-8.5 -123t-22.5 -119t-46 -102.5t-78.5 -71.5t-120 -26.5q-35 0 -68.5 10t-60.5 29.5t-43 48t-16 65.5zM510 877 q0 -2 13.5 -5.5t21.5 -3.5q2 0 19.5 -1t27.5 -1q57 0 112.5 5.5t112.5 5.5q55 0 110.5 -5.5t110.5 -5.5q8 0 23.5 1t17.5 1l8 9v241q0 6 -3 18.5t-5 14.5q0 2 -6 2h-8q-137 0 -265 -57.5t-229 -149.5q-14 -12 -37.5 -35.5t-23.5 -25.5v-8zM893 1534q0 -29 12.5 -57.5 t32.5 -50t49 -35t62 -13.5q8 0 27.5 11.5t40 27t35.5 32.5t15 30l-8 110q0 14 -16.5 29.5t-38 26t-44 17.5t-34.5 7q-61 0 -97 -42t-36 -93zM987 1532q0 23 13.5 38t35.5 15q10 0 29.5 -9t19.5 -22l2 -45q0 -10 -18 -24.5t-25 -14.5q-25 0 -41 19.5t-16 42.5z" />
<glyph unicode="&#xc6;" horiz-adv-x="2682" d="M-266 -414q0 -37 16.5 -65.5t43 -48t60 -29.5t68.5 -10q72 0 120 26.5t79 71.5t46 102.5t22.5 119t8.5 123t1 112.5q0 76 -4.5 149.5t-4.5 149.5q0 63 5.5 111t15.5 93.5t26.5 91.5t38.5 105q8 20 21.5 51t31 59.5t39 51t46.5 27.5q4 0 32.5 3t45.5 5h8q4 0 19.5 -1 t32.5 -3t32.5 -3t19.5 -1h23q29 0 55.5 9t52.5 9h6q39 -4 97.5 -8t114 -8.5t93.5 -7.5l39 -3l17 -8l3 -26q3 -27 6 -65t6 -78t3 -64q4 -150 5 -252.5t0 -169t-5 -102t-10 -52t-14 -16.5q-6 0 -17 2v-8q-16 -6 -19 -5t-1 0t6 -10.5t4 -36.5q0 -10 4 -29.5t17 -23.5h172 q123 0 243.5 6.5t243.5 6.5h166q16 -6 34.5 -8.5t37.5 -2.5q20 0 39.5 -1t37.5 -7q12 0 41 -1t62 -2t61.5 -2t40.5 -1h76q41 0 91 6t96 23.5t81 48t47 80.5v51q0 113 -58 162t-173 49q-35 0 -85 -3t-97 -16.5t-80 -42t-33 -77.5q0 -29 16.5 -48.5t41 -31t53 -16.5t51.5 -5 q8 0 22.5 1t26.5 5t21.5 12.5t9.5 22.5q0 8 -7.5 15.5l-11.5 11.5q-4 0 -16 2t-25.5 4t-26 4t-14.5 2q-10 0 -30.5 5t-20.5 22v6q16 27 54 34t59 11q2 0 17.5 1t38 2t34.5 1h6q68 0 110 -29.5t42 -99.5q0 -57 -44 -82t-96 -27h-28q-20 0 -42 -1t-40 -1h-29q-66 0 -136.5 -2 t-135.5 17q-16 0 -57.5 2t-86.5 4t-86 4t-55 2h-27q-74 0 -147.5 -6t-147.5 -6h-20q-16 0 -45 1t-48.5 2t-21.5 1l-12 8v98q12 14 12 37q0 16 -12 29v321q4 47 7 94.5t3 98.5t4 79.5t6 73.5l4 10q5 9 9 9h602q20 0 31.5 16.5t17.5 63.5q4 31 -31 30h-14q-8 0 -40 -1 t-67.5 -2t-67.5 -2t-40 -1h-6q-4 0 -23.5 1t-43 2t-43 2t-23.5 1h-203q-8 0 -29.5 2.5t-27.5 4.5q4 72 3 128t-3 128h51q10 0 18 9t12 19q45 2 89.5 0t80.5 -2q117 4 231 9.5t228 5.5q55 0 106.5 -5.5t108.5 -1.5q14 -2 18.5 -12t8.5 -21.5t10 -20.5t23 -9q25 0 29.5 27.5 t4.5 42.5q0 16 -11 44.5t-27 39.5q-29 10 -64 13t-72 3q-35 0 -71.5 -1t-69.5 3h-33q-20 0 -73.5 -2t-113.5 -3t-113.5 -3t-73.5 -2h-140h-71q-33 0 -68 -4q-35 10 -78 10h-63h-62q-14 -2 -51 -9.5t-79 -15.5t-77.5 -16t-50.5 -12q-152 -53 -294 -156.5t-250.5 -241 t-174 -297t-65.5 -327.5q0 -80 5 -158t5 -158q0 -119 -9 -232.5t-69 -217.5q-23 -14 -38 -16.5t-38 -2.5q-29 0 -59.5 11.5t-30.5 46.5q0 27 19 39q16 2 39.5 4t45 8t37 20.5t15.5 40.5q0 10 -8 21.5t-17 17.5h-38q-88 0 -145.5 -35.5t-57.5 -130.5zM516 997v9 q0 2 23.5 25.5t38.5 35.5q100 92 228 149.5t265 57.5h8q6 0 6 -2q2 -2 5.5 -14.5t3.5 -18.5v-242l-9 -8q-2 0 -17 -1t-24 -1q-55 0 -110 5t-111 5q-57 0 -112.5 -5t-112.5 -5q-10 0 -27.5 1t-19.5 1q-8 0 -21.5 3t-13.5 5z" />
<glyph unicode="&#xc7;" horiz-adv-x="1355" d="M88 637q0 -125 11.5 -236.5t45 -211t94 -189.5t158.5 -172q145 -117 313.5 -180.5t354.5 -75.5q4 -66 0 -128t-12 -120h6v-6h6v-6q6 -2 11 -4t16.5 -5t32 -8.5t57.5 -11.5q6 4 9 -3t9 -3q25 -2 30 -15.5t15 -31.5q4 -35 -5 -61.5t-36 -42.5q-4 -14 -19.5 -17.5 t-25.5 -11.5q-29 -6 -52.5 0t-45 18.5t-42 25.5t-40.5 19q-6 -4 -9 3.5t-9 2.5q-31 2 -46.5 -13t-17.5 -36.5t7 -44t28 -33.5v-6q8 -4 31.5 -15t101.5 -32q33 -18 63.5 -10t65.5 10l45 13q27 14 44 23t28.5 15.5t17.5 8.5t10 4q-4 6 3.5 9t3.5 9q20 25 32.5 55.5t12.5 63.5 q0 31 -10.5 60.5t-34.5 47.5l-123 82q-4 2 -9.5 0t-3.5 5h-6v6q-10 0 -10 10q0 8 -6 14q-2 4 0 11.5t-6 5.5q6 49 7 65.5t2 20.5t3 8t6 28q2 4 0 13.5t4 9.5v6q4 2 6 -1t7 -7q129 6 257 36t232 99q37 25 75 51.5t38 75.5q0 20 -10.5 33.5t-32.5 13.5q-18 0 -42 -15.5 t-49.5 -34.5t-49 -37.5t-40.5 -24.5q-98 -41 -209.5 -69t-216.5 -28h-22q-66 8 -138.5 16.5t-145 23t-141.5 38t-126 62.5q-12 8 -43 32.5t-65.5 52t-64.5 52t-42 35.5q-4 2 -13.5 11t-13.5 13q-51 61 -83.5 140t-51 165t-25 173t-4.5 165q4 104 14.5 209t39.5 203 q16 29 24 61.5t27 59.5q4 6 18.5 26.5t30.5 44t31.5 45t21.5 31.5q18 27 51 40t70 19.5t74 7.5t65 1q59 0 130 -2t126 -23q51 -18 101.5 -49t91.5 -71t66.5 -91t25.5 -108q0 -55 -22.5 -94t-59.5 -64t-84 -37t-96 -12q-23 0 -71 5t-96 19.5t-85 37t-37 57.5q0 68 40 99.5 t104 31.5h36q6 -4 16.5 -14.5t10.5 -20.5l-8 -8q-16 -10 -25.5 -17.5t-9.5 -29.5q0 -29 18.5 -43.5t44.5 -14.5q41 0 71 29t30 72q0 41 -16.5 72.5t-44 53t-62.5 32t-72 10.5q-51 0 -97 -19.5t-81 -53.5t-55.5 -78t-20.5 -95q0 -72 42 -118t103.5 -72.5t131 -37t125.5 -10.5 q78 0 147.5 20.5t121.5 62.5t83 103.5t31 143.5q0 80 -32 142.5t-82 111.5t-112.5 88t-126.5 70q-12 2 -44.5 7t-67.5 10t-68 10t-45 7h-65q-29 0 -67 -1t-78 -6t-75.5 -13t-58.5 -23q-98 -66 -157.5 -164t-91 -211.5t-42 -232.5t-10.5 -223z" />
<glyph unicode="&#xc8;" horiz-adv-x="1478" d="M35 1321q0 20 16.5 32.5t39 16.5t46 5t37.5 1q25 0 41 -1t45 -7q115 18 211 23.5t201 5.5h147h43q18 0 58.5 1t90.5 3t105 3t105.5 3t90.5 3t58 1h25h18q45 -4 95.5 -3t99.5 1t96 -5t88 -20q35 -27 35 -75q0 -10 -1 -26.5t-6 -32t-14.5 -27t-25.5 -11.5q-23 0 -32 12.5 t-14 28t-11.5 29.5t-24.5 16q-76 -4 -146.5 3.5t-144.5 7.5q-156 0 -309.5 -7.5t-313.5 -11.5q-74 -2 -164 1t-169 -9q-10 0 -11 -8q0 -100 11.5 -200.5t7.5 -205.5q4 0 14 -2t22.5 -3t23.5 -2t18 -1h274q6 0 32.5 -1t57.5 -3t57.5 -3t32.5 -1h4h4q12 0 55.5 1t92.5 3t92 3 t53 1h21q41 0 41 -41q0 -29 -25.5 -45t-52.5 -16h-817q-4 0 -11 -14l-8 -13q-2 -59 -2 -123v-131t-3 -134t-11 -128v-661l16 -9q4 0 31 -2t64.5 -4t60.5 -2h31q98 0 198.5 9.5t198.5 9.5q6 0 20.5 -1t16.5 -1q20 0 75.5 -3.5t117 -6.5t116.5 -5t78 -2q88 -23 183 -20.5 t188 2.5h36q27 0 57 1t56 1h39q35 2 68.5 11t61.5 26.5t44.5 45t16.5 66.5q0 94 -57.5 135t-149.5 41h-11q-14 0 -43.5 -2t-50 -4t-24.5 -2q-14 -2 -37 -5t-45.5 -9t-43 -16.5t-30.5 -28.5v-8q0 -10 8 -17.5t19.5 -11.5t23.5 -5t19 -1q4 -2 20 -5t34.5 -6.5t35 -5.5t20.5 -2 q8 -6 17.5 -16t9.5 -23q0 -18 -12.5 -29t-30 -16.5t-35.5 -7.5t-31 -2q-31 0 -68.5 7.5t-71.5 22.5t-56.5 41.5t-22.5 65.5q0 68 45 107t108.5 57.5t131 22.5t115.5 4q154 0 234.5 -67.5t80.5 -221.5v-65q-16 -68 -62.5 -106t-105.5 -56.5t-123.5 -22.5t-120.5 -4h-104 q-16 0 -55 1t-83 3t-84.5 3t-54.5 1q-25 8 -51 9.5t-53 1.5t-52.5 3t-47.5 13h-226q-166 0 -330.5 -9t-330.5 -9h-234q-16 4 -29.5 17t-13.5 30q0 37 20.5 49t50.5 15t60.5 2t51.5 7v4v5q-2 4 -5.5 13t-5.5 13l6 713v43q0 20 1 63t2.5 97.5t3.5 114t3 113.5t2 97t1 66v127 q0 66 -6.5 125t-12.5 125q-66 6 -129 9t-129 9q-14 4 -16 16.5t-2 22.5zM805 1817q18 20 47 14t60.5 -28.5t63.5 -57.5t59.5 -70t46 -66.5t24.5 -47.5l-6 16q8 -16 10 -28.5t6 -24.5q0 -8 -3 -22.5t-9 -27t-15.5 -17.5t-19.5 7q-16 0 -23.5 13.5t-17.5 17.5q-16 25 -57 71 t-82 93q-39 47 -66.5 91t-17.5 67z" />
<glyph unicode="&#xc9;" horiz-adv-x="1880" d="M16 1356q0 20 16.5 32.5t39 16.5t46 5t38.5 1q25 0 41 -1t45 -7q115 18 211 23.5t200 5.5h148h43q18 0 58 1t90 3t105.5 3t105.5 3t90 3t59 1h24h19q45 -4 95 -3t99 1t96.5 -5t88.5 -20q35 -27 34 -76q0 -10 -1 -26.5t-6 -31.5t-14 -26.5t-26 -11.5q-23 0 -32 12.5 t-14 28t-11 29.5t-25 16q-76 -4 -146.5 3t-143.5 7q-156 0 -309.5 -7t-313.5 -11q-74 -2 -164 1t-170 -9q-10 0 -10 -8q0 -100 11 -200.5t7 -205.5q4 0 14.5 -2t22.5 -3t23.5 -2t17.5 -1h275q6 0 32.5 -1t57 -3t57.5 -3t33 -1h4h4q12 0 55 1t92.5 3t92.5 3t53 1h20 q41 0 41 -41q0 -29 -25.5 -45t-52.5 -16h-817q-4 0 -11 -13l-7 -14q-2 -59 -2 -123v-131t-3 -134.5t-11 -127.5v-662l16 -8q4 0 30.5 -2t64.5 -4t61 -2h30q98 0 198.5 9t199.5 9q6 0 20 -1t16 -1q20 0 76 -3t117 -6t116.5 -5t78.5 -2q88 -23 183 -20.5t187 2.5h37 q27 0 56.5 1t56.5 1h39q35 2 68.5 11t61 26.5t44 45t16.5 66.5q0 94 -57.5 135t-149.5 41h-10q-14 0 -44 -2t-50.5 -4t-24.5 -2q-14 -2 -36.5 -5t-45 -9t-43 -16.5t-30.5 -28.5v-9q0 -10 8 -17t19 -11t23.5 -5t18.5 -1q4 -2 20.5 -5.5t35 -6.5t35 -5t20.5 -2q8 -6 17 -16 t9 -23q0 -18 -12 -29.5t-29.5 -16.5t-36 -7t-30.5 -2q-31 0 -69 7t-71.5 22.5t-56 42t-22.5 65.5q0 68 45 107t108.5 57t131 22.5t114.5 4.5q154 0 234.5 -68t80.5 -221v-66q-16 -68 -62 -105.5t-105.5 -56t-124 -22.5t-119.5 -4h-105q-16 0 -55 1t-83 3t-84 3t-54 1 q-25 8 -51.5 9t-53.5 1t-52 3.5t-48 13.5h-225q-166 0 -331 -9.5t-331 -9.5h-233q-16 4 -29.5 17.5t-13.5 29.5q0 37 20.5 49.5t50 15.5t60.5 2t51 7v4v4q-2 4 -5 13.5t-5 13.5l6 713v43q0 20 1 63t2 97.5t3 114t3 113.5t2 98t1 65v127q0 66 -6 125t-12 124 q-66 6 -129.5 9.5t-128.5 9.5q-14 4 -16.5 16.5t-2.5 22.5zM822 1570q-5 9 7 19q0 16 13.5 23.5t17.5 17.5q25 16 71 57.5t93 81.5q47 39 91 67t67 17q33 -29 6 -74.5t-76 -94t-104 -86.5t-82 -46l16 7q-16 -8 -28.5 -10.5t-24.5 -6.5q-8 0 -22.5 3t-27 9.5t-17.5 15.5z" />
<glyph unicode="&#xca;" horiz-adv-x="1607" d="M23 1384q0 20 16 33t38.5 17t46 5t38.5 1q25 0 41 -1t45 -7q115 18 211 23t200 5h148h43q18 0 58 1t90.5 3t105.5 3t105.5 3.5t90 3.5t58.5 1h24h19q45 -4 95 -3t99 1t96.5 -5.5t88.5 -19.5q35 -27 35 -76q0 -10 -1.5 -26.5t-6.5 -32t-14 -26.5t-26 -11q-23 0 -32 12 t-14 27.5t-11 30t-24 16.5q-76 -4 -147 3t-144 7q-156 0 -309.5 -7t-313.5 -11q-74 -2 -164 1t-170 -9q-10 0 -10 -9q0 -100 11.5 -200.5t6.5 -204.5q4 0 14.5 -2t23 -3t23.5 -2t17 -1h275q6 0 32.5 -1t57.5 -3t57.5 -3.5t32.5 -1.5h4h4q12 0 55 1.5t92.5 3.5t92.5 3t53 1 h20q41 0 41 -41q0 -29 -25.5 -45.5t-51.5 -16.5h-818q-4 0 -11 -13l-7 -13q-2 -59 -2 -123v-131t-3 -134.5t-11 -127.5v-662l16 -8q4 0 30.5 -2t64.5 -4t61 -2h30q98 0 198.5 9t199.5 9q6 0 20.5 -1t16.5 -1q20 0 75.5 -3t117 -6t116.5 -5t78 -2q88 -23 183 -21t187 2h37 q27 0 56.5 1t56.5 1h39q35 2 68.5 11.5t61 27t44 45t16.5 66.5q0 94 -57 135t-150 41h-10q-14 0 -44 -2t-50.5 -4t-24.5 -2q-14 -2 -36.5 -5t-45 -9.5t-43 -16.5t-30.5 -29v-8q0 -10 8 -17t19.5 -11.5t23.5 -5.5t18 -1q4 -2 20.5 -5t35 -6t35 -5t20.5 -2q8 -6 17.5 -16.5 t9.5 -22.5q0 -18 -12.5 -29.5t-30 -16.5t-36 -7t-30.5 -2q-31 0 -68.5 7t-71.5 22.5t-56.5 42t-22.5 65.5q0 68 45 106.5t108.5 57t131 22.5t114.5 4q154 0 235 -67.5t81 -220.5v-66q-16 -68 -62.5 -105.5t-106 -56t-124 -22.5t-119.5 -4h-104q-16 0 -55.5 1t-83.5 3t-84 3 t-54 1q-25 8 -51.5 9t-52.5 1q-27 0 -52.5 3t-48.5 13h-225q-166 0 -331 -9t-331 -9h-233q-16 4 -29.5 17.5t-13.5 29.5q0 37 20.5 49.5t50 15.5t60.5 2t51 7v4v4q-2 4 -5 13.5t-5 13.5l6 712v43q0 20 1 63.5t2 97.5t3 113.5t3 114t2 97.5t1 65v127q0 66 -6 125.5t-12 124.5 q-66 6 -129.5 9t-128.5 10q-14 4 -16 16t-2 22zM784.5 1593.5q8.5 53.5 38 113.5t67.5 115.5t60 73.5l-6 -6q10 10 19.5 15.5t19.5 11.5q4 2 14.5 4t22.5 2q27 0 37 -12q29 -16 59.5 -54t56 -82t46 -87t28.5 -70v-2q2 -2 2 -6q0 -2 2 -4l-2 2q2 -10 3 -19.5t1 -19.5 q0 -6 -6 -20.5t-14 -26t-18.5 -15.5t-18.5 11q-14 4 -19.5 16t-15.5 20q-10 29 -43 80.5t-65 106.5q-10 16 -18.5 32.5t-18.5 32.5q-16 -29 -38 -68.5t-44 -80.5q-33 -53 -62.5 -94t-58.5 -37q-37 14 -28.5 67.5z" />
<glyph unicode="&#xcb;" horiz-adv-x="1630" d="M23 1356q0 20 16 32.5t38.5 16.5t46 5t38.5 1q25 0 41 -1t45 -7q115 18 211 23.5t200 5.5h148h43q18 0 58 1t90.5 3t105.5 3t105.5 3t90 3t58.5 1h24h19q45 -4 95 -3t99 1t96.5 -5t88.5 -20q35 -27 35 -76q0 -10 -1.5 -26.5t-6.5 -31.5t-14 -26.5t-26 -11.5 q-23 0 -32 12.5t-14 28t-11 29.5t-24 16q-76 -4 -147 3t-144 7q-156 0 -309.5 -7t-313.5 -11q-74 -2 -164 1t-170 -9q-10 0 -10 -8q0 -100 11.5 -200.5t6.5 -205.5q4 0 14.5 -2t23 -3t23.5 -2t17 -1h275q6 0 32.5 -1t57.5 -3t57.5 -3t32.5 -1h4h4q12 0 55 1t92.5 3t92.5 3 t53 1h20q41 0 41 -41q0 -29 -25.5 -45t-51.5 -16h-818q-4 0 -11 -13l-7 -14q-2 -59 -2 -123v-131t-3 -134.5t-11 -127.5v-662l16 -8q4 0 30.5 -2t64.5 -4t61 -2h30q98 0 198.5 9t199.5 9q6 0 20.5 -1t16.5 -1q20 0 75.5 -3t117 -6t116.5 -5t78 -2q88 -23 183 -20.5t187 2.5 h37q27 0 56.5 1t56.5 1h39q35 2 68.5 11t61 26.5t44 45t16.5 66.5q0 94 -57 135t-150 41h-10q-14 0 -44 -2t-50.5 -4t-24.5 -2q-14 -2 -36.5 -5t-45 -9t-43 -16.5t-30.5 -28.5v-9q0 -10 8 -17t19.5 -11t23.5 -5t18 -1q4 -2 20.5 -5.5t35 -6.5t35 -5t20.5 -2q8 -6 17.5 -16 t9.5 -23q0 -18 -12.5 -29.5t-30 -16.5t-36 -7t-30.5 -2q-31 0 -68.5 7t-71.5 22.5t-56.5 42t-22.5 65.5q0 68 45 107t108.5 57t131 22.5t114.5 4.5q154 0 235 -68t81 -221v-66q-16 -68 -62.5 -105.5t-106 -56t-124 -22.5t-119.5 -4h-104q-16 0 -55.5 1t-83.5 3t-84 3t-54 1 q-25 8 -51.5 9t-52.5 1q-27 0 -52.5 3.5t-48.5 13.5h-225q-166 0 -331 -9.5t-331 -9.5h-233q-16 4 -29.5 17.5t-13.5 29.5q0 37 20.5 49.5t50 15.5t60.5 2t51 7v4v4q-2 4 -5 13.5t-5 13.5l6 713v43q0 20 1 63t2 97.5t3 114t3 113.5t2 98t1 65v127q0 66 -6 125t-12 124 q-66 6 -129.5 9.5t-128.5 9.5q-14 4 -16 16.5t-2 22.5zM746.5 1570q7.5 27 46.5 68l-13 -8q10 10 21.5 18.5t21.5 16.5q6 6 21.5 10t29 2t21.5 -8t2 -20q4 -12 -3 -26.5t-9 -25.5q-18 -25 -26.5 -41t-18 -25t-22.5 -12t-40 -3q-39 27 -31.5 54zM949 1567.5q7 27.5 46 68.5 l-12 -8q10 10 21.5 18.5t21.5 16.5q6 6 21.5 10t29 2t21.5 -8t2 -20q4 -12 -3 -26.5t-10 -25.5q-18 -25 -26 -41t-17.5 -25t-22.5 -12.5t-40 -3.5q-39 27 -32 54.5z" />
<glyph unicode="&#xcc;" horiz-adv-x="495" d="M74 1690q18 20 45.5 15t59.5 -27.5t63.5 -57.5t59.5 -71t47.5 -67.5t25.5 -47.5l-6 16q8 -16 10 -28.5t6 -24.5q0 -8 -3 -22.5t-9 -27t-15.5 -17.5t-19.5 7q-16 0 -23.5 13.5t-17.5 17.5q-16 25 -57 71t-82 93q-39 47 -67 91t-17 67zM110 -687.5q5 15.5 15 25t20.5 15.5 t16.5 10q14 6 18 20.5t2 45.5q-4 43 -2 102t2 158v108q0 74 1 165t1 196v198q0 94 -1 171t-1 114q2 2 2 16v31v74v45v49q0 39 -3 75t-7 52q0 2 6 68q10 66 -6 69q-12 4 -23.5 5t-23.5 5q-10 -2 -13 11.5t0 33t11 39t25 31.5h122q84 4 103 -6q20 -10 28 -29q18 -33 9 -57 q-4 -10 -17.5 -13t-29.5 -3q-14 0 -32 -4.5t-18 -36.5q-4 -111 -5 -243t-1 -265v-168v-195l2 -225l2 -410v-84q2 -20 1 -42.5t-5 -47.5q-6 -49 41 -59q45 -12 43 -49t-41 -45h-65h-37q-18 0 -39 -2q-82 -2 -100 16q-6 20 -1 35.5z" />
<glyph unicode="&#xcd;" horiz-adv-x="430" d="M3 1439q-5 9 7 19q0 16 13.5 23.5t17.5 17.5q25 16 71 57t93 82q47 39 91 67t66 17q33 -29 6.5 -74.5t-75.5 -94t-104.5 -86.5t-82.5 -46l17 6q-16 -8 -28.5 -10t-24.5 -6q-8 0 -22.5 3t-27 9.5t-17.5 15.5zM52 -656.5q5 15.5 15.5 24.5t20.5 15.5t16 10.5 q14 6 18.5 20.5t2.5 44.5q-4 43 -2 102.5t2 157.5v109q0 74 1 165t1 195v199q0 94 -1 171t-1 114q2 2 2 16v31v74v45v49q0 39 -3 74.5t-7 52.5q0 2 6 67q10 66 -6 70q-12 4 -23.5 5t-23.5 5q-10 -2 -13.5 11.5t-0.5 33t11.5 39t24.5 31.5h123q84 4 102 -6q20 -10 29 -29 q18 -33 8 -57q-4 -10 -17 -13.5t-30 -3.5q-14 0 -31.5 -4t-17.5 -37q-4 -111 -5 -242.5t-1 -265.5v-167v-195l2 -225l2 -410v-84q2 -20 1 -42.5t-5 -47.5q-6 -49 41 -59q45 -12 43 -49t-41 -46h-66h-36q-18 0 -39 -2q-83 -1 -101 17q-6 20 -1 35.5z" />
<glyph unicode="&#xce;" horiz-adv-x="430" d="M-6 1447.5q8 53.5 37.5 114t67.5 116t61 73.5l-6 -6q10 10 19 15t20 12q4 2 14 4t22 2q27 0 37 -13q29 -16 59.5 -54t56.5 -82t46.5 -87t28.5 -69v-3q2 -2 2 -6q0 -2 2 -4l-2 2q2 -10 3 -19t1 -20q0 -6 -6 -20t-14.5 -25.5t-18.5 -15.5t-18 10q-14 4 -19.5 16.5 t-15.5 20.5q-10 29 -43 80t-66 106q-10 16 -18 33t-19 33q-16 -29 -37.5 -69t-44.5 -81q-33 -53 -62.5 -94t-57.5 -37q-37 14 -29 67.5zM65 -691.5q5 15.5 15 25t20.5 15.5t16.5 10q14 6 18 20.5t2 45.5q-4 43 -2 102t2 158v108q0 74 1 165t1 196v198q0 94 -1 171t-1 114 q2 2 2 16v31v74v45v49q0 39 -3 75t-7 52q0 2 6 68q10 66 -6 69q-12 4 -23.5 5t-23.5 5q-10 -2 -13 11.5t0 33t11 39t24 31.5h123q84 4 103 -6q20 -10 28 -29q18 -33 9 -57q-4 -10 -17.5 -13t-30.5 -3q-14 0 -31.5 -4.5t-17.5 -36.5q-4 -111 -5 -243t-1 -265v-168v-195 l2 -225l2 -410v-84q2 -20 1 -42.5t-5 -47.5q-6 -49 41 -59q45 -12 43 -49t-41 -45h-65h-37q-18 0 -39 -2q-82 -2 -100 16q-6 20 -1 35.5z" />
<glyph unicode="&#xcf;" horiz-adv-x="389" d="M31.5 1488q7.5 27 46.5 68l-12 -8q10 10 21 18.5t22 16.5q6 6 21 10t28.5 2t21.5 -8t2 -20q4 -12 -3 -26.5t-9 -24.5q-18 -25 -26.5 -41.5t-17.5 -25.5t-22.5 -12t-40.5 -3q-39 27 -31.5 54zM40 -703.5q5 15.5 15.5 24.5t20.5 15.5t16 10.5q14 6 18.5 20.5t2.5 44.5 q-4 43 -2 102.5t2 157.5v109q0 74 1 165t1 195v199q0 94 -1 171t-1 114q2 2 2 16v31v73v46v49q0 39 -3 74.5t-8 52.5q0 2 7 67q10 66 -7 70q-12 4 -23 5t-24 5q-10 -2 -13 11.5t0 33t11 39t25 31.5h123q84 4 102 -6q20 -10 29 -29q18 -33 8 -57q-4 -10 -17.5 -13.5 t-29.5 -3.5q-14 0 -31.5 -4t-17.5 -37q-4 -111 -5 -242.5t-1 -265.5v-168v-194l2 -225l2 -410v-84q2 -20 1 -42.5t-5 -47.5q-6 -49 41 -59q45 -12 43 -49t-41 -46h-66h-37q-18 0 -39 -2q-82 -1 -100 17q-6 20 -1 35.5zM234.5 1486q7.5 27 46.5 68l-13 -8q10 10 21.5 18.5 t21.5 16.5q6 6 21.5 10t29 2t21.5 -8t2 -20q4 -12 -3 -26.5t-9 -25.5q-18 -25 -26.5 -41t-18 -25t-22.5 -12t-40 -3q-39 27 -31.5 54z" />
<glyph unicode="&#xd0;" horiz-adv-x="1902" d="M53 1323q0 -14 12.5 -34.5t30.5 -20.5h422q29 -4 63.5 -7.5t69.5 -6.5t68 -4t57 -1l8 -16v-27q0 -20 1 -48t1 -56v-45q0 -111 -3 -221.5t-5 -221.5q-98 2 -193.5 1t-171 -9t-120.5 -21.5t-41 -35.5q10 -25 61.5 -32t112.5 -7q14 0 48 -1t81 -3t104.5 -4t116.5 -4 q-4 -154 0 -308q2 -8 -1 -37.5t-7 -37.5q0 -2 -7 -8.5t-14.5 -13.5t-14.5 -13t-7 -8q-4 -12 -4 -31q0 -18 4 -31l-27 -6q-12 0 -46 1t-70 1q-37 0 -70 -1t-45 -1q-121 -10 -197.5 -54t-146.5 -134q-20 -27 -31.5 -54.5t-11.5 -62.5q0 -84 36 -140.5t93 -93t131 -57 t149.5 -30t148.5 -10.5t128 -1q98 0 193.5 12.5t187.5 47.5q145 59 276 161.5t230.5 233.5t158 283.5t58.5 314.5t-61.5 302t-164 255t-236.5 200t-280 134q-55 18 -125.5 30.5t-149.5 18.5t-162 9t-161 3h-231q-33 0 -69.5 -1t-71.5 -1h-45q-16 -4 -38 -14t-22 -33z M199 -311q0 51 27.5 87t69.5 59.5t90 36.5t89 19h27q18 0 39.5 1.5t40.5 1.5h61q23 0 44.5 -1.5t35.5 -1.5h18q18 0 52 -2t66 -9t56.5 -23.5t24.5 -46.5q0 -39 -19.5 -60.5t-49 -32t-63.5 -12.5t-60 -2q-41 0 -78 4t-76 4q-51 0 -51 -47q0 -23 15 -39t36.5 -25.5t45.5 -13.5 t42 -4q57 0 122.5 5t123 26.5t95.5 64.5t38 117q0 49 -13.5 81t-38 52.5t-58 36t-72.5 31.5q-8 0 -9 8l19 25l1 31q1 32 2 76t3 90t2 77v191q59 -4 114.5 -6.5t99.5 -4.5t73.5 -4t36.5 -2q10 4 24.5 3t24.5 9q16 0 18 10.5t-3 24t-14 24.5t-16 15q-8 4 -16 9.5t-18 9.5 q-20 6 -110.5 14t-213.5 14v56q0 14 1 57t3 90t3 91t1 63q0 4 1 19t3 31.5t3 32t1 19.5q2 29 1 48.5t-1 35.5t1 32.5t8 39.5q4 14 7 16t13 2q53 0 117.5 -19.5t111.5 -41.5q115 -51 219.5 -124t184.5 -167t127 -208t47 -249q0 -158 -52 -296t-142.5 -253.5t-211 -207 t-258.5 -154.5q-4 -2 -16 -5t-16 -5q-10 -2 -32 -5.5t-46.5 -6.5t-47 -7t-30.5 -6h-35q-25 0 -53.5 -1t-52.5 -1h-82q-29 0 -56.5 1t-50.5 1h-22q-43 0 -102.5 10t-114 33t-92 61.5t-37.5 96.5zM1204 588l17 -6q-12 4 -17 6z" />
<glyph unicode="&#xd1;" horiz-adv-x="1671" d="M-138.5 -384q-11.5 -54 11.5 -124q-2 -20 25.5 -46t65.5 -49.5t76 -38.5t54 -15q92 0 169 15t135.5 52t94 100.5t46.5 159.5v68q0 49 1 103.5t1 103.5v63q0 211 -5.5 421t-5.5 421v123l9 8q4 -4 16 -12t26.5 -16.5t27 -14.5t18.5 -8q20 -12 77.5 -41t123 -60.5t124 -59.5 t80.5 -38q33 -27 70 -51.5t72.5 -51t68.5 -58t60 -70.5q53 -76 77.5 -166t24.5 -182q0 -27 -9.5 -44.5t-9.5 -41.5q0 -41 33 -51.5t70 -10.5h45h35q25 14 24 43q0 25 -11 36l-23.5 23.5t-23.5 29t-11 50.5q0 55 8 124t10 126q0 6 1 29.5t3 51.5t3 52.5t1 30.5q4 147 2 293.5 t17 294.5q20 16 31.5 30.5t11.5 41.5q0 29 -21.5 38t-44.5 9q-25 0 -30 2q-6 0 -23.5 2t-37 5t-37 6t-23.5 5q-23 -2 -37.5 -11t-14.5 -32q0 -39 32 -56.5t63 -29.5q4 -6 7 -22.5t3 -22.5q0 -14 -1 -38.5t-4 -51.5t-6 -53.5t-7 -44.5v-390q0 -2 -3.5 -5t-5.5 -5h-4 q-14 0 -29.5 13.5t-30 31t-27.5 35t-21 25.5q-47 41 -97.5 76.5t-101.5 70.5q-59 39 -121.5 68.5t-126 58.5t-126 59.5t-120.5 71.5q-25 18 -48 64.5t-41.5 93.5t-33 84t-22.5 37h-61q-12 0 -19.5 -19.5t-7.5 -29.5q0 -8 3 -30t7 -46.5t8.5 -46t8.5 -29.5q18 -424 18 -852 v-35q0 -27 -2 -28q0 -23 -1 -67t-1 -101q0 -55 -2 -115.5t-2 -116.5q0 -57 -1 -101t-1 -67q-6 -59 -32 -99t-65.5 -63.5t-90 -34t-105.5 -10.5h-62q-47 18 -65 50t-18 79v46q4 4 12 10t14 6h170q14 0 20.5 19.5t6.5 29.5q0 20 -18.5 33.5t-43 19.5t-50.5 8.5t-38 2.5 q-10 0 -31.5 -3.5t-45 -9.5t-45 -16t-29.5 -23q-29 -45 -40.5 -99zM567 1573q0 -45 30 -85t71 -40q25 0 55.5 13.5t30.5 47.5q0 35 -29 35q-18 0 -26.5 -14t-24.5 -14t-31.5 19t-15.5 34q0 29 26.5 40t46.5 11q43 0 79 -14.5t70 -36t66.5 -47t69.5 -45.5q63 -31 132 -39 t140 -8h13q8 0 17 1t20 1h12q47 10 77.5 43.5t30.5 89.5q0 57 -32.5 83.5t-79.5 26.5q-25 0 -43.5 -15t-18.5 -46q0 -12 5.5 -22.5t19.5 -10.5h6l2 2q4 0 12.5 11.5t12.5 15.5h4q18 0 36.5 -12.5t18.5 -34.5q0 -23 -12 -36.5t-29.5 -19.5t-36 -8t-30.5 -2q-74 0 -127.5 9.5 t-99.5 28.5t-92 49t-107 73q-29 23 -66 27t-72 4q-47 0 -89 -25t-42 -90z" />
<glyph unicode="&#xd2;" horiz-adv-x="1456" d="M25 449q0 152 36.5 290t81.5 285q31 82 76 151.5t105.5 121t135.5 81t165 29.5q8 0 33.5 -1t33.5 -1q18 -29 38 -26t48 1q88 -4 166 -25.5t154 -68.5q80 -47 131 -96t82.5 -108.5t48 -131t26.5 -162.5v-34q0 -25 1.5 -52.5t1.5 -52.5v-35q0 -147 -19.5 -300.5t-70 -295 t-139.5 -260t-230 -194.5q-47 -25 -95.5 -43.5t-101.5 -18.5q-96 0 -170 18.5t-135 55.5t-115.5 93.5t-109.5 131.5q-57 78 -92 153t-54.5 152.5t-25.5 162t-6 180.5zM125 442q0 -72 2 -148.5t25 -148.5q33 -96 83 -191t120.5 -171t160.5 -123t205 -47q59 0 112.5 23.5 t104.5 54.5q104 61 172 168.5t106.5 234.5t54 259t15.5 241q0 37 -5 112.5t-18.5 156.5t-39 150.5t-66.5 96.5l-49 25q-4 2 -15.5 9t-24.5 15t-24.5 16.5t-13.5 10.5q-53 31 -120.5 53.5t-127.5 22.5q-61 0 -97 -43t-36 -101q0 -37 29 -57.5t63 -20.5h23q12 0 22 11 q-10 10 -30.5 31.5t-20.5 43.5q0 27 19.5 35t40.5 8q53 0 98 -28.5t45 -85.5q0 -78 -50 -110t-122 -32q-49 0 -93 16.5t-77 47.5t-52.5 73t-19.5 93q0 41 19.5 81t40.5 70q-2 2 -13 2h-10q-51 0 -97 -27.5t-85 -68.5t-68.5 -89t-48.5 -87q-51 -145 -94 -286.5t-43 -295.5z M487 1845q18 20 47 14t61 -28.5t63.5 -57t58 -69.5t46 -67t25.5 -48l-6 17q8 -16 10.5 -28.5t6.5 -25.5q0 -8 -3 -22t-9.5 -26.5t-15.5 -17.5t-19 7q-16 0 -23.5 13.5t-17.5 17.5q-16 25 -57.5 70.5t-82.5 93.5q-39 47 -66.5 91t-17.5 66z" />
<glyph unicode="&#xd3;" horiz-adv-x="1437" d="M41 346q0 152 37 290t82 286q31 82 76 151.5t105 120.5t135 81t165 30q8 0 33.5 -1t34.5 -1q18 -29 37.5 -26t48.5 1q88 -4 165.5 -25.5t153.5 -68.5q80 -47 131 -96.5t83 -108.5t48.5 -131t26.5 -162v-35q0 -25 1 -52.5t1 -51.5v-35q0 -147 -19.5 -301t-69.5 -295 t-139.5 -260t-230.5 -195q-47 -25 -95 -43t-101 -18q-96 0 -170 18.5t-135.5 55.5t-116 93t-109.5 132q-57 78 -92 152.5t-54.5 152.5t-25.5 162t-6 180zM141 340q0 -72 2 -148.5t25 -148.5q33 -96 83 -191.5t120.5 -171t161 -122.5t204.5 -47q59 0 112.5 23.5t104.5 53.5 q104 61 172 169t107 235t54.5 259t15.5 241q0 37 -5.5 112.5t-18.5 156.5t-39 150.5t-66 96.5l-50 24q-4 2 -15 9.5t-24.5 15.5t-24.5 16t-13 10q-53 31 -121 53.5t-127 22.5q-61 0 -97 -43t-36 -100q0 -37 28.5 -57.5t63.5 -20.5h22q12 0 23 10q-10 10 -30.5 31.5 t-20.5 44.5q0 27 19.5 35t39.5 8q53 0 98 -28.5t45 -86.5q0 -78 -50 -109.5t-122 -31.5q-49 0 -93 16.5t-76.5 47t-52 72.5t-19.5 93q0 41 19.5 81t39.5 71q-2 2 -12 2h-10q-51 0 -97.5 -27.5t-85.5 -68.5t-68.5 -89t-47.5 -87q-51 -145 -94.5 -286.5t-43.5 -295.5z M556 1439q-5 9 7 19q0 16 13.5 23.5t17.5 17.5q25 16 71 57t93 82q47 39 91 67t66 17q33 -29 6.5 -74.5t-75.5 -94t-104.5 -86.5t-82.5 -46l17 6q-16 -8 -28.5 -10t-24.5 -6q-8 0 -22.5 3t-27 9.5t-17.5 15.5z" />
<glyph unicode="&#xd4;" horiz-adv-x="1503" d="M86 428q0 152 37 290t82 286q31 82 76 151.5t105 120.5t135 80.5t165 29.5q8 0 33.5 -1t34.5 -1q18 -29 37.5 -25.5t48.5 1.5q88 -4 165.5 -25.5t153.5 -68.5q80 -47 131 -96.5t83 -109t48.5 -131t26.5 -161.5v-35q0 -25 1 -52.5t1 -51.5v-35q0 -147 -19.5 -301 t-69.5 -295t-139 -260t-231 -195q-47 -25 -95 -43t-101 -18q-96 0 -170 18.5t-135.5 55t-116 93t-109.5 132.5q-57 78 -92 152.5t-54.5 152.5t-25.5 162t-6 180zM186 422q0 -72 2 -148.5t25 -148.5q33 -96 83 -191.5t120.5 -171t161 -123t204.5 -47.5q59 0 112.5 24 t104.5 54q104 61 172 169t107 235t54.5 259t15.5 240q0 37 -5.5 113t-18.5 157t-38.5 150.5t-66.5 96.5l-50 24q-4 2 -15 9t-24.5 15.5t-24.5 16.5t-13 10q-53 31 -121 53.5t-127 22.5q-61 0 -97 -43t-36 -100q0 -37 28.5 -57.5t63.5 -20.5h22q12 0 23 10q-10 10 -30.5 31.5 t-20.5 44.5q0 27 19.5 35t39.5 8q53 0 98 -28.5t45 -86.5q0 -78 -50 -109.5t-122 -31.5q-49 0 -93 16.5t-76.5 47t-52 72.5t-19.5 93q0 41 19.5 81t39.5 71q-2 2 -12 2h-10q-51 0 -97.5 -27.5t-85.5 -68.5t-68.5 -89.5t-47.5 -86.5q-51 -145 -94.5 -286.5t-43.5 -295.5z M528.5 1537.5q8.5 53.5 38 114t67.5 116t60 73.5l-6 -6q10 10 19.5 15t19.5 12q4 2 14.5 4t22.5 2q27 0 37 -13q29 -16 59.5 -54t56 -82t46 -87t28.5 -69v-2q2 -2 2 -7q0 -2 2 -4l-2 2q2 -10 3 -19t1 -20q0 -6 -6 -20t-14 -25.5t-18.5 -15.5t-18.5 10q-14 4 -19.5 16.5 t-15.5 20.5q-10 29 -43 80t-65 107q-10 16 -18.5 32.5t-18.5 32.5q-16 -29 -38 -69l-44 -80q-33 -53 -62.5 -94.5t-58.5 -37.5q-37 14 -28.5 67.5z" />
<glyph unicode="&#xd5;" horiz-adv-x="1466" d="M70 383q0 152 36.5 290t81.5 285q31 82 76 152t105.5 121t135.5 80.5t165 29.5q8 0 33.5 -1t33.5 -1q18 -29 38 -25.5t48 1.5q88 -4 166 -25.5t154 -68.5q80 -47 131 -96.5t83 -109t48 -131t27 -161.5v-35q0 -25 1 -52.5t1 -51.5v-35q0 -147 -19.5 -301t-70 -295 t-139.5 -260t-230 -195q-47 -25 -95.5 -43t-101.5 -18q-96 0 -169.5 18.5t-135 55t-116 93t-109.5 132.5q-57 78 -92 152.5t-54.5 152.5t-25.5 162t-6 180zM170 377q0 -72 2 -148.5t25 -148.5q33 -96 83 -191.5t120.5 -171t160.5 -123t205 -47.5q59 0 112.5 23.5t104.5 54.5 q104 61 172 169t106.5 235t54 259t15.5 240q0 37 -5 113t-18.5 157t-39 150.5t-66.5 95.5l-49 25q-4 2 -15.5 9t-24.5 15.5t-24.5 16.5t-13.5 10q-53 31 -120.5 53.5t-127.5 22.5q-61 0 -97 -43t-36 -100q0 -37 29 -57.5t63 -20.5h23q12 0 22 10q-10 10 -30.5 31.5 t-20.5 44.5q0 27 19.5 35t40.5 8q53 0 98 -28.5t45 -86.5q0 -78 -50 -109.5t-122 -31.5q-49 0 -93 16.5t-77 47t-52.5 72.5t-19.5 93q0 41 19.5 81t40.5 71q-2 2 -13 2h-10q-51 0 -97 -27.5t-85 -68.5t-68.5 -89.5t-48.5 -87.5q-51 -145 -94 -286t-43 -295zM369 1556 q0 -45 29.5 -84.5t70.5 -39.5q25 0 55.5 13t30.5 48t-29 35q-18 0 -26 -14.5t-25 -14.5q-16 0 -31.5 19.5t-15.5 33.5q0 29 27 40.5t47 11.5q43 0 78.5 -14.5t69.5 -36t67 -47t69 -46.5q63 -31 132 -39t141 -8h12q8 0 17.5 1t19.5 1h12q47 10 78 44t31 89q0 57 -33 84 t-80 27q-25 0 -43 -15.5t-18 -46.5q0 -12 5 -22t19 -10h6l2 2q4 0 12.5 11t12.5 15h4q18 0 36.5 -12t18.5 -35t-12 -36t-29.5 -19t-36 -8t-30.5 -2q-74 0 -127 9t-99 28.5t-92.5 49t-107.5 72.5q-29 23 -65.5 27t-71.5 4q-47 0 -89 -24.5t-42 -90.5z" />
<glyph unicode="&#xd6;" horiz-adv-x="1429" d="M35 379q0 152 37 290t82 285q31 82 75.5 152t105 121t135.5 80.5t165 29.5q8 0 33.5 -1t33.5 -1q18 -29 38 -25.5t48 1.5q88 -4 166 -25.5t154 -68.5q80 -47 131 -96.5t83 -109t48 -131t27 -161.5v-35q0 -25 1 -52.5t1 -51.5v-35q0 -147 -19.5 -301t-69.5 -295.5 t-139.5 -260t-230.5 -194.5q-47 -25 -95 -43t-102 -18q-96 0 -169.5 18.5t-135 55t-116 93t-109.5 132.5q-57 78 -92 152.5t-54.5 152.5t-25.5 162t-6 180zM135 373q0 -72 2 -149t25 -148q33 -96 83 -191.5t120.5 -171t160.5 -123t205 -47.5q59 0 112.5 23.5t104.5 54.5 q104 61 172 169t107 235t54 259t15 240q0 37 -5 113t-18 156.5t-39 150.5t-67 96l-49 25q-4 2 -15 9t-24.5 15.5t-25 16.5t-13.5 10q-53 31 -120.5 53.5t-126.5 22.5q-61 0 -97.5 -43t-36.5 -100q0 -37 29 -57.5t64 -20.5h22q12 0 23 10q-10 10 -31 31.5t-21 44.5 q0 27 19.5 35t40.5 8q53 0 98 -29t45 -86q0 -78 -50 -109.5t-122 -31.5q-49 0 -93 16.5t-77 47t-52 72.5t-19 93q0 41 19 81t40 71q-2 2 -12 2h-11q-51 0 -97 -28t-85 -68.5t-68.5 -89t-48.5 -87.5q-51 -145 -94 -286t-43 -295zM691 1433.5q-3 -28.5 16 -40.5q27 0 50 18.5 t44.5 46t41 58t38.5 55.5q2 10 9 24.5t3 26.5q6 14 -2 20.5t-21.5 7.5t-29 -2t-21.5 -10q-10 -8 -21.5 -16t-21.5 -18l12 8q-18 -20 -40.5 -52t-38 -65t-18.5 -61.5zM894 1431.5q-3 -28.5 15 -40.5q27 0 50.5 18t45 46t41 58.5t37.5 55.5q2 10 9.5 24.5t3.5 26.5 q6 14 -2.5 20.5t-21.5 7.5t-28.5 -2.5t-21.5 -9.5q-10 -8 -21.5 -16t-21.5 -18l12 8q-18 -20 -40.5 -52t-38 -65t-18.5 -61.5z" />
<glyph unicode="&#xd7;" horiz-adv-x="716" d="M4 205q10 -14 19.5 -26.5t19.5 -26.5l43 -5l55 41q49 55 100.5 116t96.5 112q10 12 13 15t16 3q2 0 5 -1t5 -1q8 -8 28.5 -26.5t45 -38t46 -38t31.5 -24.5q18 -16 50 -54t53 -63q6 -8 29.5 -3t36 28t-3 64.5t-87.5 107.5q-2 2 -11 9t-20.5 14.5t-20.5 14.5t-11 9l-94 94 v11q0 14 10 31.5t24.5 32.5t28.5 28.5t23 23.5q2 2 11 11.5t18 21.5t17.5 22.5t10.5 14.5q10 12 26.5 17t33 9.5t28.5 12.5t12 24q0 35 -25.5 49.5t-54.5 14.5q-37 0 -75.5 -36t-74.5 -79t-63.5 -78.5t-44.5 -35.5q-20 0 -22 8l-176 188q-16 18 -38 25.5t-44 7.5 q-29 0 -41.5 -11.5t-12.5 -43.5q0 -16 8.5 -26.5t19.5 -19t23.5 -16.5t22.5 -18l174 -180q2 -2 4 -8.5t2 -8.5t-5 -10t-9 -12q-61 -86 -122.5 -153t-133.5 -138z" />
<glyph unicode="&#xd8;" horiz-adv-x="1443" d="M47 365q0 -96 6 -180.5t25.5 -162t54.5 -152.5t92 -153l37 -49q-84 -150 -133 -247t-45 -109q2 -27 20.5 -18.5t52 46t79 101t98.5 145.5q84 -86 181 -127t241 -41q53 0 101 18.5t95 43.5q141 76 230.5 194.5t139.5 260t69.5 295t19.5 300.5v35q0 25 -1 52.5t-1 52.5v35 q-8 70 -19.5 127t-30 107t-46 92t-68.5 81q16 29 27.5 47.5t17.5 24.5q8 14 24.5 33.5t20.5 42.5q12 18 10 31.5t-13 19.5t-25.5 5t-22.5 -9l-57 -43l20 8q-16 -12 -76 -105q-12 10 -24 17.5t-27 17.5q-76 47 -153.5 68.5t-165.5 25.5q-29 2 -48.5 -1t-37.5 26q-8 0 -34 1 t-34 1q-90 0 -164.5 -29.5t-135 -81t-105.5 -121t-76 -151.5q-45 -147 -82 -285.5t-37 -289.5zM147 358q0 154 43 295.5t95 286.5q18 39 47.5 87t68.5 89t85 68.5t98 27.5h10q10 0 12 -2q-20 -31 -39.5 -70.5t-19.5 -80.5q0 -51 19.5 -93t52 -73t76.5 -47.5t93 -16.5 q72 0 122.5 32t50.5 110q0 57 -45.5 85.5t-98.5 28.5q-20 0 -39.5 -8t-19.5 -35q0 -23 20.5 -44t30.5 -31q-10 -10 -23 -11h-22q-35 0 -63.5 20.5t-28.5 57.5q0 57 35.5 100.5t97.5 43.5q59 0 126.5 -22.5t121.5 -53.5q4 -4 20.5 -15.5t32.5 -21.5q-74 -115 -172 -274.5 t-204.5 -334.5t-213 -353.5t-194.5 -331.5q-49 66 -85 140.5t-63 149.5q-23 72 -25 148.5t-2 148.5zM395 -319q66 102 138.5 220.5t146.5 242.5t146.5 248t139 238.5t124 214t100.5 173.5q37 -31 60.5 -101.5t36.5 -148.5t17.5 -149.5t4.5 -108.5q0 -109 -15.5 -241 t-54.5 -259t-106.5 -234.5t-171.5 -168.5q-51 -31 -104.5 -54.5t-113.5 -23.5q-106 0 -192 42t-156 110z" />
<glyph unicode="&#xd9;" horiz-adv-x="1548" d="M25 1100q0 86 34.5 154.5t91 115.5t130 72.5t153.5 25.5q78 0 137.5 -31.5t100.5 -85t61.5 -122t20.5 -142.5t-21.5 -141t-55.5 -130.5t-76 -123t-81 -117.5q-41 -61 -79 -130.5t-67.5 -144.5t-47 -150.5t-17.5 -149.5q0 -109 44 -184.5t116 -122.5t165 -67.5t189 -20.5 q94 0 168 21.5t135.5 63.5t111.5 103.5t97 140.5q2 25 7.5 79.5t10.5 121t11 141t10 142t7 121t5 79.5q0 4 1.5 30t1.5 61q0 37 1 78.5t1 78.5v86v66q0 33 -1 75t-1 78q0 39 -1.5 71t-1.5 44q0 8 -3 30.5t-5 31.5q-4 27 -19.5 41t-15.5 38q0 37 21.5 48.5t56.5 11.5 q31 0 47.5 -14.5t23.5 -36t7 -47.5v-50q0 -6 2 -29.5t3 -49t3 -49t2 -29.5v-17q0 -326 -16 -643t-45 -639v-53v-84q0 -43 16 -80q8 -18 23.5 -25.5t30 -14.5t24.5 -18t10 -36q0 -35 -25.5 -45t-53.5 -10q-41 0 -65 17t-38 45t-22.5 59.5t-20.5 62.5q-94 -113 -215 -161 t-262 -48q-121 0 -237.5 25.5t-209 83t-148.5 152t-56 233.5q0 80 17 161.5t46 162.5t66 157t78 143q4 6 23.5 36t42 63.5t41.5 62.5t24 37q14 25 31.5 56.5t33.5 65.5t27.5 67.5t11.5 64.5q0 37 -6 77t-20.5 77.5t-38 69.5t-56.5 52q-6 4 -23.5 6.5t-35.5 2.5h-35h-25 q-53 0 -100 -19.5t-82 -53.5t-54.5 -81t-19.5 -100q0 -31 9.5 -62t26 -55.5t42 -39.5t60.5 -15q18 0 44.5 8t49 23.5t39 36t16.5 44.5q0 25 -15.5 33t-32.5 14t-32.5 16.5t-15.5 35.5q0 29 18.5 52t46.5 23q33 0 60.5 -17t48 -45t33 -60.5t12.5 -61.5q0 -49 -26.5 -90 t-68.5 -68.5t-91.5 -43t-92.5 -15.5q-59 0 -105 24.5t-79 65.5t-50 94t-17 109zM823 1767q18 20 46 15.5t60 -27t63.5 -57.5t59 -71t47 -68t25.5 -48l-6 17q8 -16 10 -28.5t7 -24.5q0 -8 -3.5 -22.5t-9.5 -27t-15 -17.5t-20 7q-16 0 -23 13.5t-17 17.5q-16 25 -57.5 71 t-82.5 93q-39 47 -66.5 91t-17.5 66z" />
<glyph unicode="&#xda;" horiz-adv-x="1595" d="M53 1114q0 86 35 154.5t91.5 116t130 73t153.5 25.5q78 0 137 -32t100 -85t61.5 -121.5t20.5 -142.5t-21.5 -141.5t-55 -131t-75.5 -123t-81 -116.5q-41 -61 -79 -131t-67.5 -144.5t-47 -150.5t-17.5 -150q0 -109 44 -184.5t115.5 -122.5t165 -67.5t189.5 -20.5 q94 0 168 21.5t135.5 63.5t111.5 103.5t97 141.5q2 25 7 79t10 120.5t11.5 141.5t10.5 142.5t7 120.5t5 80q0 4 1 29.5t1 60.5q0 37 1 79t1 79v86v65q0 33 -1 75t-1 79q0 39 -1 70.5t-1 43.5q0 8 -3 31t-5 31q-4 27 -19.5 41t-15.5 39q0 37 21.5 48t56.5 11q31 0 47 -14 t23.5 -35.5t7.5 -48.5v-49q0 -6 2 -30t3 -49.5t3 -49t2 -29.5v-16q0 -326 -16.5 -643.5t-44.5 -638.5v-54v-84q0 -43 16 -79q8 -18 23.5 -25.5t30 -15t24.5 -18.5t10 -36q0 -35 -25.5 -45t-54.5 -10q-41 0 -64.5 17.5t-38 45t-22.5 59.5t-20 62q-94 -113 -215 -161t-262 -48 q-121 0 -238 26t-209 83t-148.5 151.5t-56.5 233.5q0 80 17.5 162t46 163t65.5 156.5t78 143.5q4 6 23.5 35.5t42 63.5t42 62.5t23.5 36.5q14 25 31.5 56.5t34 65.5t28 68t11.5 64q0 37 -6.5 77t-20.5 78t-37.5 69.5t-56.5 52.5q-6 4 -23.5 6t-36.5 2h-34h-25 q-53 0 -100 -19.5t-82 -53.5t-54.5 -81t-19.5 -100q0 -31 9.5 -61.5t25.5 -55t41.5 -40t60.5 -15.5q18 0 45 8t49.5 23.5t39 36t16.5 45.5t-15.5 33t-33 14t-32.5 16t-15 35q0 29 18 52.5t47 23.5q33 0 60.5 -17.5t48 -45t33 -60.5t12.5 -62q0 -49 -27 -90t-69 -68.5 t-91 -43t-92 -15.5q-59 0 -105 24.5t-79 65.5t-50.5 94.5t-17.5 108.5zM904 1529q-5 9 7 19q0 16 13.5 23.5t17.5 17.5q25 16 71 57.5t93 82.5q47 39 91 66.5t67 16.5q33 -29 6 -74.5t-76 -94t-104 -86.5t-82 -46l16 7q-16 -8 -28.5 -10.5t-24.5 -6.5q-8 0 -22.5 3t-27 9.5 t-17.5 15.5z" />
<glyph unicode="&#xdb;" horiz-adv-x="1636" d="M41 1106q0 86 35 154.5t91 115.5t130 73t154 26q78 0 137 -32t100 -85t61.5 -122t20.5 -142q0 -74 -21.5 -141.5t-55.5 -131t-76 -123t-80 -116.5q-41 -61 -79 -131t-68 -145t-47 -150.5t-17 -149.5q0 -109 44 -184.5t115.5 -122.5t164.5 -67.5t190 -20.5 q94 0 167.5 21.5t135 63.5t112 103.5t97.5 141.5q2 25 7 79t10 120.5t11 141t10.5 142.5t7.5 121t5 80q0 4 1 29.5t1 60.5q0 37 1 79t1 78v86v66q0 33 -1 75t-1 79q0 39 -1 70.5t-1 43.5q0 8 -3 31t-5 31q-4 27 -19.5 41t-15.5 39q0 37 21.5 48t56.5 11q31 0 47 -14.5 t23.5 -36t7.5 -47.5v-49q0 -6 2 -30t3 -49.5t3 -49t2 -29.5v-17q0 -326 -16.5 -643t-45.5 -639v-53v-84q0 -43 17 -80q8 -18 23.5 -25t29.5 -14.5t24.5 -18.5t10.5 -36q0 -35 -25.5 -45t-54.5 -10q-41 0 -64.5 17.5t-38 45t-22.5 59t-21 62.5q-94 -113 -214.5 -161 t-262.5 -48q-121 0 -237.5 25.5t-208.5 83t-148.5 152t-56.5 233.5q0 80 17.5 162t46 162.5t65.5 156.5t78 143q4 6 23.5 36t42 64t42 62.5t23.5 36.5q14 25 31.5 56.5t34 65.5t27.5 67.5t11 64.5q0 37 -6 77t-20.5 78t-38 69.5t-55.5 52.5q-6 4 -23.5 6t-36.5 2h-35h-24 q-53 0 -100.5 -19.5t-82 -53.5t-54 -81t-19.5 -100q0 -31 9 -61.5t25.5 -55.5t42 -40t60.5 -15q18 0 45 8t49.5 23.5t39 36t16.5 44.5q0 25 -15.5 33t-33 14.5t-33 16.5t-15.5 35q0 29 18.5 52t47.5 23q33 0 60.5 -17t48 -45t32.5 -60.5t12 -61.5q0 -49 -26.5 -90 t-68.5 -68.5t-91 -43t-92 -15.5q-59 0 -105.5 24.5t-79 65.5t-50 94.5t-17.5 108.5zM792.5 1550.5q8.5 53.5 38 113.5t67.5 115.5t60 73.5l-6 -6q10 10 19.5 15.5t19.5 11.5q4 2 14.5 4t22.5 2q27 0 37 -12q29 -16 59.5 -54t56 -82t46 -87t28.5 -70v-2q2 -2 2 -6q1 -2 3 -4 l-3 2q2 -10 3.5 -19.5t1.5 -19.5q0 -6 -6.5 -20.5t-14.5 -26t-18.5 -15.5t-18.5 11q-14 4 -19 16t-16 20q-10 29 -42.5 80t-65.5 107q-10 16 -18.5 32.5t-18.5 32.5q-16 -29 -37.5 -68.5t-44.5 -80.5q-33 -53 -62.5 -94t-58.5 -37q-37 14 -28.5 67.5z" />
<glyph unicode="&#xdc;" horiz-adv-x="1589" d="M14 1116q0 86 35 154.5t91.5 116t130 73t153.5 25.5q78 0 137.5 -32t100 -85t61 -121.5t20.5 -142.5t-21.5 -141.5t-55 -131t-75.5 -123t-81 -116.5q-41 -61 -79 -131t-67.5 -144.5t-47 -150.5t-17.5 -150q0 -109 44 -184.5t115.5 -122.5t165 -67.5t189.5 -20.5 q94 0 168 21.5t135.5 63.5t111.5 103.5t97 141.5q2 25 7 79t10.5 120.5t11.5 141.5t10 142.5t7 120.5t5 80q0 4 1 29.5t1 60.5q0 37 1 79t1 79v86v65q0 33 -1 75t-1 79q0 39 -1 70.5t-1 44.5q0 8 -3 30.5t-5 30.5q-4 27 -19.5 41t-15.5 39q0 37 21.5 48t56.5 11 q31 0 47.5 -14t23.5 -35.5t7 -48.5v-49q0 -6 2 -29.5t3 -49.5t3 -49.5t2 -29.5v-16q0 -326 -16.5 -643.5t-44.5 -638.5v-54v-84q0 -43 16 -79q8 -18 23.5 -25.5t30 -15t24.5 -18.5t10 -36q0 -35 -25.5 -45t-54.5 -10q-41 0 -64.5 17.5t-37.5 45t-22.5 59.5t-20.5 62 q-94 -113 -215 -161t-262 -48q-121 0 -238 26t-209 83t-148.5 151.5t-56.5 233.5q0 80 17.5 162t46.5 163t65.5 156.5t77.5 143.5q4 6 23.5 35.5t42 63.5t42 62.5t23.5 36.5q14 25 31.5 56.5t34 65.5t28 68t11.5 64q0 37 -6.5 77t-20.5 78t-37.5 69.5t-56.5 52.5 q-6 4 -23.5 6t-35.5 2h-35h-25q-53 0 -100 -19.5t-82 -53.5t-54.5 -81t-19.5 -100q0 -31 9.5 -61.5t25.5 -55t42 -40t60 -15.5q18 0 45 8t49.5 23.5t39 36t16.5 45.5t-15.5 33t-33 14t-32.5 16t-15 35q0 29 18 52.5t47 23.5q33 0 60.5 -17.5t48 -45t33 -60.5t12.5 -62 q0 -49 -26.5 -90t-68.5 -68.5t-91.5 -43t-92.5 -15.5q-59 0 -105 24.5t-79 65.5t-50.5 94.5t-17.5 108.5zM834.5 1482.5q-3.5 -28.5 15.5 -40.5q27 0 50.5 18.5t45 46t41 58t37.5 55.5q2 10 9 24.5t3 26.5q6 14 -2 20.5t-21.5 7.5t-28.5 -2t-21 -9q-10 -8 -21.5 -16.5 t-21.5 -18.5l12 8q-18 -20 -41 -52t-38 -65t-18.5 -61.5zM1037 1480.5q-3 -28.5 16 -40.5q27 0 50 18.5t44.5 46t41 58t38.5 55.5q2 10 9 24.5t3 26.5q6 14 -2 20.5t-21.5 7.5t-29 -2t-21.5 -9q-10 -8 -21 -16.5t-22 -18.5l13 8q-18 -20 -41 -52t-38.5 -65t-18.5 -61.5z" />
<glyph unicode="&#xdd;" horiz-adv-x="1304" d="M41 -319q0 90 61.5 147t148.5 89t180 44t159 12q35 0 76 -9t74.5 -27.5t56 -49t22.5 -73.5q0 -35 -17.5 -61.5t-44 -45t-58 -28t-60.5 -9.5q-23 0 -48.5 9.5t-25.5 37.5q0 27 20.5 37t44 16.5t44 15.5t20.5 36q0 23 -35.5 29t-66.5 6h-33q-39 0 -106.5 -6.5t-133 -25 t-113.5 -54t-48 -93.5q0 -45 28.5 -74.5t73.5 -50t101.5 -31.5t109.5 -17.5t99 -7.5t71 -1q55 0 103.5 4t93.5 11.5t91 20.5t99 32q20 14 38.5 41.5t32 59.5t20.5 64.5t7 59.5v281q-29 0 -50 -22.5t-48 -33.5q-41 -16 -87 -21t-91 -5q-80 0 -166 35q-72 27 -113 67.5 t-62.5 91.5t-30.5 111.5t-19 128.5v559q0 25 -9.5 53.5t-25.5 54t-40 43t-50 17.5q-25 0 -48.5 -9.5t-43 -25.5t-31.5 -37.5t-12 -46.5q0 -29 18.5 -39t41 -17t40.5 -17.5t18 -38.5q0 -31 -22.5 -38.5t-46.5 -7.5q-31 0 -61.5 12.5t-56.5 34t-41 50t-15 63.5q0 49 24.5 94 t63.5 78t86 52.5t94 19.5q57 0 98 -27.5t69 -70.5t44 -95.5t22 -101.5v-125q0 -92 -4 -178t-4 -178q0 -55 8.5 -124t24.5 -122q12 -43 38 -70.5t59.5 -43t72.5 -21.5t80 -6h27h34q18 0 36 2t30 6q31 12 70.5 32.5t70.5 43.5q8 0 8 8l10 10l5 6v703q6 41 9 66.5t3 53.5v41 q0 27 -1 58t-7 55q-2 4 -9.5 13.5t-9.5 13.5v24q0 35 21.5 43t50.5 8q31 0 55.5 -10t24.5 -47v-26q0 -12 -8 -27v-141q0 -4 -3 -22.5t-6.5 -40t-5.5 -40t-2 -22.5q-16 -240 -10 -477.5t2 -473.5q0 -18 -1 -51t-3 -67.5t-3 -63.5t-1 -35q-10 -127 -64.5 -199.5t-137.5 -110.5 t-184 -48t-206 -10q-43 0 -104.5 3t-129 13t-134 28.5t-119 51.5t-85 81t-32.5 116zM677 1355q-5 9 7 19q0 16 13.5 23.5t17.5 17.5q25 16 70.5 57t93.5 82q47 39 91 67t66 17q33 -29 6.5 -74.5t-75.5 -94t-104.5 -86.5t-82.5 -46l17 6q-16 -8 -28.5 -10t-25.5 -6 q-8 0 -22 3t-26.5 9.5t-17.5 15.5z" />
<glyph unicode="&#xde;" horiz-adv-x="856" d="M131 1438.5q2 -17.5 2 -19.5q0 -98 3 -177t6 -167t4 -200.5t-3 -280.5v-86q-4 -10 -5 -27.5t-3 -23.5l6 -224v-108q0 -98 -2 -157.5t2 -102.5q0 -16 6.5 -23.5t11.5 -11.5t7 -6t-4 -4l43 14q12 4 22.5 3t19.5 -2t14 2t7 16q4 25 5 47t-1 43v84l-2 309h144q100 20 180 50 t134 81t83 127t29 190q0 117 -70 211q-47 61 -103.5 95t-120 49.5t-134 18.5t-144.5 3q-2 86 -3 162t3 154q0 35 -15 52t-36.5 18t-44 -14t-33 -46t-8.5 -48.5zM268 662v204q2 57 4 103.5t2 68.5q10 10 25 11h27q68 0 139.5 -8.5t129.5 -36t95 -80t37 -140.5 q0 -96 -29.5 -160.5t-82 -103.5t-125 -56.5t-158.5 -17.5q-10 0 -31.5 1.5t-30.5 1.5z" />
<glyph unicode="&#xdf;" horiz-adv-x="866" d="M47 -514v-4q0 -6 14.5 -8t33 0t34.5 4t23 6q12 8 18 47t8 93t3 117.5t3 118t4 93.5t11 47h-4h34h201q70 0 139.5 6t124 31.5t88 78t33.5 142.5q0 82 -41 145.5t-98 114.5v14q0 27 9 49.5t9 51.5q0 49 -28.5 86t-73.5 62.5t-99.5 42t-105.5 25.5t-93 12t-61 1 q-35 -4 -58 -20.5t-38.5 -39t-23 -46t-4.5 -41.5q-2 -92 -3.5 -175t-1.5 -175q0 -35 -6 -70t-6 -70q8 0 0 -8t-4 -12q-12 -6 -12 -15q0 -6 4 -14t8 -17t0 -20q-2 -8 -3 -54t-1 -112q0 -68 -1 -144.5t-5 -146t-11.5 -124t-19.5 -72.5zM190 129v43v45q0 25 1.5 56.5t4.5 59 t10 46t19 18.5q82 -4 163 7.5t163 11.5q61 0 98 -46t37 -106q0 -61 -18.5 -89t-50 -40t-72.5 -16t-86 -17h-217q-14 0 -30 6.5t-22 20.5zM207 561v66l12 75q0 4 4 14.5t6 14.5l11 3q10 3 21 6t21 6l11 4q18 0 64 -3.5t94.5 -14.5t85 -32.5t36.5 -58.5q0 -29 -15 -44t-38 -36 q-59 -14 -123.5 -20t-124.5 -6q-4 0 -23.5 1t-23.5 1q-6 4 -10 11t-8 13z" />
<glyph unicode="&#xe0;" horiz-adv-x="995" d="M23 49q0 -35 27.5 -48t60.5 -13h41q25 0 44 14t19 43q0 18 -13.5 31.5t-13.5 34.5q0 35 15.5 65.5t32.5 59.5q20 35 38 70l19 36l35 8h82q72 0 128 -1t128 -7q37 -29 59.5 -85t42.5 -112.5t43 -98.5t59 -42q25 0 45.5 13.5t20.5 41.5q0 25 -12.5 51.5t-22.5 49.5 q-61 129 -132 250.5t-136 251.5q-8 14 -18.5 25t-10.5 28q0 12 6 19t13.5 13.5t13.5 14.5t6 20q0 31 -19.5 44.5t-48 17.5t-59.5 3t-51 -1q-16 0 -40 -1t-47.5 -5t-42 -13.5t-24.5 -25.5q8 -41 -3 -93.5t-32.5 -105.5t-46 -103t-41.5 -87q-4 -6 -20 -38t-33.5 -70t-32 -70.5 t-16.5 -38.5q-2 -4 -6 -14.5t-9 -22t-8.5 -21.5t-3.5 -12q-10 -23 -23 -37t-13 -39zM313 1280q18 20 46 15t60 -27.5t63.5 -57t59 -70.5t47 -68t25.5 -48l-6 16q8 -16 10.5 -28.5t6.5 -24.5q0 -8 -3.5 -22.5t-9.5 -26.5t-15 -17.5t-19 7.5q-16 0 -23.5 13t-17.5 17 q-16 25 -57.5 71t-82.5 93q-39 47 -66.5 91t-17.5 67zM344 483q0 25 12.5 52.5t29.5 57.5t32.5 58.5t21.5 55.5h19l11 -19q11 -18 26.5 -42.5t31 -51.5t25.5 -45q4 -8 17.5 -34t17.5 -36l-17 -8h-200q-2 0 -11.5 3t-13.5 5z" />
<glyph unicode="&#xe1;" horiz-adv-x="948" d="M16 76q0 -35 28 -48.5t60 -13.5h41q25 0 44.5 14.5t19.5 43.5q0 18 -13.5 31.5t-13.5 33.5q0 35 15.5 65.5t31.5 59.5q20 35 39 71l19 36l35 8h81q72 0 128.5 -1t127.5 -7q37 -29 59.5 -85.5t43 -112.5t43 -98t59.5 -42q25 0 45.5 13t20.5 42q0 25 -12.5 51.5t-22.5 48.5 q-61 129 -132 251t-136 251q-8 14 -18.5 25.5t-10.5 27.5q0 12 6 19.5t13.5 13.5t13.5 14.5t6 20.5q0 31 -19.5 44t-48 17t-59.5 3t-51 -1q-16 0 -40 -1t-47.5 -5t-42 -13t-24.5 -26q8 -41 -3 -93t-32.5 -105.5t-46 -103.5t-41.5 -87q-4 -6 -20.5 -37.5t-33.5 -69.5 t-31.5 -71t-16.5 -39q-2 -4 -6 -14t-9.5 -21.5t-8.5 -21.5t-3 -12q-10 -23 -23.5 -37t-13.5 -39zM288 1029q-5 9 7 20q0 16 13.5 23t17.5 18q25 16 70.5 57t92.5 82q47 39 91.5 66.5t66.5 17.5q33 -29 6.5 -75t-76 -94t-104.5 -86t-82 -46l17 6q-16 -8 -28.5 -10t-25.5 -7 q-8 0 -22.5 3.5t-26.5 9.5t-17 15zM338 510q0 25 12 52.5t29.5 57t33 58.5t21.5 55h19l11 -19q11 -18 26.5 -42.5t31 -51t25.5 -45.5q4 -8 17.5 -33.5t17.5 -35.5l-17 -8h-200q-2 0 -11.5 3t-13.5 5z" />
<glyph unicode="&#xe2;" horiz-adv-x="948" d="M0 57q0 -35 27.5 -48t60.5 -13h41q25 0 44.5 14.5t19.5 42.5q0 18 -13.5 31.5t-13.5 34.5q0 35 15.5 65.5t31.5 59.5q20 35 39 70l18 36l35 8h82q72 0 128 -1t128 -7q37 -29 59.5 -85t43 -112.5t43 -98.5t59.5 -42q25 0 45 13.5t20 42.5q0 25 -12 51t-22 49 q-61 129 -132 251t-137 251q-8 14 -18 25.5t-10 27.5q0 12 6 19.5t13 13.5t13.5 14t6.5 21q0 31 -19.5 44t-48.5 17t-59.5 3t-51.5 -1q-16 0 -39.5 -1t-47 -5t-42 -13.5t-24.5 -25.5q8 -41 -3.5 -93t-33 -105.5t-46 -103.5t-40.5 -87q-4 -6 -20.5 -38t-34 -70t-31.5 -70.5 t-17 -38.5q-2 -4 -6 -14.5t-9 -21.5t-8 -21.5t-3 -12.5q-10 -23 -23.5 -37t-13.5 -39zM223 1015.5q8 53.5 38 114t68 115.5t60 74l-6 -6q10 10 19.5 15t19.5 11q4 2 14 4.5t23 2.5q27 0 37 -13q29 -16 59.5 -54t56 -82t46 -87t28.5 -70v-2q2 -2 2 -6q0 -2 2 -4l-2 2 q2 -10 3 -19.5t1 -19.5q0 -6 -6 -20.5t-14 -25.5t-18.5 -15t-18.5 10q-14 4 -19.5 16.5t-15.5 20.5q-10 29 -43 80t-65 106q-10 16 -18.5 32.5t-18.5 33.5q-16 -29 -38 -69t-44 -81q-33 -53 -62.5 -94t-58.5 -37q-37 14 -29 67.5zM322 492q0 25 12 52t29.5 57t33 58.5 t21.5 55.5h18l12 -19q11 -18 26 -42.5t30.5 -51.5t25.5 -45q4 -8 17.5 -33.5t17.5 -36.5l-16 -8h-201q-2 0 -11 3t-13 5z" />
<glyph unicode="&#xe3;" horiz-adv-x="995" d="M29 82q0 -35 27.5 -48.5t60.5 -13.5h41q25 0 44 14.5t19 43.5q0 18 -13 31.5t-13 33.5q0 35 15 66t32 59q20 35 38 71l19 36l35 8h82q72 0 128 -1t128 -7q37 -29 59.5 -85.5t43 -112.5t43 -98t59.5 -42q25 0 45 13t20 42q0 25 -12 51.5t-23 49.5q-61 129 -131.5 250.5 t-136.5 250.5q-8 14 -18.5 25.5t-10.5 28.5q0 12 6.5 19t13.5 13t13 14.5t6 20.5q0 31 -19.5 44t-48 17.5t-59 3.5t-51.5 -1q-16 0 -39.5 -1t-47.5 -5.5t-42 -13.5t-25 -25q8 -41 -3 -93.5t-32.5 -105.5t-46 -103.5t-40.5 -87.5q-4 -6 -20.5 -37.5t-34 -69.5t-32 -71 t-16.5 -39q-2 -4 -6 -14t-9 -21.5t-8 -21.5t-3 -12q-10 -23 -23.5 -37t-13.5 -39zM66 1098q0 -45 29.5 -85t70.5 -40q25 0 55.5 13t30.5 48t-29 35q-18 0 -26.5 -14.5t-24.5 -14.5t-31.5 19.5t-15.5 34.5q0 29 27 40t47 11q43 0 78.5 -14.5t69.5 -36t66.5 -47t69.5 -46.5 q63 -31 132 -39t141 -8h12q8 0 17.5 1t19.5 1h12q47 10 78 44t31 90q0 57 -33 83.5t-80 26.5q-25 0 -43 -15.5t-18 -45.5q0 -12 5 -22.5t19 -10.5h6l2 2q4 0 12.5 11t12.5 16h4q18 0 36.5 -12.5t18.5 -35.5t-12 -36t-29.5 -19t-36 -8t-30.5 -2q-74 0 -127 9t-99.5 28.5 t-92.5 49.5t-107 73q-29 23 -66 26.5t-71 3.5q-47 0 -89 -24.5t-42 -89.5zM350 516q0 25 12.5 52.5t30 57t32.5 58.5t21 55h19l11 -19q11 -18 26.5 -42.5t31 -51t25.5 -44.5q4 -8 17.5 -34t17.5 -36l-16 -8h-201q-2 0 -11.5 3t-13.5 5z" />
<glyph unicode="&#xe4;" horiz-adv-x="997" d="M51 43q0 -35 27.5 -48t60.5 -13h41q25 0 44.5 14t19.5 43q0 18 -13.5 31.5t-13.5 33.5q0 35 15.5 66t31.5 59q20 35 39 71l19 36l34 8h82q72 0 128.5 -1t127.5 -7q37 -29 59.5 -85t43 -112.5t43 -98.5t59.5 -42q25 0 45.5 13.5t20.5 41.5q0 25 -12.5 51.5t-22.5 49.5 q-61 129 -132 250.5t-136 250.5q-8 14 -18.5 25.5t-10.5 28.5q0 12 6 19t13 13.5t13.5 14.5t6.5 20q0 31 -19.5 44.5t-48.5 17.5t-59.5 3t-50.5 -1q-16 0 -40 -1t-47.5 -5.5t-42 -13.5t-24.5 -25q8 -41 -3 -93.5t-32.5 -105.5t-46.5 -103.5t-41 -86.5q-4 -6 -20.5 -38 t-34 -70t-31.5 -70.5t-16 -39.5q-2 -4 -6.5 -14t-9.5 -21.5t-8 -21.5t-3 -12q-10 -23 -23.5 -37t-13.5 -39zM353 947.5q-7 -27.5 32 -54.5q27 0 40 3t22.5 12.5t17.5 25.5t27 41q2 10 9 24.5t3 26.5q6 14 -2 20.5t-21.5 7.5t-29 -2t-21.5 -10q-10 -8 -21.5 -16t-21.5 -18 l12 8q-39 -41 -46 -68.5zM373 477q0 25 12 52.5t29.5 57t33 58.5t21.5 55h18l11 -18q12 -18 27.5 -43t30.5 -51.5t26 -44.5l17 -34t17 -36l-16 -8h-201q-2 0 -11 3t-13 5zM556 945.5q-7 -27.5 32 -54.5q27 0 40 3t22 12t17.5 25.5t26.5 41.5q2 10 9.5 24.5t3.5 26.5 q6 14 -2.5 20.5t-21.5 7.5t-28.5 -2t-21.5 -10q-10 -8 -21.5 -16t-21.5 -18l12 8q-39 -41 -46 -68.5z" />
<glyph unicode="&#xe5;" horiz-adv-x="1007" d="M39 51q0 -35 27.5 -48t60.5 -13h41q25 0 44 14t19 43q0 18 -13 31.5t-13 34.5q0 35 15.5 65.5t31.5 59.5q20 35 38 70l19 36l35 8h82q72 0 128 -1t128 -7q37 -29 59.5 -85t43 -112.5t43 -98.5t59.5 -42q25 0 45 13.5t20 41.5q0 25 -12 51.5t-22 49.5q-61 129 -132 251 t-137 251q-8 14 -18 25t-10 28q0 12 6 19t13 13.5t13 14.5t6 20q0 31 -19 44.5t-48 17.5t-59.5 3t-51.5 -1q-16 0 -39.5 -1t-47 -5t-42 -13.5t-24.5 -25.5q8 -41 -3.5 -93.5t-33 -105.5t-46 -103t-40.5 -87q-4 -6 -20.5 -38t-34 -70t-32 -70.5t-16.5 -38.5q-2 -4 -6 -14.5 t-9 -21.5t-8 -21.5t-3 -12.5q-10 -23 -23.5 -37t-13.5 -39zM348 1108q0 -29 12.5 -57.5t33 -50t49 -35t61.5 -13.5q8 0 27.5 11.5t40 27t36 32.5t15.5 30l-9 110q0 14 -16 29.5t-37.5 26t-44 17.5t-35.5 7q-61 0 -97 -42t-36 -93zM360 485q0 25 12.5 52.5t30 57.5t33 58.5 t21.5 55.5h18l11 -19q12 -18 27 -42.5t30.5 -51.5t25.5 -45q4 -8 17.5 -33.5t17.5 -36.5l-16 -8h-201q-2 0 -11 3t-14 5zM442 1106q0 23 13.5 38t36.5 15q10 0 29.5 -9t19.5 -22l2 -45q0 -10 -18.5 -24.5t-24.5 -14.5q-25 0 -41.5 19.5t-16.5 42.5z" />
<glyph unicode="&#xe6;" horiz-adv-x="1542" d="M16 76q0 -35 28 -48.5t60 -13.5h41q25 0 44.5 14.5t19.5 43.5q0 18 -13.5 31.5t-13.5 33.5q0 35 15.5 65.5t31.5 59.5q20 35 39 71l19 36l35 8h81q72 0 128.5 -1t127.5 -7q29 -23 48.5 -63t35.5 -85v-153q8 -25 36 -43.5t50 -18.5h547q20 8 39 11t33 9.5t23.5 19.5 t9.5 40q0 23 -8.5 49.5t-38.5 26.5q-27 0 -46.5 -16.5t-46.5 -20.5q-43 -4 -86 -6t-86 -2h-247q-20 4 -30.5 14t-16 23.5t-7.5 32t-4 40.5v150l10 8q23 2 56 5t57 13q92 -4 186.5 -2t186.5 11q20 16 23 31.5t3 41.5q0 31 -8 53.5t-45 22.5q-29 0 -42 -16.5t-36 -20.5 q-78 -16 -156.5 -13t-156.5 -5h-22q-4 0 -26 3t-20 15l25 217l19 9l15 2t36.5 3l43 2t34.5 1h106q66 0 119 -6.5t112 -20.5h17q29 0 46 19.5t17 50.5q0 39 -27.5 54t-65.5 19.5t-78 2t-64 2.5h-4q-68 0 -134.5 -4.5t-134.5 -4.5h-170q-35 10 -57 11q-33 0 -48 -19.5 t-15 -50.5q0 -18 11 -31.5t27.5 -20.5t35 -11.5t30.5 -6.5v-34q0 -59 -9 -118t-16 -118q-27 49 -55 99.5t-63 117.5q-8 14 -18.5 25.5t-10.5 27.5q0 12 6 19.5t13.5 13.5t13.5 14.5t6 20.5q0 31 -19.5 44t-48 17t-59.5 3t-51 -1q-16 0 -40 -1t-47.5 -5t-42 -13t-24.5 -26 q8 -41 -3 -93t-32.5 -105.5t-46 -103.5t-41.5 -87q-4 -6 -20.5 -37.5t-33.5 -69.5t-31.5 -71t-16.5 -39q-2 -4 -6 -14t-9.5 -21.5t-8.5 -21.5t-3 -12q-10 -23 -23.5 -37.5t-13.5 -38.5zM338 510q0 25 12 52.5t29.5 57t33 58.5t21.5 55h19l11 -19q11 -18 26.5 -42.5t31 -51 t25.5 -45.5q4 -8 17.5 -33.5t17.5 -35.5l-17 -8h-200q-2 0 -11.5 3t-13.5 5z" />
<glyph unicode="&#xe7;" horiz-adv-x="837" d="M31 459q0 -49 15 -112.5t44 -122t71 -104.5t95 -61q14 -4 52 -13t75 -19q0 -102 -12 -191h6v-6h6v-6q6 -2 11 -4t16.5 -5t32 -8.5t57.5 -11.5q6 4 9 -3t9 -3q25 -2 30 -15.5t15 -31.5q4 -35 -5 -61.5t-36 -42.5q-4 -14 -19.5 -17.5t-25.5 -11.5q-29 -6 -52.5 0t-45 18.5 t-42 25.5t-40.5 19q-6 -4 -9 3.5t-9 2.5q-31 2 -46.5 -13t-17.5 -36.5t7 -44t28 -33.5v-6q8 -4 31.5 -15t101.5 -32q33 -18 63.5 -10t65.5 10l45 13q27 14 44 23t28.5 15.5t17.5 8.5t10 4q-4 6 3.5 9t3.5 9q20 25 32.5 55.5t12.5 63.5q0 31 -10.5 60.5t-34.5 47.5l-123 82 q-4 2 -9.5 0t-3.5 5h-6v6q-10 0 -10 10q0 8 -6 14q-2 4 0 11.5t-6 5.5q6 57 6 71h2q31 0 80 5.5t97 20.5t83 40.5t35 66.5q0 20 -10.5 34t-32.5 14q-4 0 -10.5 -1.5t-8.5 -1.5q-6 0 -26.5 -13t-24.5 -13q-53 -23 -93 -29t-97 -6q-162 0 -259.5 88t-97.5 254q0 51 23.5 104.5 t63.5 94.5t90.5 67.5t103.5 26.5q23 0 51.5 -1t48.5 -9q18 -6 34.5 -23.5t31 -35t27 -32t24.5 -14.5q35 0 46 28t11 56q0 43 -28.5 70.5t-69.5 44t-85 23t-77 6.5q-86 0 -160.5 -34t-129 -92.5t-86 -134t-31.5 -157.5zM518 84l1 1t3 1v6q4 2 6 -1t7 -7h-17z" />
<glyph unicode="&#xe8;" horiz-adv-x="897" d="M35 819q0 -18 11 -31.5t27.5 -20.5t35 -11t30.5 -6v-35q0 -74 -12 -147.5t-14 -147.5v-174v-170q8 -25 35.5 -43.5t50.5 -18.5h546q20 8 39 11.5t33 9.5t23.5 19.5t9.5 39.5q0 23 -8 49.5t-39 26.5q-27 0 -46.5 -16.5t-45.5 -20.5q-43 -4 -86 -6t-86 -2h-170h-33h-76h-16 l-11 8v252l11 8q23 2 55.5 5t56.5 14q92 -4 186.5 -2t186.5 10q20 16 23.5 31.5t3.5 42.5q0 31 -8.5 53t-45.5 22q-29 0 -42 -16t-35 -21q-78 -16 -157 -13t-157 -5h-22q-4 0 -25.5 3t-19.5 15l24 218l19 8l15 2t36.5 3l43 2t34.5 1h106q66 0 119 -6t113 -21h16 q29 0 46.5 19.5t17.5 50.5q0 39 -28 54.5t-66 19.5t-77.5 2t-64.5 2h-4q-68 0 -134.5 -4t-133.5 -4h-170q-35 10 -58 10q-33 0 -48 -19.5t-15 -50.5zM276 1358q18 20 46 15t60 -27.5t63.5 -57.5t59 -70.5t47.5 -67.5t26 -48l-7 16q8 -16 10.5 -28.5t6.5 -24.5q0 -8 -3 -22.5 t-9.5 -26.5t-15.5 -17.5t-19 7.5q-16 0 -23.5 13t-17.5 17q-16 25 -57.5 71t-82.5 93q-39 47 -66.5 91t-17.5 67z" />
<glyph unicode="&#xe9;" horiz-adv-x="862" d="M35 805q0 -18 11 -31.5t27.5 -21t35 -11.5t30.5 -6v-35q0 -74 -12 -147.5t-14 -146.5v-175v-170q8 -25 35.5 -43t50.5 -18h546q20 8 39 11t33 9.5t23.5 19.5t9.5 40q0 23 -8 49.5t-39 26.5q-27 0 -46.5 -16.5t-45.5 -20.5q-43 -4 -86 -6t-86 -2h-170h-33h-76h-16l-11 8 v252l11 8q23 2 55.5 5t56.5 13q92 -4 186.5 -2t186.5 11q20 16 23.5 31.5t3.5 41.5q0 31 -8.5 53.5t-45.5 22.5q-29 0 -42 -16.5t-35 -20.5q-78 -16 -157 -13t-157 -5h-22q-4 0 -25.5 3t-19.5 15l24 217l19 8l15 3q15 2 36.5 3l43 2t34.5 1h106q66 0 119 -6.5t113 -20.5h16 q29 0 46.5 19.5t17.5 50.5q0 39 -28 54t-66 19t-77.5 2t-64.5 2h-4q-68 0 -134.5 -4t-133.5 -4h-170q-35 10 -58 10q-33 0 -48 -19t-15 -50zM306 1000.5q-5 9.5 7 19.5q0 16 13.5 23.5t17.5 17.5q25 16 71 57t93 82q47 39 91 66.5t67 17.5q33 -29 6 -75t-76 -94t-104 -86 t-82 -46l16 6q-16 -8 -28.5 -10t-24.5 -6q-8 0 -22.5 3t-27 9t-17.5 15.5z" />
<glyph unicode="&#xea;" horiz-adv-x="849" d="M6 805q0 -18 11.5 -31.5t27.5 -21t34.5 -11.5t31.5 -6v-35q0 -74 -12.5 -147.5t-14.5 -146.5v-175v-170q8 -25 35.5 -43t50.5 -18h547q20 8 38.5 11t33 9.5t23.5 19.5t9 40q0 23 -8 49.5t-39 26.5q-27 0 -46 -16.5t-46 -20.5q-43 -4 -86 -6t-86 -2h-170h-33h-76h-16 l-10 8v252l10 8q23 2 55.5 5t57.5 13q92 -4 186 -2t186 11q20 16 23.5 31.5t3.5 41.5q0 31 -8 53.5t-45 22.5q-29 0 -42.5 -16.5t-35.5 -20.5q-78 -16 -157 -13t-156 -5h-23q-4 0 -25.5 3t-19.5 15l25 217l18 8l16 3q15 2 36.5 3l43 2t33.5 1h107q66 0 119 -6.5t112 -20.5 h16q29 0 46.5 19.5t17.5 50.5q0 39 -27.5 54t-65.5 19t-78 2t-65 2h-4q-68 0 -134 -4t-134 -4h-170q-35 10 -57 10q-33 0 -48.5 -19t-15.5 -50zM178 1079.5q8 53.5 38 113.5t68 115.5t60 73.5l-6 -6q10 10 19.5 15.5t19.5 11.5q4 2 14 4t23 2q27 0 37 -12q29 -16 59.5 -54 t56 -82t46 -87.5t28.5 -69.5v-2q2 -2 2 -6q0 -2 2 -4l-2 2q2 -10 3 -19.5t1 -19.5q0 -6 -6 -20.5t-14.5 -26t-18.5 -15.5t-18 11q-14 4 -19.5 16t-15.5 20q-10 29 -43 80t-66 107q-10 16 -18 32.5t-18 32.5q-16 -29 -38 -68.5t-44 -80.5q-33 -53 -62.5 -94t-58.5 -37 q-37 14 -29 67.5z" />
<glyph unicode="&#xeb;" horiz-adv-x="890" d="M35 805q0 -18 11 -31.5t27.5 -21t35 -11.5t30.5 -6v-35q0 -74 -12 -147.5t-14 -146.5v-175v-170q8 -25 35.5 -43t50.5 -18h546q20 8 39 11t33 9.5t23.5 19.5t9.5 40q0 23 -8 49.5t-39 26.5q-27 0 -46.5 -16.5t-45.5 -20.5q-43 -4 -86 -6t-86 -2h-170h-33h-76h-16l-11 8 v252l11 8q23 2 55.5 5t56.5 13q92 -4 186.5 -2t186.5 11q20 16 23.5 31.5t3.5 41.5q0 31 -8.5 53.5t-45.5 22.5q-29 0 -42 -16.5t-35 -20.5q-78 -16 -157 -13t-157 -5h-22q-4 0 -25.5 3t-19.5 15l24 217l19 8l15 3q15 2 36.5 3l43 2t34.5 1h106q66 0 119 -6.5t113 -20.5h16 q29 0 46.5 19.5t17.5 50.5q0 39 -28 54t-66 19t-77.5 2t-64.5 2h-4q-68 0 -134.5 -4t-133.5 -4h-170q-35 10 -58 10q-33 0 -48 -19t-15 -50zM312 1051.5q7 27.5 46 68.5l-12 -8q10 10 21.5 18.5t21.5 16.5q6 6 21.5 10t29 2t21.5 -8t2 -21q4 -12 -3 -26t-9 -25 q-18 -25 -26.5 -41t-18 -25t-22.5 -12.5t-40 -3.5q-39 27 -32 54.5zM515 1049.5q7 27.5 46 68.5l-12 -8q10 10 21.5 18.5t21.5 16.5q6 6 21.5 10t28.5 2t21.5 -8t2.5 -21q4 -12 -3.5 -26.5t-9.5 -24.5q-18 -25 -26.5 -41t-17.5 -25.5t-22.5 -12.5t-39.5 -3q-39 27 -32 54.5z " />
<glyph unicode="&#xec;" horiz-adv-x="464" d="M59 78q0 -27 27 -45q47 -2 110.5 -10.5t116.5 -8.5q29 0 45.5 17.5t16.5 42.5q0 27 -11.5 37t-26.5 13t-31.5 7t-26.5 21q0 10 -1.5 35.5t-1.5 54.5v53v37v98q0 72 2.5 134.5t8.5 146.5q2 25 17 34t32.5 16t32 18.5t14.5 39.5q0 57 -55 58h-15q-4 0 -18 -4.5t-16 -4.5 q-8 0 -30 -1t-46 -1q-23 0 -44.5 1t-29.5 1q-35 -16 -35 -53v-18q0 -10 8 -17q2 0 10.5 -4t17.5 -8t16.5 -8t9.5 -6q4 -4 6 -17.5t2 -27.5v-29v-21v-53q0 -23 -1 -81t-3 -123.5t-3 -124t-1 -80.5q0 -29 -15.5 -40.5t-33 -20.5t-33 -20.5t-15.5 -37.5zM68 1376q18 20 45.5 15 t59.5 -27.5t63.5 -57t59.5 -70.5t47.5 -68t25.5 -48l-7 17q8 -16 10.5 -28.5t6.5 -25.5q0 -8 -3 -22t-9.5 -26.5t-15.5 -17.5t-19 7q-16 0 -23.5 13.5t-17.5 17.5q-16 25 -57 70.5t-82 93.5q-39 47 -67 91t-17 66z" />
<glyph unicode="&#xed;" horiz-adv-x="413" d="M19.5 996.5q-5.5 9.5 7.5 19.5q0 16 13 23.5t17 17.5q25 16 71 57t93 82q47 39 91 66.5t67 17.5q33 -29 6 -75t-76 -94t-104 -86t-82 -46l16 6q-16 -8 -28.5 -10t-24.5 -6q-8 0 -22.5 3t-26.5 9t-17.5 15.5zM47 74q0 -27 27 -45q47 -2 110.5 -10.5t116.5 -8.5 q29 0 45 17.5t16 42.5q0 27 -11 37t-26.5 13t-32 7t-26.5 20q0 10 -1 36t-1 55v53v37v98q0 72 2 134.5t8 146.5q2 25 17.5 34t33 16t32 18t14.5 40q0 57 -56 57h-14q-4 0 -18.5 -4t-16.5 -4q-8 0 -29.5 -1t-46.5 -1q-23 0 -44 1t-29 1q-35 -16 -35 -53v-18q0 -10 8 -17 q2 0 10.5 -4t17.5 -8t16 -8t9 -6q4 -4 6.5 -17.5t2.5 -27.5v-29v-21v-53q0 -23 -1 -81t-3.5 -123.5t-3.5 -124t-1 -80.5q0 -29 -15 -40.5t-32.5 -20.5t-33 -20.5t-15.5 -37.5z" />
<glyph unicode="&#xee;" horiz-adv-x="413" d="M-26.5 1091.5q8.5 53.5 38 114t67.5 115.5t60 74l-6 -6q10 10 19.5 15t19.5 11q4 2 14.5 4t22.5 2q27 0 37 -12q29 -16 59.5 -54t56 -82t46 -87t28.5 -70v-2q2 -2 2 -6q0 -2 2 -4l-2 2q2 -10 3 -19.5t1 -19.5q0 -6 -6 -20.5t-14 -25.5t-18.5 -15.5t-18.5 10.5 q-14 4 -19.5 16t-15.5 21q-10 29 -43 80t-65 106q-10 16 -18.5 32.5t-18.5 33.5q-16 -29 -38 -69t-44 -81q-33 -53 -62.5 -94t-58.5 -37q-37 14 -28.5 67.5zM53 68q0 -27 27 -45q47 -2 110.5 -10.5t116.5 -8.5q29 0 45.5 17.5t16.5 41.5q0 27 -11.5 37.5t-27 13.5t-31.5 7 t-27 20q0 10 -1 36t-1 54v54v37v98q0 72 2 134t9 146q2 25 17 34t32.5 16.5t32 18.5t14.5 40q0 57 -55 57h-15q-4 0 -18.5 -4t-16.5 -4q-8 0 -29.5 -1t-45.5 -1q-23 0 -44.5 1t-29.5 1q-35 -16 -35 -53v-19q0 -10 8 -16q2 0 10.5 -4t17.5 -8t16 -8.5t10 -6.5q4 -4 6 -17 t2 -28v-28v-21v-53q0 -23 -1 -81t-3 -123.5t-3 -124t-1 -81.5q0 -29 -15.5 -40t-33 -20t-33 -20.5t-15.5 -37.5z" />
<glyph unicode="&#xef;" horiz-adv-x="407" d="M25 63q-1 -27 26 -45q47 -2 110.5 -10t117.5 -8q29 0 45 17.5t16 41.5q0 27 -11.5 37t-26.5 13.5t-31.5 7.5t-26.5 20q0 10 -1 36t-1 54v54v36v99q0 72 2 134t8 146q2 25 17.5 34t32.5 16.5t31.5 18.5t14.5 40q0 57 -55 57h-14q-4 0 -18.5 -4t-16.5 -4q-8 0 -29.5 -1 t-46.5 -1q-23 0 -44.5 1t-29.5 1q-35 -16 -35 -53v-19q0 -10 9 -16q2 0 10 -4t17 -8t16.5 -8.5t9.5 -6.5q4 -4 6 -17t2 -28v-28v-21v-53q0 -23 -1 -81t-3 -123.5t-3 -124t-1 -81.5q0 -29 -15.5 -40t-33 -20t-32.5 -20.5t-15 -38.5zM50 1078.5q7 27.5 46 68.5l-12 -8 q10 10 21.5 18t21.5 17q6 6 21.5 10t28.5 2t21.5 -8.5t2.5 -20.5q4 -12 -3.5 -26.5t-9.5 -24.5q-18 -25 -26 -41t-17.5 -25.5t-22.5 -12.5t-40 -3q-39 27 -32 54.5zM253 1076.5q7 27.5 46 68.5l-12 -8q10 10 21 18l22 16q6 6 21.5 10.5t28.5 2.5t21.5 -8.5t1.5 -20.5 q4 -12 -3 -26.5t-9 -24.5q-18 -25 -26.5 -41t-17.5 -25.5t-22.5 -12.5t-39.5 -3q-39 27 -32 54.5z" />
<glyph unicode="&#xf0;" horiz-adv-x="884" d="M55 451q0 29 4 45t15 51q16 59 32.5 99t41 68.5t61.5 48t92 38.5q6 2 20.5 7t31 11t33.5 11.5t28 5.5q88 -4 168 -37q-2 0 -3 -1t-4 -1v6l-4 6q-8 35 -28.5 63.5t-36.5 59.5q-16 0 -25.5 6t-15.5 10t-14 4t-21 -10q-14 -4 -36.5 -16.5t-46 -21.5t-45 -12t-34.5 11 q-23 4 -18.5 26.5t24.5 24.5q23 23 49.5 48.5t61.5 21.5q-41 57 -90 88t-90 57q-18 12 -30.5 19.5t-22 14.5t-17.5 16.5t-18 25.5q0 6 -5.5 10.5t-9.5 9.5t-3 8t12 7v6q57 8 112.5 -6t104.5 -43t91 -66.5t70 -76.5q14 23 49 49t50 45q25 2 51.5 -2t30.5 -27q2 -23 -10.5 -40 t-30 -32.5t-32.5 -31t-22 -31.5q2 -10 16.5 -28.5t31 -39t30 -39t17.5 -26.5q53 -92 84.5 -174t60.5 -170q12 -45 11 -84t-1 -88v-117q-35 -117 -122 -185.5t-209 -68.5q-92 0 -172 35t-139.5 95.5t-93.5 142.5t-34 174zM178 465q0 -72 22.5 -134.5t63.5 -110.5t101.5 -75.5 t134.5 -27.5q55 0 95 19.5t66.5 53t39 78.5t12.5 94q0 100 -27 176t-123 121q-35 16 -70.5 31t-72.5 15q-111 0 -176.5 -61.5t-65.5 -178.5z" />
<glyph unicode="&#xf1;" horiz-adv-x="913" d="M31 1051q0 -45 29.5 -85t70.5 -40q25 0 55.5 13t30.5 48t-29 35q-18 0 -26 -14.5t-25 -14.5q-16 0 -31.5 19.5t-15.5 34.5q0 29 27 40t47 11q43 0 79 -14.5t69.5 -36t66.5 -47t70 -46.5q63 -31 131.5 -39t140.5 -8h12q8 0 17.5 1t19.5 1h12q47 10 78 44t31 89 q0 57 -33 84t-80 27q-25 0 -43 -15.5t-18 -45.5q0 -12 5 -22.5t19 -10.5h7l2 2q4 0 12 11t12 15h4q18 0 37 -12t19 -35t-12.5 -36t-30 -19t-36 -8t-30.5 -2q-74 0 -127 9t-99 28.5t-92.5 49.5t-107.5 73q-29 23 -65.5 26.5t-71.5 3.5q-47 0 -89 -24.5t-42 -89.5zM82 -600 q0 -20 9 -31.5t23.5 -17.5t31 -8t32.5 -2q57 0 70.5 29.5t17.5 82.5q2 23 5 70t5.5 96t4.5 90t2 51v43v76v74v39q0 12 1 64.5t3 110.5t3 110.5t1 64.5v8q0 47 -4 92t-4 93v51q18 -10 33.5 -23.5t27.5 -27.5q10 -16 36 -55.5t55.5 -82.5t56 -82t36.5 -53q2 -4 10.5 -15 t18.5 -24.5t19.5 -25t11.5 -13.5q10 -14 22.5 -36.5t26.5 -46t30.5 -46t34.5 -37.5q10 -8 23.5 -9t26.5 -1q39 0 48 24.5t15 55.5q0 76 -1 144.5t0 135t3 133t8 138.5q0 6 1 18.5t3 24.5t3.5 22.5t1.5 12.5q6 25 16 33t10 34q0 35 -35 47q-6 0 -22.5 1.5t-34.5 3.5t-34.5 3 t-22.5 1h-11q-23 0 -37 -18.5t-14 -39.5q0 -29 22.5 -47t30.5 -45q0 -12 -1 -42t-3 -62.5t-3 -62t-1 -42.5q0 -6 -2 -35.5t-5 -62.5t-8 -59.5t-11 -26.5t-14.5 7t-12.5 11q-66 98 -137.5 203t-151.5 199q-2 4 -13 13t-13 13q-25 39 -46.5 72t-74.5 33q-14 0 -33.5 -1t-38 -5 t-31 -16.5t-12.5 -32.5q0 -29 14.5 -47.5t38.5 -36.5q2 -18 5.5 -62.5t5.5 -95.5t4 -95t2 -63q0 -2 1 -22.5t1 -48.5v-56v-43q0 -180 -6 -358t-21 -359q0 -18 -8 -30.5t-18.5 -23.5t-18.5 -22.5t-8 -29.5z" />
<glyph unicode="&#xf2;" horiz-adv-x="862" d="M41 469q0 29 4 45t14 51q16 59 33 99.5t41.5 69t61 48t92.5 37.5q6 2 20.5 7t30.5 11.5t33.5 11.5t27.5 5q66 -4 131.5 -24.5t120 -57.5t94 -88t56.5 -119q12 -45 11 -84t-1 -88v-117q-35 -117 -122 -185t-210 -68q-92 0 -172 34.5t-139 95t-93 142.5t-34 174zM164 483 q0 -72 22.5 -134t63.5 -110.5t101.5 -76t133.5 -27.5q55 0 95.5 19.5t67 53.5t38.5 79t12 94q0 100 -26.5 176t-122.5 121q-35 16 -71 30.5t-72 14.5q-111 0 -176.5 -61.5t-65.5 -178.5zM266 1325q18 20 46 15t59.5 -27.5t63.5 -57t59.5 -70.5t47 -68t25.5 -48l-6 16 q8 -16 10 -28.5t7 -24.5q0 -8 -3.5 -22.5t-9.5 -26.5t-15 -17t-20 7q-16 0 -23 13t-18 18q-16 25 -57 70.5t-82 92.5q-39 47 -66.5 91.5t-17.5 66.5z" />
<glyph unicode="&#xf3;" horiz-adv-x="837" d="M31 451q0 29 4 45t14 51q16 59 32.5 99t41 68.5t61.5 48t92 38.5q6 2 20.5 7t31 11t34 11.5t27.5 5.5q66 -4 131.5 -24.5t119.5 -57.5t94 -88.5t57 -118.5q12 -45 11 -84t-1 -88v-117q-35 -117 -122 -185.5t-210 -68.5q-92 0 -172 35t-139.5 95.5t-93 142.5t-33.5 174z M154 465q0 -72 22.5 -134.5t63.5 -110.5t101 -75.5t134 -27.5q55 0 95 19.5t67 53t39 78.5t12 94q0 100 -26.5 176t-122.5 121q-35 16 -71 31t-73 15q-111 0 -176 -61.5t-65 -178.5zM247 941q-5 9 7 20q0 16 13.5 23t17.5 17q25 16 70.5 57.5t93.5 82.5q47 39 91 66.5 t66 17.5q33 -29 6.5 -75t-76 -94t-104.5 -86t-82 -46l17 6q-16 -8 -28.5 -10t-25.5 -7q-8 0 -22.5 3.5t-26.5 9.5t-17 15z" />
<glyph unicode="&#xf4;" horiz-adv-x="856" d="M31 457q0 29 4 45t14 51q16 59 32.5 99t41 69t61.5 48t92 38q6 2 20.5 7t31 11t34 11.5t27.5 5.5q66 -4 131.5 -24.5t119.5 -57.5t94 -88t57 -119q12 -45 11 -84t-1 -88v-117q-35 -117 -122 -185.5t-210 -68.5q-92 0 -172 35t-139.5 95.5t-93 142.5t-33.5 174zM154 471 q0 -72 22.5 -134.5t63.5 -110.5t101 -75.5t134 -27.5q55 0 95 19.5t67 53t39 78.5t12 95q0 100 -26.5 176t-122.5 121q-35 16 -71 30.5t-73 14.5q-111 0 -176 -61.5t-65 -178.5zM176 1040.5q8 53.5 38 113.5t67.5 115.5t60.5 73.5l-6 -6q10 10 19.5 15.5t19.5 11.5q4 2 14 4 t23 2q27 0 37 -12q29 -16 59.5 -54t56 -82t46 -87t28.5 -70v-2q2 -2 2 -6q0 -2 2 -4l-2 2q2 -10 3 -19.5t1 -19.5q0 -6 -6 -20.5t-14.5 -26t-18.5 -15.5t-18 11q-14 4 -19.5 16t-15.5 20q-10 29 -43 80.5t-66 106.5q-10 16 -18 32.5t-18 32.5q-16 -29 -38 -68.5t-44 -80.5 q-33 -53 -63 -94t-58 -37q-37 14 -29 67.5z" />
<glyph unicode="&#xf5;" horiz-adv-x="862" d="M-8 1075q0 -45 29.5 -85t70.5 -40q25 0 55.5 13.5t30.5 48.5t-28 35q-18 0 -26.5 -14.5t-25.5 -14.5q-16 0 -31.5 19.5t-15.5 33.5q0 29 27 40t47 11q43 0 79 -14t69.5 -35.5t66.5 -47.5t70 -46q63 -31 131.5 -39t140.5 -8h12q8 0 17.5 1t19.5 1h12q47 10 78 44t31 89 q0 57 -33 84t-80 27q-25 0 -43 -15.5t-18 -46.5q0 -12 5 -22.5t19 -10.5h7l2 2q4 0 12 11.5t12 15.5h4q18 0 37 -12.5t19 -34.5q0 -23 -12.5 -36t-30 -19t-36 -8.5t-30.5 -2.5q-74 0 -127 9.5t-99 29t-92 49t-108 72.5q-29 23 -65.5 27t-71.5 4q-47 0 -89 -24.5t-42 -90.5z M47 475q0 29 4 45.5t15 50.5q16 59 32.5 99.5t41 69t61.5 48t92 37.5q6 2 20.5 7.5t30.5 11.5t33.5 11t28.5 5q66 -4 131 -24.5t119.5 -57.5t94.5 -88t56 -119q12 -45 11 -83.5t-1 -88.5v-116q-35 -117 -122 -185.5t-210 -68.5q-92 0 -172 34.5t-139 95t-93 142.5t-34 174z M170 489q0 -72 22.5 -134t63.5 -110t101.5 -76t134.5 -28q55 0 95 19.5t66.5 53.5t39 79t12.5 94q0 100 -27 176t-123 121q-35 16 -70.5 30.5t-72.5 14.5q-111 0 -176.5 -61.5t-65.5 -178.5z" />
<glyph unicode="&#xf6;" horiz-adv-x="884" d="M51 451q0 29 4 45t15 51q16 59 32.5 99t41 68.5t61.5 48t92 38.5q6 2 20.5 7t31 11t33.5 11.5t28 5.5q66 -4 131 -24.5t119.5 -57.5t94.5 -88.5t56 -118.5q12 -45 11 -84t-1 -88v-117q-35 -117 -122 -185.5t-210 -68.5q-92 0 -171.5 35t-139 95.5t-93.5 142.5t-34 174z M174 465q0 -72 22.5 -134.5t63.5 -110.5t101.5 -75.5t134.5 -27.5q55 0 95 19.5t66.5 53t39 78.5t12.5 94q0 100 -27 176t-123 121q-35 16 -70.5 31t-72.5 15q-111 0 -176.5 -61.5t-65.5 -178.5zM292 926.5q-7 -27.5 32 -54.5q27 0 40 3.5t22 12.5t17.5 25.5t26.5 40.5 q2 10 9 24.5t3 27.5q6 14 -2 20t-21 7t-28.5 -2t-21.5 -9q-10 -8 -21.5 -16.5t-21.5 -18.5l12 8q-39 -41 -46 -68.5zM494.5 924.5q-7.5 -27.5 31.5 -54.5q27 0 40.5 3.5t22.5 12.5t17 25.5t27 40.5q2 10 9 24.5t3 27.5q6 14 -2 20t-21.5 7t-28.5 -2t-22 -9q-10 -8 -21 -16.5 t-22 -18.5l13 8q-39 -41 -46.5 -68.5z" />
<glyph unicode="&#xf7;" horiz-adv-x="989" d="M66 498q-8 18 32.5 28.5t107 15.5t150.5 6t164 0t147.5 -4t100.5 -7l-29 2q25 -2 47.5 -8.5t40.5 -10.5q12 -2 29.5 -10t28 -17.5t7.5 -17.5t-34 -8q-23 -6 -47.5 -4t-42.5 2q-57 2 -166 2h-223q-55 0 -106.5 2t-94.5 5t-72.5 9t-39.5 15zM375 266.5q-2 14.5 7 32.5 t32 45l-13 -10q12 14 24.5 24.5t25.5 20.5q6 8 24.5 11t35.5 -5t27.5 -32.5t2.5 -69.5q-16 -25 -24.5 -39.5t-14.5 -21.5t-13.5 -10t-19.5 -3h-45q-23 16 -35 29.5t-14 28zM377 659.5q-6 24.5 41 77.5l-15 -10q12 14 24.5 23.5t25.5 19.5q8 8 26.5 12t35.5 -5t26.5 -32.5 t1.5 -70.5q-16 -23 -24.5 -37t-14.5 -22.5t-12.5 -10.5t-18.5 -2h-45q-45 33 -51 57.5z" />
<glyph unicode="&#xf8;" horiz-adv-x="872" d="M35 485q0 -125 58.5 -226t156.5 -161q-41 -131 -63.5 -218t-10.5 -95q14 -16 34.5 -3t45.5 50t51.5 93.5t54.5 127.5q49 -14 111 -14q123 0 210 68.5t122 185.5v117q0 49 1 88t-11 84q-18 72 -63.5 127t-106.5 92q39 121 65.5 202.5t36.5 98.5q2 10 9 24.5t3 26.5 q6 14 -2 20.5t-21.5 8.5t-28.5 -2t-21 -11l-31 -26q-12 -12 -46 -92t-79 -201q-29 8 -58.5 13t-58.5 7q-10 0 -27.5 -5t-34 -11t-30.5 -11t-20 -7q-55 -18 -92 -38t-62 -48.5t-41 -68.5t-33 -99q-10 -35 -14 -51.5t-4 -45.5zM158 500q0 117 65.5 178t175.5 61q31 0 66 -12 q-45 -123 -91 -256t-87 -256q-61 47 -95 122t-34 163zM406 160q47 121 91 254t85 258q72 -47 91 -117t19 -158q0 -49 -12 -94t-39 -79t-66.5 -53t-95.5 -19q-43 0 -73 8z" />
<glyph unicode="&#xf9;" horiz-adv-x="983" d="M82 776q0 -35 24.5 -47t53.5 -12v-8q-23 -78 -42.5 -149.5t-19.5 -151.5q0 -49 7.5 -101.5t27 -98.5t54 -82t87.5 -54q63 -23 116.5 -37.5t119.5 -14.5q53 0 101 21.5t83 21.5q12 0 19.5 -7t16.5 -14t21.5 -14.5t32.5 -7.5q16 0 40 2.5t45.5 8.5t37 19t15.5 36 q0 25 -10.5 35t-24 17t-26.5 14.5t-19 23.5q-16 43 -20.5 89t-4.5 93q0 20 -1 71.5t-1 109.5q0 57 1 107t1 71q-2 12 -4 35.5t-9 47t-20.5 41t-38.5 17.5q-29 0 -58.5 -17.5t-29.5 -49.5q0 -14 6.5 -22.5t12.5 -17t12 -17.5t6 -25q0 -18 -1 -64.5t-1 -97.5t1 -97.5t1 -64.5 q0 -4 1 -16.5t3 -26.5t3 -27.5t1 -15.5v-14q0 -31 -17 -57.5t-44 -46t-58.5 -31t-58.5 -11.5q-139 0 -221 60.5t-82 199.5q0 94 27.5 180.5t60.5 174.5v20q0 29 -13 55.5t-48 28.5q-14 -2 -42 -5t-55.5 -10t-48 -23.5t-20.5 -43.5zM313 1356q18 20 46 15t60 -27.5 t63.5 -57.5t59 -70.5t47 -67.5t25.5 -48l-6 16q8 -16 10.5 -28.5t6.5 -24.5q0 -8 -3.5 -22.5t-9.5 -27t-15 -17.5t-19 8q-16 0 -23.5 13t-17.5 17q-16 25 -57.5 71t-82.5 93q-39 47 -66.5 91t-17.5 67z" />
<glyph unicode="&#xfa;" horiz-adv-x="954" d="M70 766q0 -35 24.5 -47t52.5 -12v-9q-23 -78 -42 -149.5t-19 -151.5q0 -49 7 -101t26.5 -98t54.5 -82t88 -55q63 -23 116.5 -37t119.5 -14q53 0 101 21.5t83 21.5q12 0 19.5 -7t16.5 -14t21.5 -14.5t32.5 -7.5q16 0 40 2t45.5 8.5t36.5 19.5t15 36q0 25 -10 35t-23.5 17 t-26.5 14.5t-20 23.5q-16 43 -20 89t-4 93q0 20 -1 71.5t-1 108.5t1 107.5t1 71.5q-2 12 -4 35.5t-9.5 47t-20.5 41t-38 17.5q-29 0 -58.5 -17.5t-29.5 -50.5q0 -14 6 -22t12.5 -16.5t12.5 -17.5t6 -26q0 -18 -1 -64t-1 -97t1 -97.5t1 -64.5q0 -4 1 -16.5t3 -27t3 -27.5 t1 -15v-15q0 -31 -17.5 -57.5t-44 -45.5t-58 -30.5t-58.5 -11.5q-139 0 -221 60.5t-82 199.5q0 94 27.5 180t60.5 174v21q0 29 -13.5 55.5t-47.5 28.5q-14 -2 -42 -5t-55.5 -10.5t-48 -23.5t-20.5 -43zM306 959.5q-5 9.5 7 19.5q0 16 13.5 23.5t17.5 17.5q25 16 71 57t93 82 q47 39 91 66.5t67 17.5q33 -29 6 -75t-76 -94t-104 -86t-82 -46l16 6q-16 -8 -28.5 -10t-24.5 -6q-8 0 -22.5 3t-27 9t-17.5 15.5z" />
<glyph unicode="&#xfb;" horiz-adv-x="890" d="M35 782q0 -35 24.5 -47t53.5 -12v-8q-23 -78 -42.5 -149.5t-19.5 -151.5q0 -49 7.5 -101.5t26.5 -98.5t54 -82t88 -54q63 -23 116.5 -37t119.5 -14q53 0 101 21.5t83 21.5q12 0 19.5 -7.5t16.5 -14.5t21.5 -14t32.5 -7q16 0 40 2t45.5 8t36.5 19.5t15 35.5q0 25 -10 35 t-23.5 17.5t-26.5 14.5t-19 23q-16 43 -20.5 89t-4.5 94q0 20 -1 71t-1 109q0 57 1 107t1 71q-2 12 -4 35.5t-9 47t-20.5 41t-38.5 17.5q-29 0 -58.5 -17.5t-29.5 -49.5q0 -14 6.5 -22.5t12.5 -16.5t12 -17.5t6 -25.5q0 -18 -1 -64.5t-1 -97.5t1 -97t1 -65q0 -4 1 -16.5 t3 -26.5t3 -27.5t1 -15.5v-14q0 -31 -17 -57.5t-44 -46t-58.5 -31t-58.5 -11.5q-139 0 -221 60.5t-82 200.5q0 94 27.5 180t60.5 174v20q0 29 -13 55.5t-48 28.5q-14 -2 -42 -5t-55.5 -10t-48 -23.5t-20.5 -43.5zM198.5 1073q8.5 53 38 113.5t67.5 116t61 73.5l-7 -6 q10 10 19.5 15.5t19.5 11.5q4 2 14.5 4t22.5 2q27 0 37 -12q29 -16 59.5 -54.5t56 -82.5t46 -87t29.5 -69v-2q2 -2 2 -6q0 -3 2 -5l-2 2q2 -10 3 -19t1 -19q0 -6 -6.5 -20.5t-14.5 -26t-18.5 -15.5t-18.5 10q-14 4 -19 16.5t-16 20.5q-10 29 -42.5 80t-65.5 107 q-10 16 -18.5 32.5t-18.5 32.5q-16 -29 -37.5 -68.5t-44.5 -80.5q-33 -53 -62.5 -94.5t-58.5 -36.5q-37 14 -28.5 67z" />
<glyph unicode="&#xfc;" horiz-adv-x="923" d="M39 754q0 -35 24.5 -47.5t53.5 -12.5v-8q-23 -78 -42.5 -149.5t-19.5 -151.5q0 -49 7.5 -101.5t27 -98.5t54 -81.5t87.5 -54.5q63 -23 116.5 -37t119.5 -14q53 0 101 21.5t83 21.5q12 0 19.5 -7t16.5 -14.5t21.5 -14.5t32.5 -7q16 0 40 2t45.5 8t37 19.5t15.5 35.5 q0 25 -10.5 35.5t-24 17.5t-26.5 14t-19 24q-16 43 -20.5 89t-4.5 93q0 20 -1 71.5t-1 108.5t1 107.5t1 70.5q-2 12 -4 36t-9 47.5t-20.5 41t-38.5 17.5q-29 0 -58.5 -17.5t-29.5 -50.5q0 -14 6.5 -22.5t12.5 -16.5t12 -17.5t6 -25.5q0 -18 -1 -64.5t-1 -97.5t1 -97t1 -65 q0 -4 1 -16t3 -26.5t3 -27.5t1 -16v-14q0 -31 -17 -57.5t-44 -46t-58.5 -30.5t-58.5 -11q-139 0 -221 60.5t-82 199.5q0 94 27.5 180t60.5 174v21q0 29 -13 55.5t-48 28.5q-14 -2 -42 -5.5t-55.5 -10.5t-48 -23.5t-20.5 -42.5zM292 926.5q-7 -27.5 32 -54.5q27 0 40 3.5 t22 12.5t17.5 25.5t26.5 40.5q2 10 9 24.5t3 27.5q6 14 -2 20t-21 7t-28.5 -2t-21.5 -9q-10 -8 -21.5 -16.5t-21.5 -18.5l12 8q-39 -41 -46 -68.5zM494.5 924.5q-7.5 -27.5 31.5 -54.5q27 0 40.5 3.5t22.5 12.5t17 25.5t27 40.5q2 10 9 24.5t3 27.5q6 14 -2 20t-21.5 7 t-28.5 -2t-22 -9q-10 -8 -21 -16.5t-22 -18.5l13 8q-39 -41 -46.5 -68.5z" />
<glyph unicode="&#xfd;" horiz-adv-x="716" d="M41 836q0 37 27.5 49t60.5 12q31 0 50.5 -18.5t19.5 -49.5q0 -4 -1 -11l-1 -7q0 -2 -1 -11t-3.5 -19.5t-3.5 -19.5t-1 -11q0 -82 9.5 -144.5t37 -103.5t81 -62.5t143.5 -21.5q10 0 33.5 1t25.5 1l19 8q0 4 2 24.5t4 50t2 46.5v119v116q-4 6 -13.5 25.5t-13.5 26.5v4 q0 29 32 47t56 18q25 0 37 -11t23 -32v-24q0 -16 1 -35t1 -35v-23q0 -74 -5.5 -146.5t-5.5 -145.5q0 -86 13.5 -171t13.5 -171q0 -47 1 -101.5t-19 -99.5q-23 -55 -61 -106.5t-86 -89.5t-106.5 -60.5t-121.5 -22.5q-49 0 -92 16.5t-77 45t-53.5 68.5t-19.5 89 q0 55 24.5 95.5t62.5 66t86 38.5t97 13q37 0 57.5 -23.5t20.5 -53.5q0 -23 -14 -41.5t-37 -18.5q-18 0 -35.5 5.5t-36.5 5.5q-18 0 -37.5 -7.5t-36 -19.5t-27.5 -28.5t-11 -37.5q0 -23 14 -40t34.5 -28.5t43 -17.5t41.5 -6q39 0 71.5 15.5t65.5 37.5q45 31 70.5 67t39 77 t17.5 88t4 98q0 8 1 31.5t-1 48.5t-7 46.5t-19 27.5q-6 0 -21.5 1t-32 3t-31 3t-20.5 1q-55 2 -114.5 16.5t-108.5 43t-84 73.5t-41 111q0 14 -3 49t-6 72.5t-5 72.5t-2 49q-27 18 -27 52zM193.5 1041.5q-5.5 9.5 7.5 19.5q0 16 13 23.5t17 17.5q25 16 71 57t93 82 q47 39 91 66.5t67 17.5q33 -29 6 -75t-76 -94t-104 -86t-82 -46l16 6q-16 -8 -28.5 -10t-24.5 -6q-8 0 -22.5 3t-26.5 9t-17.5 15.5z" />
<glyph unicode="&#xfe;" horiz-adv-x="849" d="M84 1512.5q2 -17.5 2 -19.5q0 -98 3 -177t6 -167t4 -200.5t-3 -280.5v-86q-4 -10 -5 -27.5t-3 -24.5l6 -223v-108q0 -98 -2 -157.5t2 -102.5q0 -16 6 -23.5t11.5 -11.5t7.5 -6t-4 -4l43 14q12 4 22 3t19.5 -2t14.5 2t7 15q4 25 5 47.5t-1 42.5v84l-2 310h144 q100 20 180 49.5t134 81t83 127t29 190.5q0 117 -70 211q-47 61 -103.5 95t-120 49.5t-134 18.5t-144.5 3q-2 86 -3 162t3 153q0 35 -15.5 52.5t-37 18.5t-44 -14.5t-32.5 -46t-8 -48zM221 735v205q2 57 4 103.5t2 68.5q10 10 25 10h27q68 0 139 -8t129.5 -35.5t95.5 -80 t37 -140.5q0 -96 -29.5 -160.5t-82 -103.5t-125 -56.5t-158.5 -17.5q-10 0 -32 1t-30 1z" />
<glyph unicode="&#xff;" horiz-adv-x="757" d="M47 905q0 37 27.5 49.5t60.5 12.5q31 0 50.5 -18.5t19.5 -49.5q0 -4 -1 -11l-1 -7q0 -2 -1 -11.5t-3 -19.5t-3 -19.5t-1 -11.5q0 -82 9 -144.5t36.5 -103.5t81 -62.5t143.5 -21.5q10 0 33.5 1t25.5 1l19 9q0 4 2 24.5t4 50t2 45.5v119v117q-4 6 -13.5 25.5t-13.5 25.5v4 q0 29 32 47.5t56 18.5q25 0 37.5 -11.5t22.5 -31.5v-25q0 -16 1 -34.5t1 -34.5v-23q0 -74 -5 -146.5t-5 -146.5q0 -86 13 -171t13 -171q0 -47 1 -101t-19 -99q-23 -55 -61 -106.5t-86 -89.5t-106.5 -60.5t-121.5 -22.5q-49 0 -92 16.5t-77 45t-53.5 68.5t-19.5 89 q0 55 24.5 95t62.5 65.5t86 39t98 13.5q37 0 57 -23.5t20 -54.5q0 -23 -14 -41t-37 -18q-18 0 -35.5 5t-35.5 5t-38 -7t-36.5 -19.5t-27.5 -29t-11 -36.5q0 -23 14.5 -40t35 -28.5t43 -17.5t40.5 -6q39 0 72 15.5t65 37.5q45 31 71 66.5t39 76.5t17 88.5t4 98.5q0 8 1 31.5 t-1 48t-7 46t-19 27.5q-6 0 -21.5 1t-32 3.5t-31 3.5t-20.5 1q-55 2 -114.5 16t-108.5 43t-84 74t-41 110q0 14 -3 49t-6 73t-5 73t-2 49q-27 18 -27 51zM226 1139.5q7 27.5 46 68.5l-12 -8q10 10 21.5 18.5t21.5 16.5q6 6 21.5 10t29 2t21.5 -8t2 -20q4 -12 -3 -26.5 t-9 -25.5q-18 -25 -26.5 -41t-18 -25t-22.5 -12.5t-40 -3.5q-39 27 -32 54.5zM429 1137.5q7 27.5 46 68.5l-12 -8q10 10 21.5 18.5t21.5 16.5q6 6 21.5 10t28.5 2t21.5 -8t2.5 -20q4 -12 -3.5 -26.5t-9.5 -25.5q-18 -25 -26.5 -41t-17.5 -25t-22.5 -12.5t-39.5 -3.5 q-39 27 -32 54.5z" />
</font>
</defs>
</svg>
